<ttFont>
<head>
    <!-- Most of this table will be recalculated by the compiler -->
    <tableVersion value="1.0"/>
    <fontRevision value="5.0"/>
    <checkSumAdjustment value="0xa4c0b804"/>
    <magicNumber value="0x5f0f3cf5"/>
    <flags value="00000000 00001011"/>
    <unitsPerEm value="2048"/>
    <created value="Sun May 15 08:57:39 2005"/>
    <modified value="Wed Apr 13 18:29:42 2011"/>
    <xMin value="-98"/>
    <yMin value="-1011"/>
    <xMax value="8291"/>
    <yMax value="2282"/>
    <macStyle value="00000000 00000000"/>
    <lowestRecPPEM value="8"/>
    <fontDirectionHint value="2"/>
    <indexToLocFormat value="1"/>
    <glyphDataFormat value="0"/>
  </head>
    <TTGlyph name=".notdef" xMin="142" yMin="226" xMax="842" yMax="1588">
      <contour>
        <pt x="142" y="226" on="1"/>
        <pt x="142" y="1588" on="1"/>
        <pt x="842" y="1588" on="1"/>
        <pt x="842" y="226" on="1"/>
      </contour>
      <contour>
        <pt x="284" y="368" on="1"/>
        <pt x="700" y="368" on="1"/>
        <pt x="700" y="1447" on="1"/>
        <pt x="284" y="1447" on="1"/>
      </contour>
    </TTGlyph>
    <TTGlyph name=".null" xMin="142" yMin="226" xMax="842" yMax="1588">
      <contour>
        <pt x="142" y="226" on="1"/>
        <pt x="142" y="1588" on="1"/>
        <pt x="842" y="1588" on="1"/>
        <pt x="842" y="226" on="1"/>
      </contour>
      <contour>
        <pt x="284" y="368" on="1"/>
        <pt x="700" y="368" on="1"/>
        <pt x="700" y="1447" on="1"/>
        <pt x="284" y="1447" on="1"/>
      </contour>
    </TTGlyph>
    <TTGlyph name="afii57381" xMin="142" yMin="226" xMax="842" yMax="1588">
      <contour>
        <pt x="142" y="226" on="1"/>
        <pt x="142" y="1588" on="1"/>
        <pt x="842" y="1588" on="1"/>
        <pt x="842" y="226" on="1"/>
      </contour>
      <contour>
        <pt x="284" y="368" on="1"/>
        <pt x="700" y="368" on="1"/>
        <pt x="700" y="1447" on="1"/>
        <pt x="284" y="1447" on="1"/>
      </contour>
    </TTGlyph>
    <TTGlyph name="afii57388" xMin="142" yMin="226" xMax="842" yMax="1588">
      <contour>
        <pt x="142" y="226" on="1"/>
        <pt x="142" y="1588" on="1"/>
        <pt x="842" y="1588" on="1"/>
        <pt x="842" y="226" on="1"/>
      </contour>
      <contour>
        <pt x="284" y="368" on="1"/>
        <pt x="700" y="368" on="1"/>
        <pt x="700" y="1447" on="1"/>
        <pt x="284" y="1447" on="1"/>
      </contour>
    </TTGlyph>
    <TTGlyph name="afii57396" xMin="142" yMin="226" xMax="842" yMax="1588">
      <contour>
        <pt x="142" y="226" on="1"/>
        <pt x="142" y="1588" on="1"/>
        <pt x="842" y="1588" on="1"/>
        <pt x="842" y="226" on="1"/>
      </contour>
      <contour>
        <pt x="284" y="368" on="1"/>
        <pt x="700" y="368" on="1"/>
        <pt x="700" y="1447" on="1"/>
        <pt x="284" y="1447" on="1"/>
      </contour>
    </TTGlyph>
    <TTGlyph name="afii57397" xMin="142" yMin="226" xMax="842" yMax="1588">
      <contour>
        <pt x="142" y="226" on="1"/>
        <pt x="142" y="1588" on="1"/>
        <pt x="842" y="1588" on="1"/>
        <pt x="842" y="226" on="1"/>
      </contour>
      <contour>
        <pt x="284" y="368" on="1"/>
        <pt x="700" y="368" on="1"/>
        <pt x="700" y="1447" on="1"/>
        <pt x="284" y="1447" on="1"/>
      </contour>
    </TTGlyph>
    <TTGlyph name="afii57398" xMin="142" yMin="226" xMax="842" yMax="1588">
      <contour>
        <pt x="142" y="226" on="1"/>
        <pt x="142" y="1588" on="1"/>
        <pt x="842" y="1588" on="1"/>
        <pt x="842" y="226" on="1"/>
      </contour>
      <contour>
        <pt x="284" y="368" on="1"/>
        <pt x="700" y="368" on="1"/>
        <pt x="700" y="1447" on="1"/>
        <pt x="284" y="1447" on="1"/>
      </contour>
    </TTGlyph>
    <TTGlyph name="afii57403" xMin="142" yMin="226" xMax="842" yMax="1588">
      <contour>
        <pt x="142" y="226" on="1"/>
        <pt x="142" y="1588" on="1"/>
        <pt x="842" y="1588" on="1"/>
        <pt x="842" y="226" on="1"/>
      </contour>
      <contour>
        <pt x="284" y="368" on="1"/>
        <pt x="700" y="368" on="1"/>
        <pt x="700" y="1447" on="1"/>
        <pt x="284" y="1447" on="1"/>
      </contour>
    </TTGlyph>
    <TTGlyph name="afii57407" xMin="142" yMin="226" xMax="842" yMax="1588">
      <contour>
        <pt x="142" y="226" on="1"/>
        <pt x="142" y="1588" on="1"/>
        <pt x="842" y="1588" on="1"/>
        <pt x="842" y="226" on="1"/>
      </contour>
      <contour>
        <pt x="284" y="368" on="1"/>
        <pt x="700" y="368" on="1"/>
        <pt x="700" y="1447" on="1"/>
        <pt x="284" y="1447" on="1"/>
      </contour>
    </TTGlyph>
    <TTGlyph name="afii57440" xMin="142" yMin="226" xMax="842" yMax="1588">
      <contour>
        <pt x="142" y="226" on="1"/>
        <pt x="142" y="1588" on="1"/>
        <pt x="842" y="1588" on="1"/>
        <pt x="842" y="226" on="1"/>
      </contour>
      <contour>
        <pt x="284" y="368" on="1"/>
        <pt x="700" y="368" on="1"/>
        <pt x="700" y="1447" on="1"/>
        <pt x="284" y="1447" on="1"/>
      </contour>
    </TTGlyph>
    <TTGlyph name="afii57451" xMin="142" yMin="226" xMax="842" yMax="1588">
      <contour>
        <pt x="142" y="226" on="1"/>
        <pt x="142" y="1588" on="1"/>
        <pt x="842" y="1588" on="1"/>
        <pt x="842" y="226" on="1"/>
      </contour>
      <contour>
        <pt x="284" y="368" on="1"/>
        <pt x="700" y="368" on="1"/>
        <pt x="700" y="1447" on="1"/>
        <pt x="284" y="1447" on="1"/>
      </contour>
    </TTGlyph>
    <TTGlyph name="afii57452" xMin="142" yMin="226" xMax="842" yMax="1588">
      <contour>
        <pt x="142" y="226" on="1"/>
        <pt x="142" y="1588" on="1"/>
        <pt x="842" y="1588" on="1"/>
        <pt x="842" y="226" on="1"/>
      </contour>
      <contour>
        <pt x="284" y="368" on="1"/>
        <pt x="700" y="368" on="1"/>
        <pt x="700" y="1447" on="1"/>
        <pt x="284" y="1447" on="1"/>
      </contour>
    </TTGlyph>
    <TTGlyph name="afii57453" xMin="142" yMin="226" xMax="842" yMax="1588">
      <contour>
        <pt x="142" y="226" on="1"/>
        <pt x="142" y="1588" on="1"/>
        <pt x="842" y="1588" on="1"/>
        <pt x="842" y="226" on="1"/>
      </contour>
      <contour>
        <pt x="284" y="368" on="1"/>
        <pt x="700" y="368" on="1"/>
        <pt x="700" y="1447" on="1"/>
        <pt x="284" y="1447" on="1"/>
      </contour>
    </TTGlyph>
    <TTGlyph name="afii57454" xMin="142" yMin="226" xMax="842" yMax="1588">
      <contour>
        <pt x="142" y="226" on="1"/>
        <pt x="142" y="1588" on="1"/>
        <pt x="842" y="1588" on="1"/>
        <pt x="842" y="226" on="1"/>
      </contour>
      <contour>
        <pt x="284" y="368" on="1"/>
        <pt x="700" y="368" on="1"/>
        <pt x="700" y="1447" on="1"/>
        <pt x="284" y="1447" on="1"/>
      </contour>
    </TTGlyph>
    <TTGlyph name="afii57455" xMin="142" yMin="226" xMax="842" yMax="1588">
      <contour>
        <pt x="142" y="226" on="1"/>
        <pt x="142" y="1588" on="1"/>
        <pt x="842" y="1588" on="1"/>
        <pt x="842" y="226" on="1"/>
      </contour>
      <contour>
        <pt x="284" y="368" on="1"/>
        <pt x="700" y="368" on="1"/>
        <pt x="700" y="1447" on="1"/>
        <pt x="284" y="1447" on="1"/>
      </contour>
    </TTGlyph>
    <TTGlyph name="afii57456" xMin="142" yMin="226" xMax="842" yMax="1588">
      <contour>
        <pt x="142" y="226" on="1"/>
        <pt x="142" y="1588" on="1"/>
        <pt x="842" y="1588" on="1"/>
        <pt x="842" y="226" on="1"/>
      </contour>
      <contour>
        <pt x="284" y="368" on="1"/>
        <pt x="700" y="368" on="1"/>
        <pt x="700" y="1447" on="1"/>
        <pt x="284" y="1447" on="1"/>
      </contour>
    </TTGlyph>
    <TTGlyph name="afii57457" xMin="142" yMin="226" xMax="842" yMax="1588">
      <contour>
        <pt x="142" y="226" on="1"/>
        <pt x="142" y="1588" on="1"/>
        <pt x="842" y="1588" on="1"/>
        <pt x="842" y="226" on="1"/>
      </contour>
      <contour>
        <pt x="284" y="368" on="1"/>
        <pt x="700" y="368" on="1"/>
        <pt x="700" y="1447" on="1"/>
        <pt x="284" y="1447" on="1"/>
      </contour>
    </TTGlyph>
    <TTGlyph name="afii57458" xMin="142" yMin="226" xMax="842" yMax="1588">
      <contour>
        <pt x="142" y="226" on="1"/>
        <pt x="142" y="1588" on="1"/>
        <pt x="842" y="1588" on="1"/>
        <pt x="842" y="226" on="1"/>
      </contour>
      <contour>
        <pt x="284" y="368" on="1"/>
        <pt x="700" y="368" on="1"/>
        <pt x="700" y="1447" on="1"/>
        <pt x="284" y="1447" on="1"/>
      </contour>
    </TTGlyph>
    <TTGlyph name="afii57505" xMin="142" yMin="226" xMax="842" yMax="1588">
      <contour>
        <pt x="142" y="226" on="1"/>
        <pt x="142" y="1588" on="1"/>
        <pt x="842" y="1588" on="1"/>
        <pt x="842" y="226" on="1"/>
      </contour>
      <contour>
        <pt x="284" y="368" on="1"/>
        <pt x="700" y="368" on="1"/>
        <pt x="700" y="1447" on="1"/>
        <pt x="284" y="1447" on="1"/>
      </contour>
    </TTGlyph>
    <TTGlyph name="afii57506" xMin="142" yMin="226" xMax="842" yMax="1588">
      <contour>
        <pt x="142" y="226" on="1"/>
        <pt x="142" y="1588" on="1"/>
        <pt x="842" y="1588" on="1"/>
        <pt x="842" y="226" on="1"/>
      </contour>
      <contour>
        <pt x="284" y="368" on="1"/>
        <pt x="700" y="368" on="1"/>
        <pt x="700" y="1447" on="1"/>
        <pt x="284" y="1447" on="1"/>
      </contour>
    </TTGlyph>
    <TTGlyph name="afii57507" xMin="142" yMin="226" xMax="842" yMax="1588">
      <contour>
        <pt x="142" y="226" on="1"/>
        <pt x="142" y="1588" on="1"/>
        <pt x="842" y="1588" on="1"/>
        <pt x="842" y="226" on="1"/>
      </contour>
      <contour>
        <pt x="284" y="368" on="1"/>
        <pt x="700" y="368" on="1"/>
        <pt x="700" y="1447" on="1"/>
        <pt x="284" y="1447" on="1"/>
      </contour>
    </TTGlyph>
    <TTGlyph name="afii57508" xMin="142" yMin="226" xMax="842" yMax="1588">
      <contour>
        <pt x="142" y="226" on="1"/>
        <pt x="142" y="1588" on="1"/>
        <pt x="842" y="1588" on="1"/>
        <pt x="842" y="226" on="1"/>
      </contour>
      <contour>
        <pt x="284" y="368" on="1"/>
        <pt x="700" y="368" on="1"/>
        <pt x="700" y="1447" on="1"/>
        <pt x="284" y="1447" on="1"/>
      </contour>
    </TTGlyph>
    <TTGlyph name="afii57509" xMin="142" yMin="226" xMax="842" yMax="1588">
      <contour>
        <pt x="142" y="226" on="1"/>
        <pt x="142" y="1588" on="1"/>
        <pt x="842" y="1588" on="1"/>
        <pt x="842" y="226" on="1"/>
      </contour>
      <contour>
        <pt x="284" y="368" on="1"/>
        <pt x="700" y="368" on="1"/>
        <pt x="700" y="1447" on="1"/>
        <pt x="284" y="1447" on="1"/>
      </contour>
    </TTGlyph>
    <TTGlyph name="afii57511" xMin="142" yMin="226" xMax="842" yMax="1588">
      <contour>
        <pt x="142" y="226" on="1"/>
        <pt x="142" y="1588" on="1"/>
        <pt x="842" y="1588" on="1"/>
        <pt x="842" y="226" on="1"/>
      </contour>
      <contour>
        <pt x="284" y="368" on="1"/>
        <pt x="700" y="368" on="1"/>
        <pt x="700" y="1447" on="1"/>
        <pt x="284" y="1447" on="1"/>
      </contour>
    </TTGlyph>
    <TTGlyph name="afii57512" xMin="142" yMin="226" xMax="842" yMax="1588">
      <contour>
        <pt x="142" y="226" on="1"/>
        <pt x="142" y="1588" on="1"/>
        <pt x="842" y="1588" on="1"/>
        <pt x="842" y="226" on="1"/>
      </contour>
      <contour>
        <pt x="284" y="368" on="1"/>
        <pt x="700" y="368" on="1"/>
        <pt x="700" y="1447" on="1"/>
        <pt x="284" y="1447" on="1"/>
      </contour>
    </TTGlyph>
    <TTGlyph name="afii57513" xMin="142" yMin="226" xMax="842" yMax="1588">
      <contour>
        <pt x="142" y="226" on="1"/>
        <pt x="142" y="1588" on="1"/>
        <pt x="842" y="1588" on="1"/>
        <pt x="842" y="226" on="1"/>
      </contour>
      <contour>
        <pt x="284" y="368" on="1"/>
        <pt x="700" y="368" on="1"/>
        <pt x="700" y="1447" on="1"/>
        <pt x="284" y="1447" on="1"/>
      </contour>
    </TTGlyph>
    <TTGlyph name="afii57514" xMin="142" yMin="226" xMax="842" yMax="1588">
      <contour>
        <pt x="142" y="226" on="1"/>
        <pt x="142" y="1588" on="1"/>
        <pt x="842" y="1588" on="1"/>
        <pt x="842" y="226" on="1"/>
      </contour>
      <contour>
        <pt x="284" y="368" on="1"/>
        <pt x="700" y="368" on="1"/>
        <pt x="700" y="1447" on="1"/>
        <pt x="284" y="1447" on="1"/>
      </contour>
    </TTGlyph>
    <TTGlyph name="afii57519" xMin="142" yMin="226" xMax="842" yMax="1588">
      <contour>
        <pt x="142" y="226" on="1"/>
        <pt x="142" y="1588" on="1"/>
        <pt x="842" y="1588" on="1"/>
        <pt x="842" y="226" on="1"/>
      </contour>
      <contour>
        <pt x="284" y="368" on="1"/>
        <pt x="700" y="368" on="1"/>
        <pt x="700" y="1447" on="1"/>
        <pt x="284" y="1447" on="1"/>
      </contour>
    </TTGlyph>
    <TTGlyph name="afii57534" xMin="142" yMin="226" xMax="842" yMax="1588">
      <contour>
        <pt x="142" y="226" on="1"/>
        <pt x="142" y="1588" on="1"/>
        <pt x="842" y="1588" on="1"/>
        <pt x="842" y="226" on="1"/>
      </contour>
      <contour>
        <pt x="284" y="368" on="1"/>
        <pt x="700" y="368" on="1"/>
        <pt x="700" y="1447" on="1"/>
        <pt x="284" y="1447" on="1"/>
      </contour>
    </TTGlyph>
    <TTGlyph name="afii63167" xMin="142" yMin="226" xMax="842" yMax="1588">
      <contour>
        <pt x="142" y="226" on="1"/>
        <pt x="142" y="1588" on="1"/>
        <pt x="842" y="1588" on="1"/>
        <pt x="842" y="226" on="1"/>
      </contour>
      <contour>
        <pt x="284" y="368" on="1"/>
        <pt x="700" y="368" on="1"/>
        <pt x="700" y="1447" on="1"/>
        <pt x="284" y="1447" on="1"/>
      </contour>
    </TTGlyph>
    <TTGlyph name="alefmaksurainitial" xMin="142" yMin="226" xMax="842" yMax="1588">
      <contour>
        <pt x="142" y="226" on="1"/>
        <pt x="142" y="1588" on="1"/>
        <pt x="842" y="1588" on="1"/>
        <pt x="842" y="226" on="1"/>
      </contour>
      <contour>
        <pt x="284" y="368" on="1"/>
        <pt x="700" y="368" on="1"/>
        <pt x="700" y="1447" on="1"/>
        <pt x="284" y="1447" on="1"/>
      </contour>
    </TTGlyph>
    <TTGlyph name="alefwaslafinalarabic" xMin="142" yMin="226" xMax="842" yMax="1588">
      <contour>
        <pt x="142" y="226" on="1"/>
        <pt x="142" y="1588" on="1"/>
        <pt x="842" y="1588" on="1"/>
        <pt x="842" y="226" on="1"/>
      </contour>
      <contour>
        <pt x="284" y="368" on="1"/>
        <pt x="700" y="368" on="1"/>
        <pt x="700" y="1447" on="1"/>
        <pt x="284" y="1447" on="1"/>
      </contour>
    </TTGlyph>
    <TTGlyph name="ampersand" xMin="142" yMin="226" xMax="842" yMax="1588">
      <contour>
        <pt x="142" y="226" on="1"/>
        <pt x="142" y="1588" on="1"/>
        <pt x="842" y="1588" on="1"/>
        <pt x="842" y="226" on="1"/>
      </contour>
      <contour>
        <pt x="284" y="368" on="1"/>
        <pt x="700" y="368" on="1"/>
        <pt x="700" y="1447" on="1"/>
        <pt x="284" y="1447" on="1"/>
      </contour>
    </TTGlyph>
    <TTGlyph name="asterisk" xMin="142" yMin="226" xMax="842" yMax="1588">
      <contour>
        <pt x="142" y="226" on="1"/>
        <pt x="142" y="1588" on="1"/>
        <pt x="842" y="1588" on="1"/>
        <pt x="842" y="226" on="1"/>
      </contour>
      <contour>
        <pt x="284" y="368" on="1"/>
        <pt x="700" y="368" on="1"/>
        <pt x="700" y="1447" on="1"/>
        <pt x="284" y="1447" on="1"/>
      </contour>
    </TTGlyph>
    <TTGlyph name="behmeemisolatedarabic" xMin="142" yMin="226" xMax="842" yMax="1588">
      <contour>
        <pt x="142" y="226" on="1"/>
        <pt x="142" y="1588" on="1"/>
        <pt x="842" y="1588" on="1"/>
        <pt x="842" y="226" on="1"/>
      </contour>
      <contour>
        <pt x="284" y="368" on="1"/>
        <pt x="700" y="368" on="1"/>
        <pt x="700" y="1447" on="1"/>
        <pt x="284" y="1447" on="1"/>
      </contour>
    </TTGlyph>
    <TTGlyph name="behnoonfinalarabic" xMin="142" yMin="226" xMax="842" yMax="1588">
      <contour>
        <pt x="142" y="226" on="1"/>
        <pt x="142" y="1588" on="1"/>
        <pt x="842" y="1588" on="1"/>
        <pt x="842" y="226" on="1"/>
      </contour>
      <contour>
        <pt x="284" y="368" on="1"/>
        <pt x="700" y="368" on="1"/>
        <pt x="700" y="1447" on="1"/>
        <pt x="284" y="1447" on="1"/>
      </contour>
    </TTGlyph>
    <TTGlyph name="colon" xMin="142" yMin="226" xMax="842" yMax="1588">
      <contour>
        <pt x="142" y="226" on="1"/>
        <pt x="142" y="1588" on="1"/>
        <pt x="842" y="1588" on="1"/>
        <pt x="842" y="226" on="1"/>
      </contour>
      <contour>
        <pt x="284" y="368" on="1"/>
        <pt x="700" y="368" on="1"/>
        <pt x="700" y="1447" on="1"/>
        <pt x="284" y="1447" on="1"/>
      </contour>
    </TTGlyph>
    <TTGlyph name="dagger" xMin="142" yMin="226" xMax="842" yMax="1588">
      <contour>
        <pt x="142" y="226" on="1"/>
        <pt x="142" y="1588" on="1"/>
        <pt x="842" y="1588" on="1"/>
        <pt x="842" y="226" on="1"/>
      </contour>
      <contour>
        <pt x="284" y="368" on="1"/>
        <pt x="700" y="368" on="1"/>
        <pt x="700" y="1447" on="1"/>
        <pt x="284" y="1447" on="1"/>
      </contour>
    </TTGlyph>
    <TTGlyph name="dalringfinal" xMin="142" yMin="226" xMax="842" yMax="1588">
      <contour>
        <pt x="142" y="226" on="1"/>
        <pt x="142" y="1588" on="1"/>
        <pt x="842" y="1588" on="1"/>
        <pt x="842" y="226" on="1"/>
      </contour>
      <contour>
        <pt x="284" y="368" on="1"/>
        <pt x="700" y="368" on="1"/>
        <pt x="700" y="1447" on="1"/>
        <pt x="284" y="1447" on="1"/>
      </contour>
    </TTGlyph>
    <TTGlyph name="ddalfinalarabic" xMin="142" yMin="226" xMax="842" yMax="1588">
      <contour>
        <pt x="142" y="226" on="1"/>
        <pt x="142" y="1588" on="1"/>
        <pt x="842" y="1588" on="1"/>
        <pt x="842" y="226" on="1"/>
      </contour>
      <contour>
        <pt x="284" y="368" on="1"/>
        <pt x="700" y="368" on="1"/>
        <pt x="700" y="1447" on="1"/>
        <pt x="284" y="1447" on="1"/>
      </contour>
    </TTGlyph>
    <TTGlyph name="divide" xMin="142" yMin="226" xMax="842" yMax="1588">
      <contour>
        <pt x="142" y="226" on="1"/>
        <pt x="142" y="1588" on="1"/>
        <pt x="842" y="1588" on="1"/>
        <pt x="842" y="226" on="1"/>
      </contour>
      <contour>
        <pt x="284" y="368" on="1"/>
        <pt x="700" y="368" on="1"/>
        <pt x="700" y="1447" on="1"/>
        <pt x="284" y="1447" on="1"/>
      </contour>
    </TTGlyph>
    <TTGlyph name="dollar" xMin="142" yMin="226" xMax="842" yMax="1588">
      <contour>
        <pt x="142" y="226" on="1"/>
        <pt x="142" y="1588" on="1"/>
        <pt x="842" y="1588" on="1"/>
        <pt x="842" y="226" on="1"/>
      </contour>
      <contour>
        <pt x="284" y="368" on="1"/>
        <pt x="700" y="368" on="1"/>
        <pt x="700" y="1447" on="1"/>
        <pt x="284" y="1447" on="1"/>
      </contour>
    </TTGlyph>
    <TTGlyph name="dotlessyehfinalarabic" xMin="142" yMin="226" xMax="842" yMax="1588">
      <contour>
        <pt x="142" y="226" on="1"/>
        <pt x="142" y="1588" on="1"/>
        <pt x="842" y="1588" on="1"/>
        <pt x="842" y="226" on="1"/>
      </contour>
      <contour>
        <pt x="284" y="368" on="1"/>
        <pt x="700" y="368" on="1"/>
        <pt x="700" y="1447" on="1"/>
        <pt x="284" y="1447" on="1"/>
      </contour>
    </TTGlyph>
    <TTGlyph name="dotlessyehinitialarabic" xMin="142" yMin="226" xMax="842" yMax="1588">
      <contour>
        <pt x="142" y="226" on="1"/>
        <pt x="142" y="1588" on="1"/>
        <pt x="842" y="1588" on="1"/>
        <pt x="842" y="226" on="1"/>
      </contour>
      <contour>
        <pt x="284" y="368" on="1"/>
        <pt x="700" y="368" on="1"/>
        <pt x="700" y="1447" on="1"/>
        <pt x="284" y="1447" on="1"/>
      </contour>
    </TTGlyph>
    <TTGlyph name="dotlessyehmedialarabic" xMin="142" yMin="226" xMax="842" yMax="1588">
      <contour>
        <pt x="142" y="226" on="1"/>
        <pt x="142" y="1588" on="1"/>
        <pt x="842" y="1588" on="1"/>
        <pt x="842" y="226" on="1"/>
      </contour>
      <contour>
        <pt x="284" y="368" on="1"/>
        <pt x="700" y="368" on="1"/>
        <pt x="700" y="1447" on="1"/>
        <pt x="284" y="1447" on="1"/>
      </contour>
    </TTGlyph>
    <TTGlyph name="elefmaksuramedial" xMin="142" yMin="226" xMax="842" yMax="1588">
      <contour>
        <pt x="142" y="226" on="1"/>
        <pt x="142" y="1588" on="1"/>
        <pt x="842" y="1588" on="1"/>
        <pt x="842" y="226" on="1"/>
      </contour>
      <contour>
        <pt x="284" y="368" on="1"/>
        <pt x="700" y="368" on="1"/>
        <pt x="700" y="1447" on="1"/>
        <pt x="284" y="1447" on="1"/>
      </contour>
    </TTGlyph>
    <TTGlyph name="ellipsis" xMin="142" yMin="226" xMax="842" yMax="1588">
      <contour>
        <pt x="142" y="226" on="1"/>
        <pt x="142" y="1588" on="1"/>
        <pt x="842" y="1588" on="1"/>
        <pt x="842" y="226" on="1"/>
      </contour>
      <contour>
        <pt x="284" y="368" on="1"/>
        <pt x="700" y="368" on="1"/>
        <pt x="700" y="1447" on="1"/>
        <pt x="284" y="1447" on="1"/>
      </contour>
    </TTGlyph>
    <TTGlyph name="emdash" xMin="127" yMin="-61" xMax="2175" yMax="1577">
      <contour>
        <pt x="2175" y="1464" on="1"/>
        <pt x="2175" y="1380" on="0"/>
        <pt x="2047" y="1295" on="1"/>
        <pt x="1930" y="1218" on="0"/>
        <pt x="1850" y="1218" on="1"/>
        <pt x="1837" y="1218" on="0"/>
        <pt x="1836" y="1223" on="1"/>
        <pt x="1836" y="1223" on="1"/>
        <pt x="1836" y="1229" on="0"/>
        <pt x="1823" y="1229" on="1"/>
        <pt x="1797" y="1229" on="0"/>
        <pt x="1716" y="1158" on="1"/>
        <pt x="1675" y="1158" on="1"/>
        <pt x="1675" y="1202" on="1"/>
        <pt x="1674" y="1220" on="0"/>
        <pt x="1737" y="1316" on="0"/>
        <pt x="1767" y="1336" on="1"/>
        <pt x="1787" y="1342" on="0"/>
        <pt x="1826" y="1353" on="1"/>
        <pt x="1876" y="1369" on="0"/>
        <pt x="1914" y="1445" on="1"/>
        <pt x="1955" y="1526" on="0"/>
        <pt x="2013" y="1556" on="0"/>
        <pt x="2073" y="1556" on="1"/>
        <pt x="2108" y="1556" on="0"/>
        <pt x="2143" y="1523" on="1"/>
        <pt x="2175" y="1491" on="0"/>
      </contour>
      <contour>
        <pt x="1446" y="1536" on="1"/>
        <pt x="1446" y="1495" on="0"/>
        <pt x="962" y="1300" on="1"/>
        <pt x="929" y="1300" on="0"/>
        <pt x="876" y="1347" on="1"/>
        <pt x="932" y="1382" on="0"/>
        <pt x="1143" y="1478" on="1"/>
        <pt x="1361" y="1577" on="0"/>
        <pt x="1389" y="1577" on="1"/>
        <pt x="1446" y="1577" on="0"/>
      </contour>
      <contour>
        <pt x="1993" y="235" on="1"/>
        <pt x="1993" y="222" on="0"/>
        <pt x="1973" y="198" on="1"/>
        <pt x="1968" y="79" on="0"/>
        <pt x="1909" y="21" on="1"/>
        <pt x="1869" y="21" on="1"/>
        <pt x="1870" y="91" on="0"/>
        <pt x="1863" y="229" on="1"/>
        <pt x="1843" y="367" on="0"/>
        <pt x="1778" y="664" on="1"/>
        <pt x="1719" y="936" on="0"/>
        <pt x="1719" y="942" on="1"/>
        <pt x="1719" y="973" on="0"/>
        <pt x="1777" y="1093" on="0"/>
        <pt x="1804" y="1116" on="1"/>
        <pt x="1856" y="1094" on="0"/>
        <pt x="1863" y="1050" on="1"/>
        <pt x="1993" y="215" on="0"/>
      </contour>
      <contour>
        <pt x="1378" y="1223" on="1"/>
        <pt x="1378" y="1087" on="0"/>
        <pt x="1170" y="1021" on="1"/>
        <pt x="1152" y="1007" on="0"/>
        <pt x="1123" y="985" on="1"/>
        <pt x="1115" y="985" on="0"/>
        <pt x="1054" y="972" on="0"/>
        <pt x="1036" y="972" on="1"/>
        <pt x="956" y="972" on="0"/>
        <pt x="956" y="1044" on="1"/>
        <pt x="956" y="1091" on="0"/>
        <pt x="1005" y="1156" on="1"/>
        <pt x="1045" y="1156" on="1"/>
        <pt x="1073" y="1106" on="0"/>
        <pt x="1093" y="1106" on="1"/>
        <pt x="1117" y="1106" on="0"/>
        <pt x="1134" y="1133" on="1"/>
        <pt x="1137" y="1179" on="0"/>
        <pt x="1175" y="1248" on="1"/>
        <pt x="1227" y="1248" on="1"/>
        <pt x="1231" y="1234" on="0"/>
        <pt x="1258" y="1198" on="1"/>
        <pt x="1273" y="1234" on="0"/>
        <pt x="1324" y="1310" on="1"/>
        <pt x="1378" y="1300" on="0"/>
      </contour>
      <contour>
        <pt x="740" y="1013" on="1"/>
        <pt x="740" y="963" on="0"/>
        <pt x="701" y="963" on="1"/>
        <pt x="686" y="963" on="0"/>
        <pt x="601" y="993" on="0"/>
        <pt x="587" y="993" on="1"/>
        <pt x="516" y="934" on="0"/>
        <pt x="449" y="885" on="1"/>
        <pt x="290" y="767" on="0"/>
        <pt x="178" y="718" on="1"/>
        <pt x="127" y="718" on="1"/>
        <pt x="127" y="754" on="1"/>
        <pt x="252" y="846" on="0"/>
        <pt x="478" y="1031" on="1"/>
        <pt x="477" y="1043" on="0"/>
        <pt x="401" y="1086" on="1"/>
        <pt x="396" y="1098" on="0"/>
        <pt x="396" y="1112" on="1"/>
        <pt x="396" y="1185" on="0"/>
        <pt x="452" y="1265" on="1"/>
        <pt x="511" y="1352" on="0"/>
        <pt x="581" y="1352" on="1"/>
        <pt x="658" y="1352" on="0"/>
        <pt x="658" y="1223" on="1"/>
        <pt x="658" y="1198" on="0"/>
        <pt x="654" y="1165" on="1"/>
        <pt x="652" y="1135" on="0"/>
        <pt x="652" y="1133" on="1"/>
        <pt x="680" y="1102" on="0"/>
        <pt x="708" y="1072" on="1"/>
        <pt x="740" y="1035" on="0"/>
      </contour>
      <contour>
        <pt x="1582" y="210" on="1"/>
        <pt x="1582" y="196" on="0"/>
        <pt x="1551" y="111" on="1"/>
        <pt x="1520" y="23" on="0"/>
        <pt x="1508" y="14" on="1"/>
        <pt x="1451" y="-31" on="0"/>
        <pt x="1394" y="-31" on="1"/>
        <pt x="1353" y="-31" on="0"/>
        <pt x="1282" y="-7" on="1"/>
        <pt x="1192" y="21" on="0"/>
        <pt x="1165" y="61" on="1"/>
        <pt x="1142" y="41" on="0"/>
        <pt x="1080" y="-6" on="1"/>
        <pt x="999" y="-61" on="0"/>
        <pt x="900" y="-61" on="1"/>
        <pt x="804" y="-61" on="0"/>
        <pt x="762" y="2" on="1"/>
        <pt x="741" y="31" on="0"/>
        <pt x="698" y="164" on="1"/>
        <pt x="592" y="82" on="0"/>
        <pt x="478" y="82" on="1"/>
        <pt x="428" y="82" on="0"/>
        <pt x="367" y="103" on="1"/>
        <pt x="296" y="128" on="0"/>
        <pt x="296" y="159" on="1"/>
        <pt x="296" y="230" on="0"/>
        <pt x="487" y="362" on="1"/>
        <pt x="602" y="436" on="0"/>
        <pt x="715" y="510" on="1"/>
        <pt x="729" y="534" on="0"/>
        <pt x="766" y="593" on="1"/>
        <pt x="806" y="593" on="1"/>
        <pt x="820" y="529" on="0"/>
        <pt x="839" y="405" on="1"/>
        <pt x="831" y="328" on="0"/>
        <pt x="845" y="170" on="1"/>
        <pt x="863" y="102" on="0"/>
        <pt x="951" y="102" on="1"/>
        <pt x="1000" y="102" on="0"/>
        <pt x="1059" y="134" on="1"/>
        <pt x="1127" y="170" on="0"/>
        <pt x="1127" y="215" on="1"/>
        <pt x="1127" y="228" on="0"/>
        <pt x="1059" y="581" on="0"/>
        <pt x="1059" y="594" on="1"/>
        <pt x="1059" y="655" on="0"/>
        <pt x="1064" y="673" on="1"/>
        <pt x="1073" y="698" on="0"/>
        <pt x="1119" y="757" on="1"/>
        <pt x="1130" y="757" on="0"/>
        <pt x="1148" y="747" on="1"/>
        <pt x="1168" y="735" on="0"/>
        <pt x="1169" y="723" on="1"/>
        <pt x="1171" y="698" on="0"/>
        <pt x="1188" y="630" on="1"/>
        <pt x="1202" y="569" on="0"/>
        <pt x="1202" y="537" on="1"/>
        <pt x="1202" y="342" on="0"/>
        <pt x="1278" y="192" on="1"/>
        <pt x="1302" y="143" on="0"/>
        <pt x="1389" y="143" on="1"/>
        <pt x="1446" y="143" on="0"/>
        <pt x="1446" y="200" on="1"/>
        <pt x="1446" y="211" on="0"/>
        <pt x="1423" y="255" on="1"/>
        <pt x="1398" y="305" on="0"/>
        <pt x="1392" y="321" on="1"/>
        <pt x="1321" y="552" on="0"/>
        <pt x="1321" y="640" on="1"/>
        <pt x="1321" y="703" on="0"/>
        <pt x="1393" y="768" on="1"/>
        <pt x="1415" y="768" on="0"/>
        <pt x="1430" y="744" on="1"/>
        <pt x="1447" y="667" on="0"/>
        <pt x="1518" y="433" on="1"/>
        <pt x="1582" y="221" on="0"/>
      </contour>
      <contour>
        <pt x="2049" y="1420" on="1"/>
        <pt x="1996" y="1433" on="1"/>
        <pt x="1969" y="1386" on="0"/>
        <pt x="1979" y="1372" on="1"/>
        <pt x="2034" y="1392" on="0"/>
      </contour>
      <contour>
        <pt x="547" y="1176" on="1"/>
        <pt x="547" y="1204" on="0"/>
        <pt x="534" y="1212" on="1"/>
        <pt x="524" y="1216" on="0"/>
        <pt x="504" y="1203" on="1"/>
        <pt x="518" y="1176" on="0"/>
      </contour>
      <contour>
        <pt x="717" y="312" on="1"/>
        <pt x="717" y="344" on="0"/>
        <pt x="691" y="369" on="1"/>
        <pt x="647" y="361" on="0"/>
        <pt x="517" y="279" on="0"/>
        <pt x="503" y="248" on="1"/>
        <pt x="497" y="248" on="0"/>
        <pt x="572" y="236" on="0"/>
        <pt x="634" y="236" on="1"/>
        <pt x="717" y="287" on="0"/>
      </contour>
    </TTGlyph>
    <TTGlyph name="endash" xMin="127" yMin="-61" xMax="1151" yMax="1577">
      <contour>
        <pt x="1151" y="1464" on="1"/>
        <pt x="1151" y="1380" on="0"/>
        <pt x="1087" y="1295" on="1"/>
        <pt x="1029" y="1218" on="0"/>
        <pt x="989" y="1218" on="1"/>
        <pt x="982" y="1218" on="0"/>
        <pt x="981" y="1223" on="1"/>
        <pt x="981" y="1223" on="1"/>
        <pt x="981" y="1229" on="0"/>
        <pt x="975" y="1229" on="1"/>
        <pt x="962" y="1229" on="0"/>
        <pt x="921" y="1158" on="1"/>
        <pt x="901" y="1158" on="1"/>
        <pt x="901" y="1202" on="1"/>
        <pt x="900" y="1220" on="0"/>
        <pt x="932" y="1316" on="0"/>
        <pt x="947" y="1336" on="1"/>
        <pt x="957" y="1342" on="0"/>
        <pt x="976" y="1353" on="1"/>
        <pt x="1001" y="1369" on="0"/>
        <pt x="1020" y="1445" on="1"/>
        <pt x="1041" y="1526" on="0"/>
        <pt x="1070" y="1556" on="0"/>
        <pt x="1100" y="1556" on="1"/>
        <pt x="1118" y="1556" on="0"/>
        <pt x="1135" y="1523" on="1"/>
        <pt x="1151" y="1491" on="0"/>
      </contour>
      <contour>
        <pt x="786" y="1536" on="1"/>
        <pt x="786" y="1495" on="0"/>
        <pt x="544" y="1300" on="1"/>
        <pt x="528" y="1300" on="0"/>
        <pt x="502" y="1347" on="1"/>
        <pt x="529" y="1382" on="0"/>
        <pt x="635" y="1478" on="1"/>
        <pt x="744" y="1577" on="0"/>
        <pt x="758" y="1577" on="1"/>
        <pt x="786" y="1577" on="0"/>
      </contour>
      <contour>
        <pt x="1060" y="235" on="1"/>
        <pt x="1060" y="222" on="0"/>
        <pt x="1050" y="198" on="1"/>
        <pt x="1048" y="79" on="0"/>
        <pt x="1018" y="21" on="1"/>
        <pt x="998" y="21" on="1"/>
        <pt x="999" y="91" on="0"/>
        <pt x="995" y="229" on="1"/>
        <pt x="985" y="367" on="0"/>
        <pt x="953" y="664" on="1"/>
        <pt x="923" y="936" on="0"/>
        <pt x="923" y="942" on="1"/>
        <pt x="923" y="973" on="0"/>
        <pt x="952" y="1093" on="0"/>
        <pt x="965" y="1116" on="1"/>
        <pt x="991" y="1094" on="0"/>
        <pt x="995" y="1050" on="1"/>
        <pt x="1060" y="215" on="0"/>
      </contour>
      <contour>
        <pt x="752" y="1223" on="1"/>
        <pt x="752" y="1087" on="0"/>
        <pt x="648" y="1021" on="1"/>
        <pt x="640" y="1007" on="0"/>
        <pt x="625" y="985" on="1"/>
        <pt x="621" y="985" on="0"/>
        <pt x="591" y="972" on="0"/>
        <pt x="582" y="972" on="1"/>
        <pt x="542" y="972" on="0"/>
        <pt x="542" y="1044" on="1"/>
        <pt x="542" y="1091" on="0"/>
        <pt x="566" y="1156" on="1"/>
        <pt x="586" y="1156" on="1"/>
        <pt x="600" y="1106" on="0"/>
        <pt x="610" y="1106" on="1"/>
        <pt x="622" y="1106" on="0"/>
        <pt x="631" y="1133" on="1"/>
        <pt x="632" y="1179" on="0"/>
        <pt x="651" y="1248" on="1"/>
        <pt x="677" y="1248" on="1"/>
        <pt x="679" y="1234" on="0"/>
        <pt x="692" y="1198" on="1"/>
        <pt x="700" y="1234" on="0"/>
        <pt x="726" y="1310" on="1"/>
        <pt x="752" y="1300" on="0"/>
      </contour>
      <contour>
        <pt x="433" y="1013" on="1"/>
        <pt x="433" y="963" on="0"/>
        <pt x="414" y="963" on="1"/>
        <pt x="407" y="963" on="0"/>
        <pt x="364" y="993" on="0"/>
        <pt x="357" y="993" on="1"/>
        <pt x="322" y="934" on="0"/>
        <pt x="288" y="885" on="1"/>
        <pt x="209" y="767" on="0"/>
        <pt x="153" y="718" on="1"/>
        <pt x="127" y="718" on="1"/>
        <pt x="127" y="754" on="1"/>
        <pt x="189" y="846" on="0"/>
        <pt x="303" y="1031" on="1"/>
        <pt x="302" y="1043" on="0"/>
        <pt x="264" y="1086" on="1"/>
        <pt x="262" y="1098" on="0"/>
        <pt x="262" y="1112" on="1"/>
        <pt x="262" y="1185" on="0"/>
        <pt x="289" y="1265" on="1"/>
        <pt x="319" y="1352" on="0"/>
        <pt x="354" y="1352" on="1"/>
        <pt x="393" y="1352" on="0"/>
        <pt x="393" y="1223" on="1"/>
        <pt x="393" y="1198" on="0"/>
        <pt x="391" y="1165" on="1"/>
        <pt x="389" y="1135" on="0"/>
        <pt x="389" y="1133" on="1"/>
        <pt x="403" y="1102" on="0"/>
        <pt x="418" y="1072" on="1"/>
        <pt x="433" y="1035" on="0"/>
      </contour>
      <contour>
        <pt x="855" y="210" on="1"/>
        <pt x="855" y="196" on="0"/>
        <pt x="839" y="111" on="1"/>
        <pt x="824" y="23" on="0"/>
        <pt x="817" y="14" on="1"/>
        <pt x="789" y="-31" on="0"/>
        <pt x="761" y="-31" on="1"/>
        <pt x="740" y="-31" on="0"/>
        <pt x="705" y="-7" on="1"/>
        <pt x="660" y="21" on="0"/>
        <pt x="646" y="61" on="1"/>
        <pt x="635" y="41" on="0"/>
        <pt x="603" y="-6" on="1"/>
        <pt x="563" y="-61" on="0"/>
        <pt x="513" y="-61" on="1"/>
        <pt x="466" y="-61" on="0"/>
        <pt x="444" y="2" on="1"/>
        <pt x="434" y="31" on="0"/>
        <pt x="413" y="164" on="1"/>
        <pt x="359" y="82" on="0"/>
        <pt x="303" y="82" on="1"/>
        <pt x="278" y="82" on="0"/>
        <pt x="247" y="103" on="1"/>
        <pt x="211" y="128" on="0"/>
        <pt x="211" y="159" on="1"/>
        <pt x="211" y="230" on="0"/>
        <pt x="307" y="362" on="1"/>
        <pt x="364" y="436" on="0"/>
        <pt x="421" y="510" on="1"/>
        <pt x="428" y="534" on="0"/>
        <pt x="447" y="593" on="1"/>
        <pt x="467" y="593" on="1"/>
        <pt x="473" y="529" on="0"/>
        <pt x="483" y="405" on="1"/>
        <pt x="479" y="328" on="0"/>
        <pt x="486" y="170" on="1"/>
        <pt x="495" y="102" on="0"/>
        <pt x="539" y="102" on="1"/>
        <pt x="563" y="102" on="0"/>
        <pt x="593" y="134" on="1"/>
        <pt x="627" y="170" on="0"/>
        <pt x="627" y="215" on="1"/>
        <pt x="627" y="228" on="0"/>
        <pt x="593" y="581" on="0"/>
        <pt x="593" y="594" on="1"/>
        <pt x="593" y="655" on="0"/>
        <pt x="596" y="673" on="1"/>
        <pt x="600" y="698" on="0"/>
        <pt x="623" y="757" on="1"/>
        <pt x="628" y="757" on="0"/>
        <pt x="637" y="747" on="1"/>
        <pt x="647" y="735" on="0"/>
        <pt x="648" y="723" on="1"/>
        <pt x="649" y="698" on="0"/>
        <pt x="657" y="630" on="1"/>
        <pt x="665" y="569" on="0"/>
        <pt x="665" y="537" on="1"/>
        <pt x="665" y="342" on="0"/>
        <pt x="702" y="192" on="1"/>
        <pt x="715" y="143" on="0"/>
        <pt x="758" y="143" on="1"/>
        <pt x="786" y="143" on="0"/>
        <pt x="786" y="200" on="1"/>
        <pt x="786" y="211" on="0"/>
        <pt x="775" y="255" on="1"/>
        <pt x="762" y="305" on="0"/>
        <pt x="760" y="321" on="1"/>
        <pt x="724" y="552" on="0"/>
        <pt x="724" y="640" on="1"/>
        <pt x="724" y="703" on="0"/>
        <pt x="760" y="768" on="1"/>
        <pt x="771" y="768" on="0"/>
        <pt x="779" y="744" on="1"/>
        <pt x="787" y="667" on="0"/>
        <pt x="822" y="433" on="1"/>
        <pt x="855" y="221" on="0"/>
      </contour>
      <contour>
        <pt x="1088" y="1420" on="1"/>
        <pt x="1061" y="1433" on="1"/>
        <pt x="1048" y="1386" on="0"/>
        <pt x="1053" y="1372" on="1"/>
        <pt x="1080" y="1392" on="0"/>
      </contour>
      <contour>
        <pt x="337" y="1176" on="1"/>
        <pt x="337" y="1204" on="0"/>
        <pt x="330" y="1212" on="1"/>
        <pt x="325" y="1216" on="0"/>
        <pt x="315" y="1203" on="1"/>
        <pt x="323" y="1176" on="0"/>
      </contour>
      <contour>
        <pt x="422" y="312" on="1"/>
        <pt x="422" y="344" on="0"/>
        <pt x="409" y="369" on="1"/>
        <pt x="387" y="361" on="0"/>
        <pt x="322" y="279" on="0"/>
        <pt x="315" y="248" on="1"/>
        <pt x="312" y="248" on="0"/>
        <pt x="349" y="236" on="0"/>
        <pt x="380" y="236" on="1"/>
        <pt x="422" y="287" on="0"/>
      </contour>
    </TTGlyph>
    <TTGlyph name="equal" xMin="142" yMin="226" xMax="842" yMax="1588">
      <contour>
        <pt x="142" y="226" on="1"/>
        <pt x="142" y="1588" on="1"/>
        <pt x="842" y="1588" on="1"/>
        <pt x="842" y="226" on="1"/>
      </contour>
      <contour>
        <pt x="284" y="368" on="1"/>
        <pt x="700" y="368" on="1"/>
        <pt x="700" y="1447" on="1"/>
        <pt x="284" y="1447" on="1"/>
      </contour>
    </TTGlyph>
    <TTGlyph name="exclam" xMin="142" yMin="226" xMax="842" yMax="1588">
      <contour>
        <pt x="142" y="226" on="1"/>
        <pt x="142" y="1588" on="1"/>
        <pt x="842" y="1588" on="1"/>
        <pt x="842" y="226" on="1"/>
      </contour>
      <contour>
        <pt x="284" y="368" on="1"/>
        <pt x="700" y="368" on="1"/>
        <pt x="700" y="1447" on="1"/>
        <pt x="284" y="1447" on="1"/>
      </contour>
    </TTGlyph>
    <TTGlyph name="figuredash" xMin="127" yMin="-61" xMax="1969" yMax="1577">
      <contour>
        <pt x="1969" y="1464" on="1"/>
        <pt x="1969" y="1380" on="0"/>
        <pt x="1854" y="1295" on="1"/>
        <pt x="1749" y="1218" on="0"/>
        <pt x="1677" y="1218" on="1"/>
        <pt x="1665" y="1218" on="0"/>
        <pt x="1664" y="1223" on="1"/>
        <pt x="1664" y="1223" on="1"/>
        <pt x="1664" y="1229" on="0"/>
        <pt x="1652" y="1229" on="1"/>
        <pt x="1629" y="1229" on="0"/>
        <pt x="1556" y="1158" on="1"/>
        <pt x="1519" y="1158" on="1"/>
        <pt x="1519" y="1202" on="1"/>
        <pt x="1518" y="1220" on="0"/>
        <pt x="1575" y="1316" on="0"/>
        <pt x="1602" y="1336" on="1"/>
        <pt x="1620" y="1342" on="0"/>
        <pt x="1655" y="1353" on="1"/>
        <pt x="1700" y="1369" on="0"/>
        <pt x="1734" y="1445" on="1"/>
        <pt x="1771" y="1526" on="0"/>
        <pt x="1823" y="1556" on="0"/>
        <pt x="1877" y="1556" on="1"/>
        <pt x="1909" y="1556" on="0"/>
        <pt x="1940" y="1523" on="1"/>
        <pt x="1969" y="1491" on="0"/>
      </contour>
      <contour>
        <pt x="1313" y="1536" on="1"/>
        <pt x="1313" y="1495" on="0"/>
        <pt x="878" y="1300" on="1"/>
        <pt x="848" y="1300" on="0"/>
        <pt x="801" y="1347" on="1"/>
        <pt x="851" y="1382" on="0"/>
        <pt x="1041" y="1478" on="1"/>
        <pt x="1237" y="1577" on="0"/>
        <pt x="1262" y="1577" on="1"/>
        <pt x="1313" y="1577" on="0"/>
      </contour>
      <contour>
        <pt x="1805" y="235" on="1"/>
        <pt x="1805" y="222" on="0"/>
        <pt x="1787" y="198" on="1"/>
        <pt x="1783" y="79" on="0"/>
        <pt x="1730" y="21" on="1"/>
        <pt x="1694" y="21" on="1"/>
        <pt x="1695" y="91" on="0"/>
        <pt x="1688" y="229" on="1"/>
        <pt x="1670" y="367" on="0"/>
        <pt x="1612" y="664" on="1"/>
        <pt x="1559" y="936" on="0"/>
        <pt x="1559" y="942" on="1"/>
        <pt x="1559" y="973" on="0"/>
        <pt x="1611" y="1093" on="0"/>
        <pt x="1635" y="1116" on="1"/>
        <pt x="1682" y="1094" on="0"/>
        <pt x="1688" y="1050" on="1"/>
        <pt x="1805" y="215" on="0"/>
      </contour>
      <contour>
        <pt x="1252" y="1223" on="1"/>
        <pt x="1252" y="1087" on="0"/>
        <pt x="1065" y="1021" on="1"/>
        <pt x="1049" y="1007" on="0"/>
        <pt x="1023" y="985" on="1"/>
        <pt x="1016" y="985" on="0"/>
        <pt x="961" y="972" on="0"/>
        <pt x="945" y="972" on="1"/>
        <pt x="873" y="972" on="0"/>
        <pt x="873" y="1044" on="1"/>
        <pt x="873" y="1091" on="0"/>
        <pt x="917" y="1156" on="1"/>
        <pt x="953" y="1156" on="1"/>
        <pt x="978" y="1106" on="0"/>
        <pt x="996" y="1106" on="1"/>
        <pt x="1017" y="1106" on="0"/>
        <pt x="1033" y="1133" on="1"/>
        <pt x="1035" y="1179" on="0"/>
        <pt x="1070" y="1248" on="1"/>
        <pt x="1116" y="1248" on="1"/>
        <pt x="1120" y="1234" on="0"/>
        <pt x="1144" y="1198" on="1"/>
        <pt x="1158" y="1234" on="0"/>
        <pt x="1204" y="1310" on="1"/>
        <pt x="1252" y="1300" on="0"/>
      </contour>
      <contour>
        <pt x="678" y="1013" on="1"/>
        <pt x="678" y="963" on="0"/>
        <pt x="643" y="963" on="1"/>
        <pt x="630" y="963" on="0"/>
        <pt x="553" y="993" on="0"/>
        <pt x="541" y="993" on="1"/>
        <pt x="477" y="934" on="0"/>
        <pt x="417" y="885" on="1"/>
        <pt x="274" y="767" on="0"/>
        <pt x="173" y="718" on="1"/>
        <pt x="127" y="718" on="1"/>
        <pt x="127" y="754" on="1"/>
        <pt x="239" y="846" on="0"/>
        <pt x="443" y="1031" on="1"/>
        <pt x="442" y="1043" on="0"/>
        <pt x="373" y="1086" on="1"/>
        <pt x="369" y="1098" on="0"/>
        <pt x="369" y="1112" on="1"/>
        <pt x="369" y="1185" on="0"/>
        <pt x="419" y="1265" on="1"/>
        <pt x="472" y="1352" on="0"/>
        <pt x="535" y="1352" on="1"/>
        <pt x="605" y="1352" on="0"/>
        <pt x="605" y="1223" on="1"/>
        <pt x="605" y="1198" on="0"/>
        <pt x="601" y="1165" on="1"/>
        <pt x="599" y="1135" on="0"/>
        <pt x="599" y="1133" on="1"/>
        <pt x="624" y="1102" on="0"/>
        <pt x="650" y="1072" on="1"/>
        <pt x="678" y="1035" on="0"/>
      </contour>
      <contour>
        <pt x="1436" y="210" on="1"/>
        <pt x="1436" y="196" on="0"/>
        <pt x="1408" y="111" on="1"/>
        <pt x="1380" y="23" on="0"/>
        <pt x="1369" y="14" on="1"/>
        <pt x="1318" y="-31" on="0"/>
        <pt x="1267" y="-31" on="1"/>
        <pt x="1230" y="-31" on="0"/>
        <pt x="1166" y="-7" on="1"/>
        <pt x="1085" y="21" on="0"/>
        <pt x="1061" y="61" on="1"/>
        <pt x="1040" y="41" on="0"/>
        <pt x="984" y="-6" on="1"/>
        <pt x="911" y="-61" on="0"/>
        <pt x="822" y="-61" on="1"/>
        <pt x="736" y="-61" on="0"/>
        <pt x="698" y="2" on="1"/>
        <pt x="679" y="31" on="0"/>
        <pt x="641" y="164" on="1"/>
        <pt x="545" y="82" on="0"/>
        <pt x="443" y="82" on="1"/>
        <pt x="398" y="82" on="0"/>
        <pt x="343" y="103" on="1"/>
        <pt x="279" y="128" on="0"/>
        <pt x="279" y="159" on="1"/>
        <pt x="279" y="230" on="0"/>
        <pt x="451" y="362" on="1"/>
        <pt x="554" y="436" on="0"/>
        <pt x="656" y="510" on="1"/>
        <pt x="668" y="534" on="0"/>
        <pt x="702" y="593" on="1"/>
        <pt x="738" y="593" on="1"/>
        <pt x="750" y="529" on="0"/>
        <pt x="767" y="405" on="1"/>
        <pt x="760" y="328" on="0"/>
        <pt x="773" y="170" on="1"/>
        <pt x="789" y="102" on="0"/>
        <pt x="868" y="102" on="1"/>
        <pt x="912" y="102" on="0"/>
        <pt x="965" y="134" on="1"/>
        <pt x="1026" y="170" on="0"/>
        <pt x="1026" y="215" on="1"/>
        <pt x="1026" y="228" on="0"/>
        <pt x="965" y="581" on="0"/>
        <pt x="965" y="594" on="1"/>
        <pt x="965" y="655" on="0"/>
        <pt x="970" y="673" on="1"/>
        <pt x="978" y="698" on="0"/>
        <pt x="1019" y="757" on="1"/>
        <pt x="1029" y="757" on="0"/>
        <pt x="1045" y="747" on="1"/>
        <pt x="1063" y="735" on="0"/>
        <pt x="1064" y="723" on="1"/>
        <pt x="1066" y="698" on="0"/>
        <pt x="1081" y="630" on="1"/>
        <pt x="1094" y="569" on="0"/>
        <pt x="1094" y="537" on="1"/>
        <pt x="1094" y="342" on="0"/>
        <pt x="1162" y="192" on="1"/>
        <pt x="1184" y="143" on="0"/>
        <pt x="1262" y="143" on="1"/>
        <pt x="1313" y="143" on="0"/>
        <pt x="1313" y="200" on="1"/>
        <pt x="1313" y="211" on="0"/>
        <pt x="1293" y="255" on="1"/>
        <pt x="1270" y="305" on="0"/>
        <pt x="1265" y="321" on="1"/>
        <pt x="1201" y="552" on="0"/>
        <pt x="1201" y="640" on="1"/>
        <pt x="1201" y="703" on="0"/>
        <pt x="1266" y="768" on="1"/>
        <pt x="1285" y="768" on="0"/>
        <pt x="1299" y="744" on="1"/>
        <pt x="1314" y="667" on="0"/>
        <pt x="1378" y="433" on="1"/>
        <pt x="1436" y="221" on="0"/>
      </contour>
      <contour>
        <pt x="1856" y="1420" on="1"/>
        <pt x="1808" y="1433" on="1"/>
        <pt x="1784" y="1386" on="0"/>
        <pt x="1793" y="1372" on="1"/>
        <pt x="1842" y="1392" on="0"/>
      </contour>
      <contour>
        <pt x="505" y="1176" on="1"/>
        <pt x="505" y="1204" on="0"/>
        <pt x="493" y="1212" on="1"/>
        <pt x="484" y="1216" on="0"/>
        <pt x="466" y="1203" on="1"/>
        <pt x="479" y="1176" on="0"/>
      </contour>
      <contour>
        <pt x="658" y="312" on="1"/>
        <pt x="658" y="344" on="0"/>
        <pt x="634" y="369" on="1"/>
        <pt x="595" y="361" on="0"/>
        <pt x="478" y="279" on="0"/>
        <pt x="465" y="248" on="1"/>
        <pt x="460" y="248" on="0"/>
        <pt x="527" y="236" on="0"/>
        <pt x="583" y="236" on="1"/>
        <pt x="658" y="287" on="0"/>
      </contour>
    </TTGlyph>
    <TTGlyph name="gaffinalarabic" xMin="142" yMin="226" xMax="842" yMax="1588">
      <contour>
        <pt x="142" y="226" on="1"/>
        <pt x="142" y="1588" on="1"/>
        <pt x="842" y="1588" on="1"/>
        <pt x="842" y="226" on="1"/>
      </contour>
      <contour>
        <pt x="284" y="368" on="1"/>
        <pt x="700" y="368" on="1"/>
        <pt x="700" y="1447" on="1"/>
        <pt x="284" y="1447" on="1"/>
      </contour>
    </TTGlyph>
    <TTGlyph name="gafinitialarabic" xMin="142" yMin="226" xMax="842" yMax="1588">
      <contour>
        <pt x="142" y="226" on="1"/>
        <pt x="142" y="1588" on="1"/>
        <pt x="842" y="1588" on="1"/>
        <pt x="842" y="226" on="1"/>
      </contour>
      <contour>
        <pt x="284" y="368" on="1"/>
        <pt x="700" y="368" on="1"/>
        <pt x="700" y="1447" on="1"/>
        <pt x="284" y="1447" on="1"/>
      </contour>
    </TTGlyph>
    <TTGlyph name="gafmedialarabic" xMin="142" yMin="226" xMax="842" yMax="1588">
      <contour>
        <pt x="142" y="226" on="1"/>
        <pt x="142" y="1588" on="1"/>
        <pt x="842" y="1588" on="1"/>
        <pt x="842" y="226" on="1"/>
      </contour>
      <contour>
        <pt x="284" y="368" on="1"/>
        <pt x="700" y="368" on="1"/>
        <pt x="700" y="1447" on="1"/>
        <pt x="284" y="1447" on="1"/>
      </contour>
    </TTGlyph>
    <TTGlyph name="glyph41" xMin="142" yMin="226" xMax="842" yMax="1588">
      <contour>
        <pt x="142" y="226" on="1"/>
        <pt x="142" y="1588" on="1"/>
        <pt x="842" y="1588" on="1"/>
        <pt x="842" y="226" on="1"/>
      </contour>
      <contour>
        <pt x="284" y="368" on="1"/>
        <pt x="700" y="368" on="1"/>
        <pt x="700" y="1447" on="1"/>
        <pt x="284" y="1447" on="1"/>
      </contour>
    </TTGlyph>
    <TTGlyph name="glyph42" xMin="142" yMin="226" xMax="842" yMax="1588">
      <contour>
        <pt x="142" y="226" on="1"/>
        <pt x="142" y="1588" on="1"/>
        <pt x="842" y="1588" on="1"/>
        <pt x="842" y="226" on="1"/>
      </contour>
      <contour>
        <pt x="284" y="368" on="1"/>
        <pt x="700" y="368" on="1"/>
        <pt x="700" y="1447" on="1"/>
        <pt x="284" y="1447" on="1"/>
      </contour>
    </TTGlyph>
    <TTGlyph name="glyph43" xMin="142" yMin="226" xMax="842" yMax="1588">
      <contour>
        <pt x="142" y="226" on="1"/>
        <pt x="142" y="1588" on="1"/>
        <pt x="842" y="1588" on="1"/>
        <pt x="842" y="226" on="1"/>
      </contour>
      <contour>
        <pt x="284" y="368" on="1"/>
        <pt x="700" y="368" on="1"/>
        <pt x="700" y="1447" on="1"/>
        <pt x="284" y="1447" on="1"/>
      </contour>
    </TTGlyph>
    <TTGlyph name="glyph44" xMin="142" yMin="226" xMax="842" yMax="1588">
      <contour>
        <pt x="142" y="226" on="1"/>
        <pt x="142" y="1588" on="1"/>
        <pt x="842" y="1588" on="1"/>
        <pt x="842" y="226" on="1"/>
      </contour>
      <contour>
        <pt x="284" y="368" on="1"/>
        <pt x="700" y="368" on="1"/>
        <pt x="700" y="1447" on="1"/>
        <pt x="284" y="1447" on="1"/>
      </contour>
    </TTGlyph>
    <TTGlyph name="glyph45" xMin="142" yMin="226" xMax="842" yMax="1588">
      <contour>
        <pt x="142" y="226" on="1"/>
        <pt x="142" y="1588" on="1"/>
        <pt x="842" y="1588" on="1"/>
        <pt x="842" y="226" on="1"/>
      </contour>
      <contour>
        <pt x="284" y="368" on="1"/>
        <pt x="700" y="368" on="1"/>
        <pt x="700" y="1447" on="1"/>
        <pt x="284" y="1447" on="1"/>
      </contour>
    </TTGlyph>
    <TTGlyph name="glyph46" xMin="142" yMin="226" xMax="842" yMax="1588">
      <contour>
        <pt x="142" y="226" on="1"/>
        <pt x="142" y="1588" on="1"/>
        <pt x="842" y="1588" on="1"/>
        <pt x="842" y="226" on="1"/>
      </contour>
      <contour>
        <pt x="284" y="368" on="1"/>
        <pt x="700" y="368" on="1"/>
        <pt x="700" y="1447" on="1"/>
        <pt x="284" y="1447" on="1"/>
      </contour>
    </TTGlyph>
    <TTGlyph name="glyph47" xMin="142" yMin="226" xMax="842" yMax="1588">
      <contour>
        <pt x="142" y="226" on="1"/>
        <pt x="142" y="1588" on="1"/>
        <pt x="842" y="1588" on="1"/>
        <pt x="842" y="226" on="1"/>
      </contour>
      <contour>
        <pt x="284" y="368" on="1"/>
        <pt x="700" y="368" on="1"/>
        <pt x="700" y="1447" on="1"/>
        <pt x="284" y="1447" on="1"/>
      </contour>
    </TTGlyph>
    <TTGlyph name="glyph48" xMin="142" yMin="226" xMax="842" yMax="1588">
      <contour>
        <pt x="142" y="226" on="1"/>
        <pt x="142" y="1588" on="1"/>
        <pt x="842" y="1588" on="1"/>
        <pt x="842" y="226" on="1"/>
      </contour>
      <contour>
        <pt x="284" y="368" on="1"/>
        <pt x="700" y="368" on="1"/>
        <pt x="700" y="1447" on="1"/>
        <pt x="284" y="1447" on="1"/>
      </contour>
    </TTGlyph>
    <TTGlyph name="glyph50" xMin="142" yMin="226" xMax="842" yMax="1588">
      <contour>
        <pt x="142" y="226" on="1"/>
        <pt x="142" y="1588" on="1"/>
        <pt x="842" y="1588" on="1"/>
        <pt x="842" y="226" on="1"/>
      </contour>
      <contour>
        <pt x="284" y="368" on="1"/>
        <pt x="700" y="368" on="1"/>
        <pt x="700" y="1447" on="1"/>
        <pt x="284" y="1447" on="1"/>
      </contour>
    </TTGlyph>
    <TTGlyph name="glyph51" xMin="142" yMin="226" xMax="842" yMax="1588">
      <contour>
        <pt x="142" y="226" on="1"/>
        <pt x="142" y="1588" on="1"/>
        <pt x="842" y="1588" on="1"/>
        <pt x="842" y="226" on="1"/>
      </contour>
      <contour>
        <pt x="284" y="368" on="1"/>
        <pt x="700" y="368" on="1"/>
        <pt x="700" y="1447" on="1"/>
        <pt x="284" y="1447" on="1"/>
      </contour>
    </TTGlyph>
    <TTGlyph name="greater" xMin="142" yMin="226" xMax="842" yMax="1588">
      <contour>
        <pt x="142" y="226" on="1"/>
        <pt x="142" y="1588" on="1"/>
        <pt x="842" y="1588" on="1"/>
        <pt x="842" y="226" on="1"/>
      </contour>
      <contour>
        <pt x="284" y="368" on="1"/>
        <pt x="700" y="368" on="1"/>
        <pt x="700" y="1447" on="1"/>
        <pt x="284" y="1447" on="1"/>
      </contour>
    </TTGlyph>
    <TTGlyph name="hahhamzabovefinal" xMin="142" yMin="226" xMax="842" yMax="1588">
      <contour>
        <pt x="142" y="226" on="1"/>
        <pt x="142" y="1588" on="1"/>
        <pt x="842" y="1588" on="1"/>
        <pt x="842" y="226" on="1"/>
      </contour>
      <contour>
        <pt x="284" y="368" on="1"/>
        <pt x="700" y="368" on="1"/>
        <pt x="700" y="1447" on="1"/>
        <pt x="284" y="1447" on="1"/>
      </contour>
    </TTGlyph>
    <TTGlyph name="hahhamzaboveinitial" xMin="142" yMin="226" xMax="842" yMax="1588">
      <contour>
        <pt x="142" y="226" on="1"/>
        <pt x="142" y="1588" on="1"/>
        <pt x="842" y="1588" on="1"/>
        <pt x="842" y="226" on="1"/>
      </contour>
      <contour>
        <pt x="284" y="368" on="1"/>
        <pt x="700" y="368" on="1"/>
        <pt x="700" y="1447" on="1"/>
        <pt x="284" y="1447" on="1"/>
      </contour>
    </TTGlyph>
    <TTGlyph name="hahhamzabovemedial" xMin="142" yMin="226" xMax="842" yMax="1588">
      <contour>
        <pt x="142" y="226" on="1"/>
        <pt x="142" y="1588" on="1"/>
        <pt x="842" y="1588" on="1"/>
        <pt x="842" y="226" on="1"/>
      </contour>
      <contour>
        <pt x="284" y="368" on="1"/>
        <pt x="700" y="368" on="1"/>
        <pt x="700" y="1447" on="1"/>
        <pt x="284" y="1447" on="1"/>
      </contour>
    </TTGlyph>
    <TTGlyph name="hahthreedotsabovefinal" xMin="142" yMin="226" xMax="842" yMax="1588">
      <contour>
        <pt x="142" y="226" on="1"/>
        <pt x="142" y="1588" on="1"/>
        <pt x="842" y="1588" on="1"/>
        <pt x="842" y="226" on="1"/>
      </contour>
      <contour>
        <pt x="284" y="368" on="1"/>
        <pt x="700" y="368" on="1"/>
        <pt x="700" y="1447" on="1"/>
        <pt x="284" y="1447" on="1"/>
      </contour>
    </TTGlyph>
    <TTGlyph name="hahthreedotsaboveinitial" xMin="142" yMin="226" xMax="842" yMax="1588">
      <contour>
        <pt x="142" y="226" on="1"/>
        <pt x="142" y="1588" on="1"/>
        <pt x="842" y="1588" on="1"/>
        <pt x="842" y="226" on="1"/>
      </contour>
      <contour>
        <pt x="284" y="368" on="1"/>
        <pt x="700" y="368" on="1"/>
        <pt x="700" y="1447" on="1"/>
        <pt x="284" y="1447" on="1"/>
      </contour>
    </TTGlyph>
    <TTGlyph name="hahthreedotsabovemedial" xMin="142" yMin="226" xMax="842" yMax="1588">
      <contour>
        <pt x="142" y="226" on="1"/>
        <pt x="142" y="1588" on="1"/>
        <pt x="842" y="1588" on="1"/>
        <pt x="842" y="226" on="1"/>
      </contour>
      <contour>
        <pt x="284" y="368" on="1"/>
        <pt x="700" y="368" on="1"/>
        <pt x="700" y="1447" on="1"/>
        <pt x="284" y="1447" on="1"/>
      </contour>
    </TTGlyph>
    <TTGlyph name="hehdoachashmeefinalarabic" xMin="142" yMin="226" xMax="842" yMax="1588">
      <contour>
        <pt x="142" y="226" on="1"/>
        <pt x="142" y="1588" on="1"/>
        <pt x="842" y="1588" on="1"/>
        <pt x="842" y="226" on="1"/>
      </contour>
      <contour>
        <pt x="284" y="368" on="1"/>
        <pt x="700" y="368" on="1"/>
        <pt x="700" y="1447" on="1"/>
        <pt x="284" y="1447" on="1"/>
      </contour>
    </TTGlyph>
    <TTGlyph name="hehdoachashmeeinitialarabic" xMin="142" yMin="226" xMax="842" yMax="1588">
      <contour>
        <pt x="142" y="226" on="1"/>
        <pt x="142" y="1588" on="1"/>
        <pt x="842" y="1588" on="1"/>
        <pt x="842" y="226" on="1"/>
      </contour>
      <contour>
        <pt x="284" y="368" on="1"/>
        <pt x="700" y="368" on="1"/>
        <pt x="700" y="1447" on="1"/>
        <pt x="284" y="1447" on="1"/>
      </contour>
    </TTGlyph>
    <TTGlyph name="hehdoachashmeemedialarabic" xMin="142" yMin="226" xMax="842" yMax="1588">
      <contour>
        <pt x="142" y="226" on="1"/>
        <pt x="142" y="1588" on="1"/>
        <pt x="842" y="1588" on="1"/>
        <pt x="842" y="226" on="1"/>
      </contour>
      <contour>
        <pt x="284" y="368" on="1"/>
        <pt x="700" y="368" on="1"/>
        <pt x="700" y="1447" on="1"/>
        <pt x="284" y="1447" on="1"/>
      </contour>
    </TTGlyph>
    <TTGlyph name="hehfinalaltonearabic" xMin="142" yMin="226" xMax="842" yMax="1588">
      <contour>
        <pt x="142" y="226" on="1"/>
        <pt x="142" y="1588" on="1"/>
        <pt x="842" y="1588" on="1"/>
        <pt x="842" y="226" on="1"/>
      </contour>
      <contour>
        <pt x="284" y="368" on="1"/>
        <pt x="700" y="368" on="1"/>
        <pt x="700" y="1447" on="1"/>
        <pt x="284" y="1447" on="1"/>
      </contour>
    </TTGlyph>
    <TTGlyph name="hehhamzaabovefinalarabic" xMin="142" yMin="226" xMax="842" yMax="1588">
      <contour>
        <pt x="142" y="226" on="1"/>
        <pt x="142" y="1588" on="1"/>
        <pt x="842" y="1588" on="1"/>
        <pt x="842" y="226" on="1"/>
      </contour>
      <contour>
        <pt x="284" y="368" on="1"/>
        <pt x="700" y="368" on="1"/>
        <pt x="700" y="1447" on="1"/>
        <pt x="284" y="1447" on="1"/>
      </contour>
    </TTGlyph>
    <TTGlyph name="hehinitialaltonearabic" xMin="142" yMin="226" xMax="842" yMax="1588">
      <contour>
        <pt x="142" y="226" on="1"/>
        <pt x="142" y="1588" on="1"/>
        <pt x="842" y="1588" on="1"/>
        <pt x="842" y="226" on="1"/>
      </contour>
      <contour>
        <pt x="284" y="368" on="1"/>
        <pt x="700" y="368" on="1"/>
        <pt x="700" y="1447" on="1"/>
        <pt x="284" y="1447" on="1"/>
      </contour>
    </TTGlyph>
    <TTGlyph name="hehmedialaltonearabic" xMin="142" yMin="226" xMax="842" yMax="1588">
      <contour>
        <pt x="142" y="226" on="1"/>
        <pt x="142" y="1588" on="1"/>
        <pt x="842" y="1588" on="1"/>
        <pt x="842" y="226" on="1"/>
      </contour>
      <contour>
        <pt x="284" y="368" on="1"/>
        <pt x="700" y="368" on="1"/>
        <pt x="700" y="1447" on="1"/>
        <pt x="284" y="1447" on="1"/>
      </contour>
    </TTGlyph>
    <TTGlyph name="hyphen" xMin="127" yMin="-61" xMax="1969" yMax="1577">
      <contour>
        <pt x="1969" y="1464" on="1"/>
        <pt x="1969" y="1380" on="0"/>
        <pt x="1854" y="1295" on="1"/>
        <pt x="1749" y="1218" on="0"/>
        <pt x="1677" y="1218" on="1"/>
        <pt x="1665" y="1218" on="0"/>
        <pt x="1664" y="1223" on="1"/>
        <pt x="1664" y="1223" on="1"/>
        <pt x="1664" y="1229" on="0"/>
        <pt x="1652" y="1229" on="1"/>
        <pt x="1629" y="1229" on="0"/>
        <pt x="1556" y="1158" on="1"/>
        <pt x="1519" y="1158" on="1"/>
        <pt x="1519" y="1202" on="1"/>
        <pt x="1518" y="1220" on="0"/>
        <pt x="1575" y="1316" on="0"/>
        <pt x="1602" y="1336" on="1"/>
        <pt x="1620" y="1342" on="0"/>
        <pt x="1655" y="1353" on="1"/>
        <pt x="1700" y="1369" on="0"/>
        <pt x="1734" y="1445" on="1"/>
        <pt x="1771" y="1526" on="0"/>
        <pt x="1823" y="1556" on="0"/>
        <pt x="1877" y="1556" on="1"/>
        <pt x="1909" y="1556" on="0"/>
        <pt x="1940" y="1523" on="1"/>
        <pt x="1969" y="1491" on="0"/>
      </contour>
      <contour>
        <pt x="1313" y="1536" on="1"/>
        <pt x="1313" y="1495" on="0"/>
        <pt x="878" y="1300" on="1"/>
        <pt x="848" y="1300" on="0"/>
        <pt x="801" y="1347" on="1"/>
        <pt x="851" y="1382" on="0"/>
        <pt x="1041" y="1478" on="1"/>
        <pt x="1237" y="1577" on="0"/>
        <pt x="1262" y="1577" on="1"/>
        <pt x="1313" y="1577" on="0"/>
      </contour>
      <contour>
        <pt x="1805" y="235" on="1"/>
        <pt x="1805" y="222" on="0"/>
        <pt x="1787" y="198" on="1"/>
        <pt x="1783" y="79" on="0"/>
        <pt x="1730" y="21" on="1"/>
        <pt x="1694" y="21" on="1"/>
        <pt x="1695" y="91" on="0"/>
        <pt x="1688" y="229" on="1"/>
        <pt x="1670" y="367" on="0"/>
        <pt x="1612" y="664" on="1"/>
        <pt x="1559" y="936" on="0"/>
        <pt x="1559" y="942" on="1"/>
        <pt x="1559" y="973" on="0"/>
        <pt x="1611" y="1093" on="0"/>
        <pt x="1635" y="1116" on="1"/>
        <pt x="1682" y="1094" on="0"/>
        <pt x="1688" y="1050" on="1"/>
        <pt x="1805" y="215" on="0"/>
      </contour>
      <contour>
        <pt x="1252" y="1223" on="1"/>
        <pt x="1252" y="1087" on="0"/>
        <pt x="1065" y="1021" on="1"/>
        <pt x="1049" y="1007" on="0"/>
        <pt x="1023" y="985" on="1"/>
        <pt x="1016" y="985" on="0"/>
        <pt x="961" y="972" on="0"/>
        <pt x="945" y="972" on="1"/>
        <pt x="873" y="972" on="0"/>
        <pt x="873" y="1044" on="1"/>
        <pt x="873" y="1091" on="0"/>
        <pt x="917" y="1156" on="1"/>
        <pt x="953" y="1156" on="1"/>
        <pt x="978" y="1106" on="0"/>
        <pt x="996" y="1106" on="1"/>
        <pt x="1017" y="1106" on="0"/>
        <pt x="1033" y="1133" on="1"/>
        <pt x="1035" y="1179" on="0"/>
        <pt x="1070" y="1248" on="1"/>
        <pt x="1116" y="1248" on="1"/>
        <pt x="1120" y="1234" on="0"/>
        <pt x="1144" y="1198" on="1"/>
        <pt x="1158" y="1234" on="0"/>
        <pt x="1204" y="1310" on="1"/>
        <pt x="1252" y="1300" on="0"/>
      </contour>
      <contour>
        <pt x="678" y="1013" on="1"/>
        <pt x="678" y="963" on="0"/>
        <pt x="643" y="963" on="1"/>
        <pt x="630" y="963" on="0"/>
        <pt x="553" y="993" on="0"/>
        <pt x="541" y="993" on="1"/>
        <pt x="477" y="934" on="0"/>
        <pt x="417" y="885" on="1"/>
        <pt x="274" y="767" on="0"/>
        <pt x="173" y="718" on="1"/>
        <pt x="127" y="718" on="1"/>
        <pt x="127" y="754" on="1"/>
        <pt x="239" y="846" on="0"/>
        <pt x="443" y="1031" on="1"/>
        <pt x="442" y="1043" on="0"/>
        <pt x="373" y="1086" on="1"/>
        <pt x="369" y="1098" on="0"/>
        <pt x="369" y="1112" on="1"/>
        <pt x="369" y="1185" on="0"/>
        <pt x="419" y="1265" on="1"/>
        <pt x="472" y="1352" on="0"/>
        <pt x="535" y="1352" on="1"/>
        <pt x="605" y="1352" on="0"/>
        <pt x="605" y="1223" on="1"/>
        <pt x="605" y="1198" on="0"/>
        <pt x="601" y="1165" on="1"/>
        <pt x="599" y="1135" on="0"/>
        <pt x="599" y="1133" on="1"/>
        <pt x="624" y="1102" on="0"/>
        <pt x="650" y="1072" on="1"/>
        <pt x="678" y="1035" on="0"/>
      </contour>
      <contour>
        <pt x="1436" y="210" on="1"/>
        <pt x="1436" y="196" on="0"/>
        <pt x="1408" y="111" on="1"/>
        <pt x="1380" y="23" on="0"/>
        <pt x="1369" y="14" on="1"/>
        <pt x="1318" y="-31" on="0"/>
        <pt x="1267" y="-31" on="1"/>
        <pt x="1230" y="-31" on="0"/>
        <pt x="1166" y="-7" on="1"/>
        <pt x="1085" y="21" on="0"/>
        <pt x="1061" y="61" on="1"/>
        <pt x="1040" y="41" on="0"/>
        <pt x="984" y="-6" on="1"/>
        <pt x="911" y="-61" on="0"/>
        <pt x="822" y="-61" on="1"/>
        <pt x="736" y="-61" on="0"/>
        <pt x="698" y="2" on="1"/>
        <pt x="679" y="31" on="0"/>
        <pt x="641" y="164" on="1"/>
        <pt x="545" y="82" on="0"/>
        <pt x="443" y="82" on="1"/>
        <pt x="398" y="82" on="0"/>
        <pt x="343" y="103" on="1"/>
        <pt x="279" y="128" on="0"/>
        <pt x="279" y="159" on="1"/>
        <pt x="279" y="230" on="0"/>
        <pt x="451" y="362" on="1"/>
        <pt x="554" y="436" on="0"/>
        <pt x="656" y="510" on="1"/>
        <pt x="668" y="534" on="0"/>
        <pt x="702" y="593" on="1"/>
        <pt x="738" y="593" on="1"/>
        <pt x="750" y="529" on="0"/>
        <pt x="767" y="405" on="1"/>
        <pt x="760" y="328" on="0"/>
        <pt x="773" y="170" on="1"/>
        <pt x="789" y="102" on="0"/>
        <pt x="868" y="102" on="1"/>
        <pt x="912" y="102" on="0"/>
        <pt x="965" y="134" on="1"/>
        <pt x="1026" y="170" on="0"/>
        <pt x="1026" y="215" on="1"/>
        <pt x="1026" y="228" on="0"/>
        <pt x="965" y="581" on="0"/>
        <pt x="965" y="594" on="1"/>
        <pt x="965" y="655" on="0"/>
        <pt x="970" y="673" on="1"/>
        <pt x="978" y="698" on="0"/>
        <pt x="1019" y="757" on="1"/>
        <pt x="1029" y="757" on="0"/>
        <pt x="1045" y="747" on="1"/>
        <pt x="1063" y="735" on="0"/>
        <pt x="1064" y="723" on="1"/>
        <pt x="1066" y="698" on="0"/>
        <pt x="1081" y="630" on="1"/>
        <pt x="1094" y="569" on="0"/>
        <pt x="1094" y="537" on="1"/>
        <pt x="1094" y="342" on="0"/>
        <pt x="1162" y="192" on="1"/>
        <pt x="1184" y="143" on="0"/>
        <pt x="1262" y="143" on="1"/>
        <pt x="1313" y="143" on="0"/>
        <pt x="1313" y="200" on="1"/>
        <pt x="1313" y="211" on="0"/>
        <pt x="1293" y="255" on="1"/>
        <pt x="1270" y="305" on="0"/>
        <pt x="1265" y="321" on="1"/>
        <pt x="1201" y="552" on="0"/>
        <pt x="1201" y="640" on="1"/>
        <pt x="1201" y="703" on="0"/>
        <pt x="1266" y="768" on="1"/>
        <pt x="1285" y="768" on="0"/>
        <pt x="1299" y="744" on="1"/>
        <pt x="1314" y="667" on="0"/>
        <pt x="1378" y="433" on="1"/>
        <pt x="1436" y="221" on="0"/>
      </contour>
      <contour>
        <pt x="1856" y="1420" on="1"/>
        <pt x="1808" y="1433" on="1"/>
        <pt x="1784" y="1386" on="0"/>
        <pt x="1793" y="1372" on="1"/>
        <pt x="1842" y="1392" on="0"/>
      </contour>
      <contour>
        <pt x="505" y="1176" on="1"/>
        <pt x="505" y="1204" on="0"/>
        <pt x="493" y="1212" on="1"/>
        <pt x="484" y="1216" on="0"/>
        <pt x="466" y="1203" on="1"/>
        <pt x="479" y="1176" on="0"/>
      </contour>
      <contour>
        <pt x="658" y="312" on="1"/>
        <pt x="658" y="344" on="0"/>
        <pt x="634" y="369" on="1"/>
        <pt x="595" y="361" on="0"/>
        <pt x="478" y="279" on="0"/>
        <pt x="465" y="248" on="1"/>
        <pt x="460" y="248" on="0"/>
        <pt x="527" y="236" on="0"/>
        <pt x="583" y="236" on="1"/>
        <pt x="658" y="287" on="0"/>
      </contour>
    </TTGlyph>
    <TTGlyph name="irghizufinal" xMin="142" yMin="226" xMax="842" yMax="1588">
      <contour>
        <pt x="142" y="226" on="1"/>
        <pt x="142" y="1588" on="1"/>
        <pt x="842" y="1588" on="1"/>
        <pt x="842" y="226" on="1"/>
      </contour>
      <contour>
        <pt x="284" y="368" on="1"/>
        <pt x="700" y="368" on="1"/>
        <pt x="700" y="1447" on="1"/>
        <pt x="284" y="1447" on="1"/>
      </contour>
    </TTGlyph>
    <TTGlyph name="jehfinalarabic" xMin="142" yMin="226" xMax="842" yMax="1588">
      <contour>
        <pt x="142" y="226" on="1"/>
        <pt x="142" y="1588" on="1"/>
        <pt x="842" y="1588" on="1"/>
        <pt x="842" y="226" on="1"/>
      </contour>
      <contour>
        <pt x="284" y="368" on="1"/>
        <pt x="700" y="368" on="1"/>
        <pt x="700" y="1447" on="1"/>
        <pt x="284" y="1447" on="1"/>
      </contour>
    </TTGlyph>
    <TTGlyph name="kafringfinal" xMin="142" yMin="226" xMax="842" yMax="1588">
      <contour>
        <pt x="142" y="226" on="1"/>
        <pt x="142" y="1588" on="1"/>
        <pt x="842" y="1588" on="1"/>
        <pt x="842" y="226" on="1"/>
      </contour>
      <contour>
        <pt x="284" y="368" on="1"/>
        <pt x="700" y="368" on="1"/>
        <pt x="700" y="1447" on="1"/>
        <pt x="284" y="1447" on="1"/>
      </contour>
    </TTGlyph>
    <TTGlyph name="kafringinitial" xMin="142" yMin="226" xMax="842" yMax="1588">
      <contour>
        <pt x="142" y="226" on="1"/>
        <pt x="142" y="1588" on="1"/>
        <pt x="842" y="1588" on="1"/>
        <pt x="842" y="226" on="1"/>
      </contour>
      <contour>
        <pt x="284" y="368" on="1"/>
        <pt x="700" y="368" on="1"/>
        <pt x="700" y="1447" on="1"/>
        <pt x="284" y="1447" on="1"/>
      </contour>
    </TTGlyph>
    <TTGlyph name="kafringmedial" xMin="142" yMin="226" xMax="842" yMax="1588">
      <contour>
        <pt x="142" y="226" on="1"/>
        <pt x="142" y="1588" on="1"/>
        <pt x="842" y="1588" on="1"/>
        <pt x="842" y="226" on="1"/>
      </contour>
      <contour>
        <pt x="284" y="368" on="1"/>
        <pt x="700" y="368" on="1"/>
        <pt x="700" y="1447" on="1"/>
        <pt x="284" y="1447" on="1"/>
      </contour>
    </TTGlyph>
    <TTGlyph name="kashidaautoarabic" xMin="142" yMin="226" xMax="842" yMax="1588">
      <contour>
        <pt x="142" y="226" on="1"/>
        <pt x="142" y="1588" on="1"/>
        <pt x="842" y="1588" on="1"/>
        <pt x="842" y="226" on="1"/>
      </contour>
      <contour>
        <pt x="284" y="368" on="1"/>
        <pt x="700" y="368" on="1"/>
        <pt x="700" y="1447" on="1"/>
        <pt x="284" y="1447" on="1"/>
      </contour>
    </TTGlyph>
    <TTGlyph name="kashidaautonosidebearingarabic" xMin="142" yMin="226" xMax="842" yMax="1588">
      <contour>
        <pt x="142" y="226" on="1"/>
        <pt x="142" y="1588" on="1"/>
        <pt x="842" y="1588" on="1"/>
        <pt x="842" y="226" on="1"/>
      </contour>
      <contour>
        <pt x="284" y="368" on="1"/>
        <pt x="700" y="368" on="1"/>
        <pt x="700" y="1447" on="1"/>
        <pt x="284" y="1447" on="1"/>
      </contour>
    </TTGlyph>
    <TTGlyph name="kehehfinalarabic" xMin="142" yMin="226" xMax="842" yMax="1588">
      <contour>
        <pt x="142" y="226" on="1"/>
        <pt x="142" y="1588" on="1"/>
        <pt x="842" y="1588" on="1"/>
        <pt x="842" y="226" on="1"/>
      </contour>
      <contour>
        <pt x="284" y="368" on="1"/>
        <pt x="700" y="368" on="1"/>
        <pt x="700" y="1447" on="1"/>
        <pt x="284" y="1447" on="1"/>
      </contour>
    </TTGlyph>
    <TTGlyph name="kehehinitialarabic" xMin="142" yMin="226" xMax="842" yMax="1588">
      <contour>
        <pt x="142" y="226" on="1"/>
        <pt x="142" y="1588" on="1"/>
        <pt x="842" y="1588" on="1"/>
        <pt x="842" y="226" on="1"/>
      </contour>
      <contour>
        <pt x="284" y="368" on="1"/>
        <pt x="700" y="368" on="1"/>
        <pt x="700" y="1447" on="1"/>
        <pt x="284" y="1447" on="1"/>
      </contour>
    </TTGlyph>
    <TTGlyph name="kehehmedialarabic" xMin="142" yMin="226" xMax="842" yMax="1588">
      <contour>
        <pt x="142" y="226" on="1"/>
        <pt x="142" y="1588" on="1"/>
        <pt x="842" y="1588" on="1"/>
        <pt x="842" y="226" on="1"/>
      </contour>
      <contour>
        <pt x="284" y="368" on="1"/>
        <pt x="700" y="368" on="1"/>
        <pt x="700" y="1447" on="1"/>
        <pt x="284" y="1447" on="1"/>
      </contour>
    </TTGlyph>
    <TTGlyph name="kirghizyifinal" xMin="142" yMin="226" xMax="842" yMax="1588">
      <contour>
        <pt x="142" y="226" on="1"/>
        <pt x="142" y="1588" on="1"/>
        <pt x="842" y="1588" on="1"/>
        <pt x="842" y="226" on="1"/>
      </contour>
      <contour>
        <pt x="284" y="368" on="1"/>
        <pt x="700" y="368" on="1"/>
        <pt x="700" y="1447" on="1"/>
        <pt x="284" y="1447" on="1"/>
      </contour>
    </TTGlyph>
    <TTGlyph name="lammeemjeeminitialarabic" xMin="142" yMin="226" xMax="842" yMax="1588">
      <contour>
        <pt x="142" y="226" on="1"/>
        <pt x="142" y="1588" on="1"/>
        <pt x="842" y="1588" on="1"/>
        <pt x="842" y="226" on="1"/>
      </contour>
      <contour>
        <pt x="284" y="368" on="1"/>
        <pt x="700" y="368" on="1"/>
        <pt x="700" y="1447" on="1"/>
        <pt x="284" y="1447" on="1"/>
      </contour>
    </TTGlyph>
    <TTGlyph name="lammeemkhahinitialarabic" xMin="142" yMin="226" xMax="842" yMax="1588">
      <contour>
        <pt x="142" y="226" on="1"/>
        <pt x="142" y="1588" on="1"/>
        <pt x="842" y="1588" on="1"/>
        <pt x="842" y="226" on="1"/>
      </contour>
      <contour>
        <pt x="284" y="368" on="1"/>
        <pt x="700" y="368" on="1"/>
        <pt x="700" y="1447" on="1"/>
        <pt x="284" y="1447" on="1"/>
      </contour>
    </TTGlyph>
    <TTGlyph name="lamthreedotsabovefinal" xMin="142" yMin="226" xMax="842" yMax="1588">
      <contour>
        <pt x="142" y="226" on="1"/>
        <pt x="142" y="1588" on="1"/>
        <pt x="842" y="1588" on="1"/>
        <pt x="842" y="226" on="1"/>
      </contour>
      <contour>
        <pt x="284" y="368" on="1"/>
        <pt x="700" y="368" on="1"/>
        <pt x="700" y="1447" on="1"/>
        <pt x="284" y="1447" on="1"/>
      </contour>
    </TTGlyph>
    <TTGlyph name="lamthreedotsaboveinitial" xMin="142" yMin="226" xMax="842" yMax="1588">
      <contour>
        <pt x="142" y="226" on="1"/>
        <pt x="142" y="1588" on="1"/>
        <pt x="842" y="1588" on="1"/>
        <pt x="842" y="226" on="1"/>
      </contour>
      <contour>
        <pt x="284" y="368" on="1"/>
        <pt x="700" y="368" on="1"/>
        <pt x="700" y="1447" on="1"/>
        <pt x="284" y="1447" on="1"/>
      </contour>
    </TTGlyph>
    <TTGlyph name="lamthreedotsabovemedial" xMin="142" yMin="226" xMax="842" yMax="1588">
      <contour>
        <pt x="142" y="226" on="1"/>
        <pt x="142" y="1588" on="1"/>
        <pt x="842" y="1588" on="1"/>
        <pt x="842" y="226" on="1"/>
      </contour>
      <contour>
        <pt x="284" y="368" on="1"/>
        <pt x="700" y="368" on="1"/>
        <pt x="700" y="1447" on="1"/>
        <pt x="284" y="1447" on="1"/>
      </contour>
    </TTGlyph>
    <TTGlyph name="less" xMin="142" yMin="226" xMax="842" yMax="1588">
      <contour>
        <pt x="142" y="226" on="1"/>
        <pt x="142" y="1588" on="1"/>
        <pt x="842" y="1588" on="1"/>
        <pt x="842" y="226" on="1"/>
      </contour>
      <contour>
        <pt x="284" y="368" on="1"/>
        <pt x="700" y="368" on="1"/>
        <pt x="700" y="1447" on="1"/>
        <pt x="284" y="1447" on="1"/>
      </contour>
    </TTGlyph>
    <TTGlyph name="meemmeemisolatedarabic" xMin="142" yMin="226" xMax="842" yMax="1588">
      <contour>
        <pt x="142" y="226" on="1"/>
        <pt x="142" y="1588" on="1"/>
        <pt x="842" y="1588" on="1"/>
        <pt x="842" y="226" on="1"/>
      </contour>
      <contour>
        <pt x="284" y="368" on="1"/>
        <pt x="700" y="368" on="1"/>
        <pt x="700" y="1447" on="1"/>
        <pt x="284" y="1447" on="1"/>
      </contour>
    </TTGlyph>
    <TTGlyph name="multiply" xMin="142" yMin="226" xMax="842" yMax="1588">
      <contour>
        <pt x="142" y="226" on="1"/>
        <pt x="142" y="1588" on="1"/>
        <pt x="842" y="1588" on="1"/>
        <pt x="842" y="226" on="1"/>
      </contour>
      <contour>
        <pt x="284" y="368" on="1"/>
        <pt x="700" y="368" on="1"/>
        <pt x="700" y="1447" on="1"/>
        <pt x="284" y="1447" on="1"/>
      </contour>
    </TTGlyph>
    <TTGlyph name="noonghunnafinalarabic" xMin="142" yMin="226" xMax="842" yMax="1588">
      <contour>
        <pt x="142" y="226" on="1"/>
        <pt x="142" y="1588" on="1"/>
        <pt x="842" y="1588" on="1"/>
        <pt x="842" y="226" on="1"/>
      </contour>
      <contour>
        <pt x="284" y="368" on="1"/>
        <pt x="700" y="368" on="1"/>
        <pt x="700" y="1447" on="1"/>
        <pt x="284" y="1447" on="1"/>
      </contour>
    </TTGlyph>
    <TTGlyph name="noonjeemisolatedarabic" xMin="142" yMin="226" xMax="842" yMax="1588">
      <contour>
        <pt x="142" y="226" on="1"/>
        <pt x="142" y="1588" on="1"/>
        <pt x="842" y="1588" on="1"/>
        <pt x="842" y="226" on="1"/>
      </contour>
      <contour>
        <pt x="284" y="368" on="1"/>
        <pt x="700" y="368" on="1"/>
        <pt x="700" y="1447" on="1"/>
        <pt x="284" y="1447" on="1"/>
      </contour>
    </TTGlyph>
    <TTGlyph name="noonmeemisolatedarabic" xMin="142" yMin="226" xMax="842" yMax="1588">
      <contour>
        <pt x="142" y="226" on="1"/>
        <pt x="142" y="1588" on="1"/>
        <pt x="842" y="1588" on="1"/>
        <pt x="842" y="226" on="1"/>
      </contour>
      <contour>
        <pt x="284" y="368" on="1"/>
        <pt x="700" y="368" on="1"/>
        <pt x="700" y="1447" on="1"/>
        <pt x="284" y="1447" on="1"/>
      </contour>
    </TTGlyph>
    <TTGlyph name="noonringfinal" xMin="142" yMin="226" xMax="842" yMax="1588">
      <contour>
        <pt x="142" y="226" on="1"/>
        <pt x="142" y="1588" on="1"/>
        <pt x="842" y="1588" on="1"/>
        <pt x="842" y="226" on="1"/>
      </contour>
      <contour>
        <pt x="284" y="368" on="1"/>
        <pt x="700" y="368" on="1"/>
        <pt x="700" y="1447" on="1"/>
        <pt x="284" y="1447" on="1"/>
      </contour>
    </TTGlyph>
    <TTGlyph name="noonringinitial" xMin="142" yMin="226" xMax="842" yMax="1588">
      <contour>
        <pt x="142" y="226" on="1"/>
        <pt x="142" y="1588" on="1"/>
        <pt x="842" y="1588" on="1"/>
        <pt x="842" y="226" on="1"/>
      </contour>
      <contour>
        <pt x="284" y="368" on="1"/>
        <pt x="700" y="368" on="1"/>
        <pt x="700" y="1447" on="1"/>
        <pt x="284" y="1447" on="1"/>
      </contour>
    </TTGlyph>
    <TTGlyph name="noonringmedial" xMin="142" yMin="226" xMax="842" yMax="1588">
      <contour>
        <pt x="142" y="226" on="1"/>
        <pt x="142" y="1588" on="1"/>
        <pt x="842" y="1588" on="1"/>
        <pt x="842" y="226" on="1"/>
      </contour>
      <contour>
        <pt x="284" y="368" on="1"/>
        <pt x="700" y="368" on="1"/>
        <pt x="700" y="1447" on="1"/>
        <pt x="284" y="1447" on="1"/>
      </contour>
    </TTGlyph>
    <TTGlyph name="numbersign" xMin="142" yMin="226" xMax="842" yMax="1588">
      <contour>
        <pt x="142" y="226" on="1"/>
        <pt x="142" y="1588" on="1"/>
        <pt x="842" y="1588" on="1"/>
        <pt x="842" y="226" on="1"/>
      </contour>
      <contour>
        <pt x="284" y="368" on="1"/>
        <pt x="700" y="368" on="1"/>
        <pt x="700" y="1447" on="1"/>
        <pt x="284" y="1447" on="1"/>
      </contour>
    </TTGlyph>
    <TTGlyph name="parenleft" xMin="142" yMin="226" xMax="842" yMax="1588">
      <contour>
        <pt x="142" y="226" on="1"/>
        <pt x="142" y="1588" on="1"/>
        <pt x="842" y="1588" on="1"/>
        <pt x="842" y="226" on="1"/>
      </contour>
      <contour>
        <pt x="284" y="368" on="1"/>
        <pt x="700" y="368" on="1"/>
        <pt x="700" y="1447" on="1"/>
        <pt x="284" y="1447" on="1"/>
      </contour>
    </TTGlyph>
    <TTGlyph name="parenright" xMin="142" yMin="226" xMax="842" yMax="1588">
      <contour>
        <pt x="142" y="226" on="1"/>
        <pt x="142" y="1588" on="1"/>
        <pt x="842" y="1588" on="1"/>
        <pt x="842" y="226" on="1"/>
      </contour>
      <contour>
        <pt x="284" y="368" on="1"/>
        <pt x="700" y="368" on="1"/>
        <pt x="700" y="1447" on="1"/>
        <pt x="284" y="1447" on="1"/>
      </contour>
    </TTGlyph>
    <TTGlyph name="pashtoefinal" xMin="142" yMin="226" xMax="842" yMax="1588">
      <contour>
        <pt x="142" y="226" on="1"/>
        <pt x="142" y="1588" on="1"/>
        <pt x="842" y="1588" on="1"/>
        <pt x="842" y="226" on="1"/>
      </contour>
      <contour>
        <pt x="284" y="368" on="1"/>
        <pt x="700" y="368" on="1"/>
        <pt x="700" y="1447" on="1"/>
        <pt x="284" y="1447" on="1"/>
      </contour>
    </TTGlyph>
    <TTGlyph name="pashtoeinitial" xMin="142" yMin="226" xMax="842" yMax="1588">
      <contour>
        <pt x="142" y="226" on="1"/>
        <pt x="142" y="1588" on="1"/>
        <pt x="842" y="1588" on="1"/>
        <pt x="842" y="226" on="1"/>
      </contour>
      <contour>
        <pt x="284" y="368" on="1"/>
        <pt x="700" y="368" on="1"/>
        <pt x="700" y="1447" on="1"/>
        <pt x="284" y="1447" on="1"/>
      </contour>
    </TTGlyph>
    <TTGlyph name="pashtoemedial" xMin="142" yMin="226" xMax="842" yMax="1588">
      <contour>
        <pt x="142" y="226" on="1"/>
        <pt x="142" y="1588" on="1"/>
        <pt x="842" y="1588" on="1"/>
        <pt x="842" y="226" on="1"/>
      </contour>
      <contour>
        <pt x="284" y="368" on="1"/>
        <pt x="700" y="368" on="1"/>
        <pt x="700" y="1447" on="1"/>
        <pt x="284" y="1447" on="1"/>
      </contour>
    </TTGlyph>
    <TTGlyph name="pehfinalarabic" xMin="142" yMin="226" xMax="842" yMax="1588">
      <contour>
        <pt x="142" y="226" on="1"/>
        <pt x="142" y="1588" on="1"/>
        <pt x="842" y="1588" on="1"/>
        <pt x="842" y="226" on="1"/>
      </contour>
      <contour>
        <pt x="284" y="368" on="1"/>
        <pt x="700" y="368" on="1"/>
        <pt x="700" y="1447" on="1"/>
        <pt x="284" y="1447" on="1"/>
      </contour>
    </TTGlyph>
    <TTGlyph name="pehinitialarabic" xMin="142" yMin="226" xMax="842" yMax="1588">
      <contour>
        <pt x="142" y="226" on="1"/>
        <pt x="142" y="1588" on="1"/>
        <pt x="842" y="1588" on="1"/>
        <pt x="842" y="226" on="1"/>
      </contour>
      <contour>
        <pt x="284" y="368" on="1"/>
        <pt x="700" y="368" on="1"/>
        <pt x="700" y="1447" on="1"/>
        <pt x="284" y="1447" on="1"/>
      </contour>
    </TTGlyph>
    <TTGlyph name="pehmedialarabic" xMin="142" yMin="226" xMax="842" yMax="1588">
      <contour>
        <pt x="142" y="226" on="1"/>
        <pt x="142" y="1588" on="1"/>
        <pt x="842" y="1588" on="1"/>
        <pt x="842" y="226" on="1"/>
      </contour>
      <contour>
        <pt x="284" y="368" on="1"/>
        <pt x="700" y="368" on="1"/>
        <pt x="700" y="1447" on="1"/>
        <pt x="284" y="1447" on="1"/>
      </contour>
    </TTGlyph>
    <TTGlyph name="percent" xMin="142" yMin="226" xMax="842" yMax="1588">
      <contour>
        <pt x="142" y="226" on="1"/>
        <pt x="142" y="1588" on="1"/>
        <pt x="842" y="1588" on="1"/>
        <pt x="842" y="226" on="1"/>
      </contour>
      <contour>
        <pt x="284" y="368" on="1"/>
        <pt x="700" y="368" on="1"/>
        <pt x="700" y="1447" on="1"/>
        <pt x="284" y="1447" on="1"/>
      </contour>
    </TTGlyph>
    <TTGlyph name="period" xMin="142" yMin="226" xMax="842" yMax="1588">
      <contour>
        <pt x="142" y="226" on="1"/>
        <pt x="142" y="1588" on="1"/>
        <pt x="842" y="1588" on="1"/>
        <pt x="842" y="226" on="1"/>
      </contour>
      <contour>
        <pt x="284" y="368" on="1"/>
        <pt x="700" y="368" on="1"/>
        <pt x="700" y="1447" on="1"/>
        <pt x="284" y="1447" on="1"/>
      </contour>
    </TTGlyph>
    <TTGlyph name="plus" xMin="142" yMin="226" xMax="842" yMax="1588">
      <contour>
        <pt x="142" y="226" on="1"/>
        <pt x="142" y="1588" on="1"/>
        <pt x="842" y="1588" on="1"/>
        <pt x="842" y="226" on="1"/>
      </contour>
      <contour>
        <pt x="284" y="368" on="1"/>
        <pt x="700" y="368" on="1"/>
        <pt x="700" y="1447" on="1"/>
        <pt x="284" y="1447" on="1"/>
      </contour>
    </TTGlyph>
    <TTGlyph name="quotedbl" xMin="142" yMin="226" xMax="842" yMax="1588">
      <contour>
        <pt x="142" y="226" on="1"/>
        <pt x="142" y="1588" on="1"/>
        <pt x="842" y="1588" on="1"/>
        <pt x="842" y="226" on="1"/>
      </contour>
      <contour>
        <pt x="284" y="368" on="1"/>
        <pt x="700" y="368" on="1"/>
        <pt x="700" y="1447" on="1"/>
        <pt x="284" y="1447" on="1"/>
      </contour>
    </TTGlyph>
    <TTGlyph name="quotesingle" xMin="142" yMin="226" xMax="842" yMax="1588">
      <contour>
        <pt x="142" y="226" on="1"/>
        <pt x="142" y="1588" on="1"/>
        <pt x="842" y="1588" on="1"/>
        <pt x="842" y="226" on="1"/>
      </contour>
      <contour>
        <pt x="284" y="368" on="1"/>
        <pt x="700" y="368" on="1"/>
        <pt x="700" y="1447" on="1"/>
        <pt x="284" y="1447" on="1"/>
      </contour>
    </TTGlyph>
    <TTGlyph name="rehdotbelowdotabovefinal" xMin="142" yMin="226" xMax="842" yMax="1588">
      <contour>
        <pt x="142" y="226" on="1"/>
        <pt x="142" y="1588" on="1"/>
        <pt x="842" y="1588" on="1"/>
        <pt x="842" y="226" on="1"/>
      </contour>
      <contour>
        <pt x="284" y="368" on="1"/>
        <pt x="700" y="368" on="1"/>
        <pt x="700" y="1447" on="1"/>
        <pt x="284" y="1447" on="1"/>
      </contour>
    </TTGlyph>
    <TTGlyph name="rehringfinal" xMin="142" yMin="226" xMax="842" yMax="1588">
      <contour>
        <pt x="142" y="226" on="1"/>
        <pt x="142" y="1588" on="1"/>
        <pt x="842" y="1588" on="1"/>
        <pt x="842" y="226" on="1"/>
      </contour>
      <contour>
        <pt x="284" y="368" on="1"/>
        <pt x="700" y="368" on="1"/>
        <pt x="700" y="1447" on="1"/>
        <pt x="284" y="1447" on="1"/>
      </contour>
    </TTGlyph>
    <TTGlyph name="rrehfinalarabic" xMin="142" yMin="226" xMax="842" yMax="1588">
      <contour>
        <pt x="142" y="226" on="1"/>
        <pt x="142" y="1588" on="1"/>
        <pt x="842" y="1588" on="1"/>
        <pt x="842" y="226" on="1"/>
      </contour>
      <contour>
        <pt x="284" y="368" on="1"/>
        <pt x="700" y="368" on="1"/>
        <pt x="700" y="1447" on="1"/>
        <pt x="284" y="1447" on="1"/>
      </contour>
    </TTGlyph>
    <TTGlyph name="seendotbelowdotabovefinal" xMin="142" yMin="226" xMax="842" yMax="1588">
      <contour>
        <pt x="142" y="226" on="1"/>
        <pt x="142" y="1588" on="1"/>
        <pt x="842" y="1588" on="1"/>
        <pt x="842" y="226" on="1"/>
      </contour>
      <contour>
        <pt x="284" y="368" on="1"/>
        <pt x="700" y="368" on="1"/>
        <pt x="700" y="1447" on="1"/>
        <pt x="284" y="1447" on="1"/>
      </contour>
    </TTGlyph>
    <TTGlyph name="seendotbelowdotaboveinitial" xMin="142" yMin="226" xMax="842" yMax="1588">
      <contour>
        <pt x="142" y="226" on="1"/>
        <pt x="142" y="1588" on="1"/>
        <pt x="842" y="1588" on="1"/>
        <pt x="842" y="226" on="1"/>
      </contour>
      <contour>
        <pt x="284" y="368" on="1"/>
        <pt x="700" y="368" on="1"/>
        <pt x="700" y="1447" on="1"/>
        <pt x="284" y="1447" on="1"/>
      </contour>
    </TTGlyph>
    <TTGlyph name="seendotbelowdotabovemedial" xMin="142" yMin="226" xMax="842" yMax="1588">
      <contour>
        <pt x="142" y="226" on="1"/>
        <pt x="142" y="1588" on="1"/>
        <pt x="842" y="1588" on="1"/>
        <pt x="842" y="226" on="1"/>
      </contour>
      <contour>
        <pt x="284" y="368" on="1"/>
        <pt x="700" y="368" on="1"/>
        <pt x="700" y="1447" on="1"/>
        <pt x="284" y="1447" on="1"/>
      </contour>
    </TTGlyph>
    <TTGlyph name="shaddadammaarabic" xMin="142" yMin="226" xMax="842" yMax="1588">
      <contour>
        <pt x="142" y="226" on="1"/>
        <pt x="142" y="1588" on="1"/>
        <pt x="842" y="1588" on="1"/>
        <pt x="842" y="226" on="1"/>
      </contour>
      <contour>
        <pt x="284" y="368" on="1"/>
        <pt x="700" y="368" on="1"/>
        <pt x="700" y="1447" on="1"/>
        <pt x="284" y="1447" on="1"/>
      </contour>
    </TTGlyph>
    <TTGlyph name="shaddadammatanarabic" xMin="142" yMin="226" xMax="842" yMax="1588">
      <contour>
        <pt x="142" y="226" on="1"/>
        <pt x="142" y="1588" on="1"/>
        <pt x="842" y="1588" on="1"/>
        <pt x="842" y="226" on="1"/>
      </contour>
      <contour>
        <pt x="284" y="368" on="1"/>
        <pt x="700" y="368" on="1"/>
        <pt x="700" y="1447" on="1"/>
        <pt x="284" y="1447" on="1"/>
      </contour>
    </TTGlyph>
    <TTGlyph name="shaddafathaarabic" xMin="142" yMin="226" xMax="842" yMax="1588">
      <contour>
        <pt x="142" y="226" on="1"/>
        <pt x="142" y="1588" on="1"/>
        <pt x="842" y="1588" on="1"/>
        <pt x="842" y="226" on="1"/>
      </contour>
      <contour>
        <pt x="284" y="368" on="1"/>
        <pt x="700" y="368" on="1"/>
        <pt x="700" y="1447" on="1"/>
        <pt x="284" y="1447" on="1"/>
      </contour>
    </TTGlyph>
    <TTGlyph name="shaddakasraarabic" xMin="142" yMin="226" xMax="842" yMax="1588">
      <contour>
        <pt x="142" y="226" on="1"/>
        <pt x="142" y="1588" on="1"/>
        <pt x="842" y="1588" on="1"/>
        <pt x="842" y="226" on="1"/>
      </contour>
      <contour>
        <pt x="284" y="368" on="1"/>
        <pt x="700" y="368" on="1"/>
        <pt x="700" y="1447" on="1"/>
        <pt x="284" y="1447" on="1"/>
      </contour>
    </TTGlyph>
    <TTGlyph name="shaddakasratanarabic" xMin="142" yMin="226" xMax="842" yMax="1588">
      <contour>
        <pt x="142" y="226" on="1"/>
        <pt x="142" y="1588" on="1"/>
        <pt x="842" y="1588" on="1"/>
        <pt x="842" y="226" on="1"/>
      </contour>
      <contour>
        <pt x="284" y="368" on="1"/>
        <pt x="700" y="368" on="1"/>
        <pt x="700" y="1447" on="1"/>
        <pt x="284" y="1447" on="1"/>
      </contour>
    </TTGlyph>
    <TTGlyph name="slash" xMin="142" yMin="226" xMax="842" yMax="1588">
      <contour>
        <pt x="142" y="226" on="1"/>
        <pt x="142" y="1588" on="1"/>
        <pt x="842" y="1588" on="1"/>
        <pt x="842" y="226" on="1"/>
      </contour>
      <contour>
        <pt x="284" y="368" on="1"/>
        <pt x="700" y="368" on="1"/>
        <pt x="700" y="1447" on="1"/>
        <pt x="284" y="1447" on="1"/>
      </contour>
    </TTGlyph>
    <TTGlyph name="space" xMin="142" yMin="226" xMax="842" yMax="1588">
      <contour>
        <pt x="142" y="226" on="1"/>
        <pt x="142" y="1588" on="1"/>
        <pt x="842" y="1588" on="1"/>
        <pt x="842" y="226" on="1"/>
      </contour>
      <contour>
        <pt x="284" y="368" on="1"/>
        <pt x="700" y="368" on="1"/>
        <pt x="700" y="1447" on="1"/>
        <pt x="284" y="1447" on="1"/>
      </contour>
    </TTGlyph>
    <TTGlyph name="tchehfinalarabic" xMin="142" yMin="226" xMax="842" yMax="1588">
      <contour>
        <pt x="142" y="226" on="1"/>
        <pt x="142" y="1588" on="1"/>
        <pt x="842" y="1588" on="1"/>
        <pt x="842" y="226" on="1"/>
      </contour>
      <contour>
        <pt x="284" y="368" on="1"/>
        <pt x="700" y="368" on="1"/>
        <pt x="700" y="1447" on="1"/>
        <pt x="284" y="1447" on="1"/>
      </contour>
    </TTGlyph>
    <TTGlyph name="tchehinitialarabic" xMin="142" yMin="226" xMax="842" yMax="1588">
      <contour>
        <pt x="142" y="226" on="1"/>
        <pt x="142" y="1588" on="1"/>
        <pt x="842" y="1588" on="1"/>
        <pt x="842" y="226" on="1"/>
      </contour>
      <contour>
        <pt x="284" y="368" on="1"/>
        <pt x="700" y="368" on="1"/>
        <pt x="700" y="1447" on="1"/>
        <pt x="284" y="1447" on="1"/>
      </contour>
    </TTGlyph>
    <TTGlyph name="tchehmedialarabic" xMin="142" yMin="226" xMax="842" yMax="1588">
      <contour>
        <pt x="142" y="226" on="1"/>
        <pt x="142" y="1588" on="1"/>
        <pt x="842" y="1588" on="1"/>
        <pt x="842" y="226" on="1"/>
      </contour>
      <contour>
        <pt x="284" y="368" on="1"/>
        <pt x="700" y="368" on="1"/>
        <pt x="700" y="1447" on="1"/>
        <pt x="284" y="1447" on="1"/>
      </contour>
    </TTGlyph>
    <TTGlyph name="tehhahisolatedarabic" xMin="142" yMin="226" xMax="842" yMax="1588">
      <contour>
        <pt x="142" y="226" on="1"/>
        <pt x="142" y="1588" on="1"/>
        <pt x="842" y="1588" on="1"/>
        <pt x="842" y="226" on="1"/>
      </contour>
      <contour>
        <pt x="284" y="368" on="1"/>
        <pt x="700" y="368" on="1"/>
        <pt x="700" y="1447" on="1"/>
        <pt x="284" y="1447" on="1"/>
      </contour>
    </TTGlyph>
    <TTGlyph name="tehjeemisolatedarabic" xMin="142" yMin="226" xMax="842" yMax="1588">
      <contour>
        <pt x="142" y="226" on="1"/>
        <pt x="142" y="1588" on="1"/>
        <pt x="842" y="1588" on="1"/>
        <pt x="842" y="226" on="1"/>
      </contour>
      <contour>
        <pt x="284" y="368" on="1"/>
        <pt x="700" y="368" on="1"/>
        <pt x="700" y="1447" on="1"/>
        <pt x="284" y="1447" on="1"/>
      </contour>
    </TTGlyph>
    <TTGlyph name="tehmeemisolatedarabic" xMin="142" yMin="226" xMax="842" yMax="1588">
      <contour>
        <pt x="142" y="226" on="1"/>
        <pt x="142" y="1588" on="1"/>
        <pt x="842" y="1588" on="1"/>
        <pt x="842" y="226" on="1"/>
      </contour>
      <contour>
        <pt x="284" y="368" on="1"/>
        <pt x="700" y="368" on="1"/>
        <pt x="700" y="1447" on="1"/>
        <pt x="284" y="1447" on="1"/>
      </contour>
    </TTGlyph>
    <TTGlyph name="tehnoonfinalarabic" xMin="142" yMin="226" xMax="842" yMax="1588">
      <contour>
        <pt x="142" y="226" on="1"/>
        <pt x="142" y="1588" on="1"/>
        <pt x="842" y="1588" on="1"/>
        <pt x="842" y="226" on="1"/>
      </contour>
      <contour>
        <pt x="284" y="368" on="1"/>
        <pt x="700" y="368" on="1"/>
        <pt x="700" y="1447" on="1"/>
        <pt x="284" y="1447" on="1"/>
      </contour>
    </TTGlyph>
    <TTGlyph name="tehringfinal" xMin="142" yMin="226" xMax="842" yMax="1588">
      <contour>
        <pt x="142" y="226" on="1"/>
        <pt x="142" y="1588" on="1"/>
        <pt x="842" y="1588" on="1"/>
        <pt x="842" y="226" on="1"/>
      </contour>
      <contour>
        <pt x="284" y="368" on="1"/>
        <pt x="700" y="368" on="1"/>
        <pt x="700" y="1447" on="1"/>
        <pt x="284" y="1447" on="1"/>
      </contour>
    </TTGlyph>
    <TTGlyph name="tehringinitial" xMin="142" yMin="226" xMax="842" yMax="1588">
      <contour>
        <pt x="142" y="226" on="1"/>
        <pt x="142" y="1588" on="1"/>
        <pt x="842" y="1588" on="1"/>
        <pt x="842" y="226" on="1"/>
      </contour>
      <contour>
        <pt x="284" y="368" on="1"/>
        <pt x="700" y="368" on="1"/>
        <pt x="700" y="1447" on="1"/>
        <pt x="284" y="1447" on="1"/>
      </contour>
    </TTGlyph>
    <TTGlyph name="tehringmedial" xMin="142" yMin="226" xMax="842" yMax="1588">
      <contour>
        <pt x="142" y="226" on="1"/>
        <pt x="142" y="1588" on="1"/>
        <pt x="842" y="1588" on="1"/>
        <pt x="842" y="226" on="1"/>
      </contour>
      <contour>
        <pt x="284" y="368" on="1"/>
        <pt x="700" y="368" on="1"/>
        <pt x="700" y="1447" on="1"/>
        <pt x="284" y="1447" on="1"/>
      </contour>
    </TTGlyph>
    <TTGlyph name="ttehfinalarabic" xMin="142" yMin="226" xMax="842" yMax="1588">
      <contour>
        <pt x="142" y="226" on="1"/>
        <pt x="142" y="1588" on="1"/>
        <pt x="842" y="1588" on="1"/>
        <pt x="842" y="226" on="1"/>
      </contour>
      <contour>
        <pt x="284" y="368" on="1"/>
        <pt x="700" y="368" on="1"/>
        <pt x="700" y="1447" on="1"/>
        <pt x="284" y="1447" on="1"/>
      </contour>
    </TTGlyph>
    <TTGlyph name="ttehinitialarabic" xMin="142" yMin="226" xMax="842" yMax="1588">
      <contour>
        <pt x="142" y="226" on="1"/>
        <pt x="142" y="1588" on="1"/>
        <pt x="842" y="1588" on="1"/>
        <pt x="842" y="226" on="1"/>
      </contour>
      <contour>
        <pt x="284" y="368" on="1"/>
        <pt x="700" y="368" on="1"/>
        <pt x="700" y="1447" on="1"/>
        <pt x="284" y="1447" on="1"/>
      </contour>
    </TTGlyph>
    <TTGlyph name="ttehmedialarabic" xMin="142" yMin="226" xMax="842" yMax="1588">
      <contour>
        <pt x="142" y="226" on="1"/>
        <pt x="142" y="1588" on="1"/>
        <pt x="842" y="1588" on="1"/>
        <pt x="842" y="226" on="1"/>
      </contour>
      <contour>
        <pt x="284" y="368" on="1"/>
        <pt x="700" y="368" on="1"/>
        <pt x="700" y="1447" on="1"/>
        <pt x="284" y="1447" on="1"/>
      </contour>
    </TTGlyph>
    <TTGlyph name="uni000D" xMin="142" yMin="226" xMax="842" yMax="1588">
      <contour>
        <pt x="142" y="226" on="1"/>
        <pt x="142" y="1588" on="1"/>
        <pt x="842" y="1588" on="1"/>
        <pt x="842" y="226" on="1"/>
      </contour>
      <contour>
        <pt x="284" y="368" on="1"/>
        <pt x="700" y="368" on="1"/>
        <pt x="700" y="1447" on="1"/>
        <pt x="284" y="1447" on="1"/>
      </contour>
    </TTGlyph>
    <TTGlyph name="uni00A0" xMin="142" yMin="226" xMax="842" yMax="1588">
      <contour>
        <pt x="142" y="226" on="1"/>
        <pt x="142" y="1588" on="1"/>
        <pt x="842" y="1588" on="1"/>
        <pt x="842" y="226" on="1"/>
      </contour>
      <contour>
        <pt x="284" y="368" on="1"/>
        <pt x="700" y="368" on="1"/>
        <pt x="700" y="1447" on="1"/>
        <pt x="284" y="1447" on="1"/>
      </contour>
    </TTGlyph>
    <TTGlyph name="uni00AD" xMin="142" yMin="226" xMax="842" yMax="1588">
      <contour>
        <pt x="142" y="226" on="1"/>
        <pt x="142" y="1588" on="1"/>
        <pt x="842" y="1588" on="1"/>
        <pt x="842" y="226" on="1"/>
      </contour>
      <contour>
        <pt x="284" y="368" on="1"/>
        <pt x="700" y="368" on="1"/>
        <pt x="700" y="1447" on="1"/>
        <pt x="284" y="1447" on="1"/>
      </contour>
    </TTGlyph>
    <TTGlyph name="uni0653" xMin="142" yMin="226" xMax="842" yMax="1588">
      <contour>
        <pt x="142" y="226" on="1"/>
        <pt x="142" y="1588" on="1"/>
        <pt x="842" y="1588" on="1"/>
        <pt x="842" y="226" on="1"/>
      </contour>
      <contour>
        <pt x="284" y="368" on="1"/>
        <pt x="700" y="368" on="1"/>
        <pt x="700" y="1447" on="1"/>
        <pt x="284" y="1447" on="1"/>
      </contour>
    </TTGlyph>
    <TTGlyph name="uni0654" xMin="142" yMin="226" xMax="842" yMax="1588">
      <contour>
        <pt x="142" y="226" on="1"/>
        <pt x="142" y="1588" on="1"/>
        <pt x="842" y="1588" on="1"/>
        <pt x="842" y="226" on="1"/>
      </contour>
      <contour>
        <pt x="284" y="368" on="1"/>
        <pt x="700" y="368" on="1"/>
        <pt x="700" y="1447" on="1"/>
        <pt x="284" y="1447" on="1"/>
      </contour>
    </TTGlyph>
    <TTGlyph name="uni0655" xMin="142" yMin="226" xMax="842" yMax="1588">
      <contour>
        <pt x="142" y="226" on="1"/>
        <pt x="142" y="1588" on="1"/>
        <pt x="842" y="1588" on="1"/>
        <pt x="842" y="226" on="1"/>
      </contour>
      <contour>
        <pt x="284" y="368" on="1"/>
        <pt x="700" y="368" on="1"/>
        <pt x="700" y="1447" on="1"/>
        <pt x="284" y="1447" on="1"/>
      </contour>
    </TTGlyph>
    <TTGlyph name="uni066B" xMin="142" yMin="226" xMax="842" yMax="1588">
      <contour>
        <pt x="142" y="226" on="1"/>
        <pt x="142" y="1588" on="1"/>
        <pt x="842" y="1588" on="1"/>
        <pt x="842" y="226" on="1"/>
      </contour>
      <contour>
        <pt x="284" y="368" on="1"/>
        <pt x="700" y="368" on="1"/>
        <pt x="700" y="1447" on="1"/>
        <pt x="284" y="1447" on="1"/>
      </contour>
    </TTGlyph>
    <TTGlyph name="uni066C" xMin="142" yMin="226" xMax="842" yMax="1588">
      <contour>
        <pt x="142" y="226" on="1"/>
        <pt x="142" y="1588" on="1"/>
        <pt x="842" y="1588" on="1"/>
        <pt x="842" y="226" on="1"/>
      </contour>
      <contour>
        <pt x="284" y="368" on="1"/>
        <pt x="700" y="368" on="1"/>
        <pt x="700" y="1447" on="1"/>
        <pt x="284" y="1447" on="1"/>
      </contour>
    </TTGlyph>
    <TTGlyph name="uni0671" xMin="142" yMin="226" xMax="842" yMax="1588">
      <contour>
        <pt x="142" y="226" on="1"/>
        <pt x="142" y="1588" on="1"/>
        <pt x="842" y="1588" on="1"/>
        <pt x="842" y="226" on="1"/>
      </contour>
      <contour>
        <pt x="284" y="368" on="1"/>
        <pt x="700" y="368" on="1"/>
        <pt x="700" y="1447" on="1"/>
        <pt x="284" y="1447" on="1"/>
      </contour>
    </TTGlyph>
    <TTGlyph name="uni067C" xMin="142" yMin="226" xMax="842" yMax="1588">
      <contour>
        <pt x="142" y="226" on="1"/>
        <pt x="142" y="1588" on="1"/>
        <pt x="842" y="1588" on="1"/>
        <pt x="842" y="226" on="1"/>
      </contour>
      <contour>
        <pt x="284" y="368" on="1"/>
        <pt x="700" y="368" on="1"/>
        <pt x="700" y="1447" on="1"/>
        <pt x="284" y="1447" on="1"/>
      </contour>
    </TTGlyph>
    <TTGlyph name="uni0681" xMin="142" yMin="226" xMax="842" yMax="1588">
      <contour>
        <pt x="142" y="226" on="1"/>
        <pt x="142" y="1588" on="1"/>
        <pt x="842" y="1588" on="1"/>
        <pt x="842" y="226" on="1"/>
      </contour>
      <contour>
        <pt x="284" y="368" on="1"/>
        <pt x="700" y="368" on="1"/>
        <pt x="700" y="1447" on="1"/>
        <pt x="284" y="1447" on="1"/>
      </contour>
    </TTGlyph>
    <TTGlyph name="uni0685" xMin="142" yMin="226" xMax="842" yMax="1588">
      <contour>
        <pt x="142" y="226" on="1"/>
        <pt x="142" y="1588" on="1"/>
        <pt x="842" y="1588" on="1"/>
        <pt x="842" y="226" on="1"/>
      </contour>
      <contour>
        <pt x="284" y="368" on="1"/>
        <pt x="700" y="368" on="1"/>
        <pt x="700" y="1447" on="1"/>
        <pt x="284" y="1447" on="1"/>
      </contour>
    </TTGlyph>
    <TTGlyph name="uni0689" xMin="142" yMin="226" xMax="842" yMax="1588">
      <contour>
        <pt x="142" y="226" on="1"/>
        <pt x="142" y="1588" on="1"/>
        <pt x="842" y="1588" on="1"/>
        <pt x="842" y="226" on="1"/>
      </contour>
      <contour>
        <pt x="284" y="368" on="1"/>
        <pt x="700" y="368" on="1"/>
        <pt x="700" y="1447" on="1"/>
        <pt x="284" y="1447" on="1"/>
      </contour>
    </TTGlyph>
    <TTGlyph name="uni0693" xMin="142" yMin="226" xMax="842" yMax="1588">
      <contour>
        <pt x="142" y="226" on="1"/>
        <pt x="142" y="1588" on="1"/>
        <pt x="842" y="1588" on="1"/>
        <pt x="842" y="226" on="1"/>
      </contour>
      <contour>
        <pt x="284" y="368" on="1"/>
        <pt x="700" y="368" on="1"/>
        <pt x="700" y="1447" on="1"/>
        <pt x="284" y="1447" on="1"/>
      </contour>
    </TTGlyph>
    <TTGlyph name="uni0696" xMin="142" yMin="226" xMax="842" yMax="1588">
      <contour>
        <pt x="142" y="226" on="1"/>
        <pt x="142" y="1588" on="1"/>
        <pt x="842" y="1588" on="1"/>
        <pt x="842" y="226" on="1"/>
      </contour>
      <contour>
        <pt x="284" y="368" on="1"/>
        <pt x="700" y="368" on="1"/>
        <pt x="700" y="1447" on="1"/>
        <pt x="284" y="1447" on="1"/>
      </contour>
    </TTGlyph>
    <TTGlyph name="uni069A" xMin="142" yMin="226" xMax="842" yMax="1588">
      <contour>
        <pt x="142" y="226" on="1"/>
        <pt x="142" y="1588" on="1"/>
        <pt x="842" y="1588" on="1"/>
        <pt x="842" y="226" on="1"/>
      </contour>
      <contour>
        <pt x="284" y="368" on="1"/>
        <pt x="700" y="368" on="1"/>
        <pt x="700" y="1447" on="1"/>
        <pt x="284" y="1447" on="1"/>
      </contour>
    </TTGlyph>
    <TTGlyph name="uni06A9" xMin="142" yMin="226" xMax="842" yMax="1588">
      <contour>
        <pt x="142" y="226" on="1"/>
        <pt x="142" y="1588" on="1"/>
        <pt x="842" y="1588" on="1"/>
        <pt x="842" y="226" on="1"/>
      </contour>
      <contour>
        <pt x="284" y="368" on="1"/>
        <pt x="700" y="368" on="1"/>
        <pt x="700" y="1447" on="1"/>
        <pt x="284" y="1447" on="1"/>
      </contour>
    </TTGlyph>
    <TTGlyph name="uni06AB" xMin="142" yMin="226" xMax="842" yMax="1588">
      <contour>
        <pt x="142" y="226" on="1"/>
        <pt x="142" y="1588" on="1"/>
        <pt x="842" y="1588" on="1"/>
        <pt x="842" y="226" on="1"/>
      </contour>
      <contour>
        <pt x="284" y="368" on="1"/>
        <pt x="700" y="368" on="1"/>
        <pt x="700" y="1447" on="1"/>
        <pt x="284" y="1447" on="1"/>
      </contour>
    </TTGlyph>
    <TTGlyph name="uni06B7" xMin="142" yMin="226" xMax="842" yMax="1588">
      <contour>
        <pt x="142" y="226" on="1"/>
        <pt x="142" y="1588" on="1"/>
        <pt x="842" y="1588" on="1"/>
        <pt x="842" y="226" on="1"/>
      </contour>
      <contour>
        <pt x="284" y="368" on="1"/>
        <pt x="700" y="368" on="1"/>
        <pt x="700" y="1447" on="1"/>
        <pt x="284" y="1447" on="1"/>
      </contour>
    </TTGlyph>
    <TTGlyph name="uni06BC" xMin="142" yMin="226" xMax="842" yMax="1588">
      <contour>
        <pt x="142" y="226" on="1"/>
        <pt x="142" y="1588" on="1"/>
        <pt x="842" y="1588" on="1"/>
        <pt x="842" y="226" on="1"/>
      </contour>
      <contour>
        <pt x="284" y="368" on="1"/>
        <pt x="700" y="368" on="1"/>
        <pt x="700" y="1447" on="1"/>
        <pt x="284" y="1447" on="1"/>
      </contour>
    </TTGlyph>
    <TTGlyph name="uni06BE" xMin="142" yMin="226" xMax="842" yMax="1588">
      <contour>
        <pt x="142" y="226" on="1"/>
        <pt x="142" y="1588" on="1"/>
        <pt x="842" y="1588" on="1"/>
        <pt x="842" y="226" on="1"/>
      </contour>
      <contour>
        <pt x="284" y="368" on="1"/>
        <pt x="700" y="368" on="1"/>
        <pt x="700" y="1447" on="1"/>
        <pt x="284" y="1447" on="1"/>
      </contour>
    </TTGlyph>
    <TTGlyph name="uni06C2" xMin="142" yMin="226" xMax="842" yMax="1588">
      <contour>
        <pt x="142" y="226" on="1"/>
        <pt x="142" y="1588" on="1"/>
        <pt x="842" y="1588" on="1"/>
        <pt x="842" y="226" on="1"/>
      </contour>
      <contour>
        <pt x="284" y="368" on="1"/>
        <pt x="700" y="368" on="1"/>
        <pt x="700" y="1447" on="1"/>
        <pt x="284" y="1447" on="1"/>
      </contour>
    </TTGlyph>
    <TTGlyph name="uni06C7" xMin="142" yMin="226" xMax="842" yMax="1588">
      <contour>
        <pt x="142" y="226" on="1"/>
        <pt x="142" y="1588" on="1"/>
        <pt x="842" y="1588" on="1"/>
        <pt x="842" y="226" on="1"/>
      </contour>
      <contour>
        <pt x="284" y="368" on="1"/>
        <pt x="700" y="368" on="1"/>
        <pt x="700" y="1447" on="1"/>
        <pt x="284" y="1447" on="1"/>
      </contour>
    </TTGlyph>
    <TTGlyph name="uni06C9" xMin="142" yMin="226" xMax="842" yMax="1588">
      <contour>
        <pt x="142" y="226" on="1"/>
        <pt x="142" y="1588" on="1"/>
        <pt x="842" y="1588" on="1"/>
        <pt x="842" y="226" on="1"/>
      </contour>
      <contour>
        <pt x="284" y="368" on="1"/>
        <pt x="700" y="368" on="1"/>
        <pt x="700" y="1447" on="1"/>
        <pt x="284" y="1447" on="1"/>
      </contour>
    </TTGlyph>
    <TTGlyph name="uni06CC" xMin="142" yMin="226" xMax="842" yMax="1588">
      <contour>
        <pt x="142" y="226" on="1"/>
        <pt x="142" y="1588" on="1"/>
        <pt x="842" y="1588" on="1"/>
        <pt x="842" y="226" on="1"/>
      </contour>
      <contour>
        <pt x="284" y="368" on="1"/>
        <pt x="700" y="368" on="1"/>
        <pt x="700" y="1447" on="1"/>
        <pt x="284" y="1447" on="1"/>
      </contour>
    </TTGlyph>
    <TTGlyph name="uni06CD" xMin="142" yMin="226" xMax="842" yMax="1588">
      <contour>
        <pt x="142" y="226" on="1"/>
        <pt x="142" y="1588" on="1"/>
        <pt x="842" y="1588" on="1"/>
        <pt x="842" y="226" on="1"/>
      </contour>
      <contour>
        <pt x="284" y="368" on="1"/>
        <pt x="700" y="368" on="1"/>
        <pt x="700" y="1447" on="1"/>
        <pt x="284" y="1447" on="1"/>
      </contour>
    </TTGlyph>
    <TTGlyph name="uni06D0" xMin="142" yMin="226" xMax="842" yMax="1588">
      <contour>
        <pt x="142" y="226" on="1"/>
        <pt x="142" y="1588" on="1"/>
        <pt x="842" y="1588" on="1"/>
        <pt x="842" y="226" on="1"/>
      </contour>
      <contour>
        <pt x="284" y="368" on="1"/>
        <pt x="700" y="368" on="1"/>
        <pt x="700" y="1447" on="1"/>
        <pt x="284" y="1447" on="1"/>
      </contour>
    </TTGlyph>
    <TTGlyph name="uni06D1" xMin="142" yMin="226" xMax="842" yMax="1588">
      <contour>
        <pt x="142" y="226" on="1"/>
        <pt x="142" y="1588" on="1"/>
        <pt x="842" y="1588" on="1"/>
        <pt x="842" y="226" on="1"/>
      </contour>
      <contour>
        <pt x="284" y="368" on="1"/>
        <pt x="700" y="368" on="1"/>
        <pt x="700" y="1447" on="1"/>
        <pt x="284" y="1447" on="1"/>
      </contour>
    </TTGlyph>
    <TTGlyph name="uni06D3" xMin="142" yMin="226" xMax="842" yMax="1588">
      <contour>
        <pt x="142" y="226" on="1"/>
        <pt x="142" y="1588" on="1"/>
        <pt x="842" y="1588" on="1"/>
        <pt x="842" y="226" on="1"/>
      </contour>
      <contour>
        <pt x="284" y="368" on="1"/>
        <pt x="700" y="368" on="1"/>
        <pt x="700" y="1447" on="1"/>
        <pt x="284" y="1447" on="1"/>
      </contour>
    </TTGlyph>
    <TTGlyph name="uni06D4" xMin="142" yMin="226" xMax="842" yMax="1588">
      <contour>
        <pt x="142" y="226" on="1"/>
        <pt x="142" y="1588" on="1"/>
        <pt x="842" y="1588" on="1"/>
        <pt x="842" y="226" on="1"/>
      </contour>
      <contour>
        <pt x="284" y="368" on="1"/>
        <pt x="700" y="368" on="1"/>
        <pt x="700" y="1447" on="1"/>
        <pt x="284" y="1447" on="1"/>
      </contour>
    </TTGlyph>
    <TTGlyph name="uni06F0" xMin="142" yMin="226" xMax="842" yMax="1588">
      <contour>
        <pt x="142" y="226" on="1"/>
        <pt x="142" y="1588" on="1"/>
        <pt x="842" y="1588" on="1"/>
        <pt x="842" y="226" on="1"/>
      </contour>
      <contour>
        <pt x="284" y="368" on="1"/>
        <pt x="700" y="368" on="1"/>
        <pt x="700" y="1447" on="1"/>
        <pt x="284" y="1447" on="1"/>
      </contour>
    </TTGlyph>
    <TTGlyph name="uni06F1" xMin="142" yMin="226" xMax="842" yMax="1588">
      <contour>
        <pt x="142" y="226" on="1"/>
        <pt x="142" y="1588" on="1"/>
        <pt x="842" y="1588" on="1"/>
        <pt x="842" y="226" on="1"/>
      </contour>
      <contour>
        <pt x="284" y="368" on="1"/>
        <pt x="700" y="368" on="1"/>
        <pt x="700" y="1447" on="1"/>
        <pt x="284" y="1447" on="1"/>
      </contour>
    </TTGlyph>
    <TTGlyph name="uni06F2" xMin="142" yMin="226" xMax="842" yMax="1588">
      <contour>
        <pt x="142" y="226" on="1"/>
        <pt x="142" y="1588" on="1"/>
        <pt x="842" y="1588" on="1"/>
        <pt x="842" y="226" on="1"/>
      </contour>
      <contour>
        <pt x="284" y="368" on="1"/>
        <pt x="700" y="368" on="1"/>
        <pt x="700" y="1447" on="1"/>
        <pt x="284" y="1447" on="1"/>
      </contour>
    </TTGlyph>
    <TTGlyph name="uni06F3" xMin="142" yMin="226" xMax="842" yMax="1588">
      <contour>
        <pt x="142" y="226" on="1"/>
        <pt x="142" y="1588" on="1"/>
        <pt x="842" y="1588" on="1"/>
        <pt x="842" y="226" on="1"/>
      </contour>
      <contour>
        <pt x="284" y="368" on="1"/>
        <pt x="700" y="368" on="1"/>
        <pt x="700" y="1447" on="1"/>
        <pt x="284" y="1447" on="1"/>
      </contour>
    </TTGlyph>
    <TTGlyph name="uni06F4" xMin="142" yMin="226" xMax="842" yMax="1588">
      <contour>
        <pt x="142" y="226" on="1"/>
        <pt x="142" y="1588" on="1"/>
        <pt x="842" y="1588" on="1"/>
        <pt x="842" y="226" on="1"/>
      </contour>
      <contour>
        <pt x="284" y="368" on="1"/>
        <pt x="700" y="368" on="1"/>
        <pt x="700" y="1447" on="1"/>
        <pt x="284" y="1447" on="1"/>
      </contour>
    </TTGlyph>
    <TTGlyph name="uni06F5" xMin="142" yMin="226" xMax="842" yMax="1588">
      <contour>
        <pt x="142" y="226" on="1"/>
        <pt x="142" y="1588" on="1"/>
        <pt x="842" y="1588" on="1"/>
        <pt x="842" y="226" on="1"/>
      </contour>
      <contour>
        <pt x="284" y="368" on="1"/>
        <pt x="700" y="368" on="1"/>
        <pt x="700" y="1447" on="1"/>
        <pt x="284" y="1447" on="1"/>
      </contour>
    </TTGlyph>
    <TTGlyph name="uni06F6" xMin="142" yMin="226" xMax="842" yMax="1588">
      <contour>
        <pt x="142" y="226" on="1"/>
        <pt x="142" y="1588" on="1"/>
        <pt x="842" y="1588" on="1"/>
        <pt x="842" y="226" on="1"/>
      </contour>
      <contour>
        <pt x="284" y="368" on="1"/>
        <pt x="700" y="368" on="1"/>
        <pt x="700" y="1447" on="1"/>
        <pt x="284" y="1447" on="1"/>
      </contour>
    </TTGlyph>
    <TTGlyph name="uni06F7" xMin="142" yMin="226" xMax="842" yMax="1588">
      <contour>
        <pt x="142" y="226" on="1"/>
        <pt x="142" y="1588" on="1"/>
        <pt x="842" y="1588" on="1"/>
        <pt x="842" y="226" on="1"/>
      </contour>
      <contour>
        <pt x="284" y="368" on="1"/>
        <pt x="700" y="368" on="1"/>
        <pt x="700" y="1447" on="1"/>
        <pt x="284" y="1447" on="1"/>
      </contour>
    </TTGlyph>
    <TTGlyph name="uni06F8" xMin="142" yMin="226" xMax="842" yMax="1588">
      <contour>
        <pt x="142" y="226" on="1"/>
        <pt x="142" y="1588" on="1"/>
        <pt x="842" y="1588" on="1"/>
        <pt x="842" y="226" on="1"/>
      </contour>
      <contour>
        <pt x="284" y="368" on="1"/>
        <pt x="700" y="368" on="1"/>
        <pt x="700" y="1447" on="1"/>
        <pt x="284" y="1447" on="1"/>
      </contour>
    </TTGlyph>
    <TTGlyph name="uni06F9" xMin="142" yMin="226" xMax="842" yMax="1588">
      <contour>
        <pt x="142" y="226" on="1"/>
        <pt x="142" y="1588" on="1"/>
        <pt x="842" y="1588" on="1"/>
        <pt x="842" y="226" on="1"/>
      </contour>
      <contour>
        <pt x="284" y="368" on="1"/>
        <pt x="700" y="368" on="1"/>
        <pt x="700" y="1447" on="1"/>
        <pt x="284" y="1447" on="1"/>
      </contour>
    </TTGlyph>
    <TTGlyph name="uni2010" xMin="127" yMin="-61" xMax="1969" yMax="1577">
      <contour>
        <pt x="1969" y="1464" on="1"/>
        <pt x="1969" y="1380" on="0"/>
        <pt x="1854" y="1295" on="1"/>
        <pt x="1749" y="1218" on="0"/>
        <pt x="1677" y="1218" on="1"/>
        <pt x="1665" y="1218" on="0"/>
        <pt x="1664" y="1223" on="1"/>
        <pt x="1664" y="1223" on="1"/>
        <pt x="1664" y="1229" on="0"/>
        <pt x="1652" y="1229" on="1"/>
        <pt x="1629" y="1229" on="0"/>
        <pt x="1556" y="1158" on="1"/>
        <pt x="1519" y="1158" on="1"/>
        <pt x="1519" y="1202" on="1"/>
        <pt x="1518" y="1220" on="0"/>
        <pt x="1575" y="1316" on="0"/>
        <pt x="1602" y="1336" on="1"/>
        <pt x="1620" y="1342" on="0"/>
        <pt x="1655" y="1353" on="1"/>
        <pt x="1700" y="1369" on="0"/>
        <pt x="1734" y="1445" on="1"/>
        <pt x="1771" y="1526" on="0"/>
        <pt x="1823" y="1556" on="0"/>
        <pt x="1877" y="1556" on="1"/>
        <pt x="1909" y="1556" on="0"/>
        <pt x="1940" y="1523" on="1"/>
        <pt x="1969" y="1491" on="0"/>
      </contour>
      <contour>
        <pt x="1313" y="1536" on="1"/>
        <pt x="1313" y="1495" on="0"/>
        <pt x="878" y="1300" on="1"/>
        <pt x="848" y="1300" on="0"/>
        <pt x="801" y="1347" on="1"/>
        <pt x="851" y="1382" on="0"/>
        <pt x="1041" y="1478" on="1"/>
        <pt x="1237" y="1577" on="0"/>
        <pt x="1262" y="1577" on="1"/>
        <pt x="1313" y="1577" on="0"/>
      </contour>
      <contour>
        <pt x="1805" y="235" on="1"/>
        <pt x="1805" y="222" on="0"/>
        <pt x="1787" y="198" on="1"/>
        <pt x="1783" y="79" on="0"/>
        <pt x="1730" y="21" on="1"/>
        <pt x="1694" y="21" on="1"/>
        <pt x="1695" y="91" on="0"/>
        <pt x="1688" y="229" on="1"/>
        <pt x="1670" y="367" on="0"/>
        <pt x="1612" y="664" on="1"/>
        <pt x="1559" y="936" on="0"/>
        <pt x="1559" y="942" on="1"/>
        <pt x="1559" y="973" on="0"/>
        <pt x="1611" y="1093" on="0"/>
        <pt x="1635" y="1116" on="1"/>
        <pt x="1682" y="1094" on="0"/>
        <pt x="1688" y="1050" on="1"/>
        <pt x="1805" y="215" on="0"/>
      </contour>
      <contour>
        <pt x="1252" y="1223" on="1"/>
        <pt x="1252" y="1087" on="0"/>
        <pt x="1065" y="1021" on="1"/>
        <pt x="1049" y="1007" on="0"/>
        <pt x="1023" y="985" on="1"/>
        <pt x="1016" y="985" on="0"/>
        <pt x="961" y="972" on="0"/>
        <pt x="945" y="972" on="1"/>
        <pt x="873" y="972" on="0"/>
        <pt x="873" y="1044" on="1"/>
        <pt x="873" y="1091" on="0"/>
        <pt x="917" y="1156" on="1"/>
        <pt x="953" y="1156" on="1"/>
        <pt x="978" y="1106" on="0"/>
        <pt x="996" y="1106" on="1"/>
        <pt x="1017" y="1106" on="0"/>
        <pt x="1033" y="1133" on="1"/>
        <pt x="1035" y="1179" on="0"/>
        <pt x="1070" y="1248" on="1"/>
        <pt x="1116" y="1248" on="1"/>
        <pt x="1120" y="1234" on="0"/>
        <pt x="1144" y="1198" on="1"/>
        <pt x="1158" y="1234" on="0"/>
        <pt x="1204" y="1310" on="1"/>
        <pt x="1252" y="1300" on="0"/>
      </contour>
      <contour>
        <pt x="678" y="1013" on="1"/>
        <pt x="678" y="963" on="0"/>
        <pt x="643" y="963" on="1"/>
        <pt x="630" y="963" on="0"/>
        <pt x="553" y="993" on="0"/>
        <pt x="541" y="993" on="1"/>
        <pt x="477" y="934" on="0"/>
        <pt x="417" y="885" on="1"/>
        <pt x="274" y="767" on="0"/>
        <pt x="173" y="718" on="1"/>
        <pt x="127" y="718" on="1"/>
        <pt x="127" y="754" on="1"/>
        <pt x="239" y="846" on="0"/>
        <pt x="443" y="1031" on="1"/>
        <pt x="442" y="1043" on="0"/>
        <pt x="373" y="1086" on="1"/>
        <pt x="369" y="1098" on="0"/>
        <pt x="369" y="1112" on="1"/>
        <pt x="369" y="1185" on="0"/>
        <pt x="419" y="1265" on="1"/>
        <pt x="472" y="1352" on="0"/>
        <pt x="535" y="1352" on="1"/>
        <pt x="605" y="1352" on="0"/>
        <pt x="605" y="1223" on="1"/>
        <pt x="605" y="1198" on="0"/>
        <pt x="601" y="1165" on="1"/>
        <pt x="599" y="1135" on="0"/>
        <pt x="599" y="1133" on="1"/>
        <pt x="624" y="1102" on="0"/>
        <pt x="650" y="1072" on="1"/>
        <pt x="678" y="1035" on="0"/>
      </contour>
      <contour>
        <pt x="1436" y="210" on="1"/>
        <pt x="1436" y="196" on="0"/>
        <pt x="1408" y="111" on="1"/>
        <pt x="1380" y="23" on="0"/>
        <pt x="1369" y="14" on="1"/>
        <pt x="1318" y="-31" on="0"/>
        <pt x="1267" y="-31" on="1"/>
        <pt x="1230" y="-31" on="0"/>
        <pt x="1166" y="-7" on="1"/>
        <pt x="1085" y="21" on="0"/>
        <pt x="1061" y="61" on="1"/>
        <pt x="1040" y="41" on="0"/>
        <pt x="984" y="-6" on="1"/>
        <pt x="911" y="-61" on="0"/>
        <pt x="822" y="-61" on="1"/>
        <pt x="736" y="-61" on="0"/>
        <pt x="698" y="2" on="1"/>
        <pt x="679" y="31" on="0"/>
        <pt x="641" y="164" on="1"/>
        <pt x="545" y="82" on="0"/>
        <pt x="443" y="82" on="1"/>
        <pt x="398" y="82" on="0"/>
        <pt x="343" y="103" on="1"/>
        <pt x="279" y="128" on="0"/>
        <pt x="279" y="159" on="1"/>
        <pt x="279" y="230" on="0"/>
        <pt x="451" y="362" on="1"/>
        <pt x="554" y="436" on="0"/>
        <pt x="656" y="510" on="1"/>
        <pt x="668" y="534" on="0"/>
        <pt x="702" y="593" on="1"/>
        <pt x="738" y="593" on="1"/>
        <pt x="750" y="529" on="0"/>
        <pt x="767" y="405" on="1"/>
        <pt x="760" y="328" on="0"/>
        <pt x="773" y="170" on="1"/>
        <pt x="789" y="102" on="0"/>
        <pt x="868" y="102" on="1"/>
        <pt x="912" y="102" on="0"/>
        <pt x="965" y="134" on="1"/>
        <pt x="1026" y="170" on="0"/>
        <pt x="1026" y="215" on="1"/>
        <pt x="1026" y="228" on="0"/>
        <pt x="965" y="581" on="0"/>
        <pt x="965" y="594" on="1"/>
        <pt x="965" y="655" on="0"/>
        <pt x="970" y="673" on="1"/>
        <pt x="978" y="698" on="0"/>
        <pt x="1019" y="757" on="1"/>
        <pt x="1029" y="757" on="0"/>
        <pt x="1045" y="747" on="1"/>
        <pt x="1063" y="735" on="0"/>
        <pt x="1064" y="723" on="1"/>
        <pt x="1066" y="698" on="0"/>
        <pt x="1081" y="630" on="1"/>
        <pt x="1094" y="569" on="0"/>
        <pt x="1094" y="537" on="1"/>
        <pt x="1094" y="342" on="0"/>
        <pt x="1162" y="192" on="1"/>
        <pt x="1184" y="143" on="0"/>
        <pt x="1262" y="143" on="1"/>
        <pt x="1313" y="143" on="0"/>
        <pt x="1313" y="200" on="1"/>
        <pt x="1313" y="211" on="0"/>
        <pt x="1293" y="255" on="1"/>
        <pt x="1270" y="305" on="0"/>
        <pt x="1265" y="321" on="1"/>
        <pt x="1201" y="552" on="0"/>
        <pt x="1201" y="640" on="1"/>
        <pt x="1201" y="703" on="0"/>
        <pt x="1266" y="768" on="1"/>
        <pt x="1285" y="768" on="0"/>
        <pt x="1299" y="744" on="1"/>
        <pt x="1314" y="667" on="0"/>
        <pt x="1378" y="433" on="1"/>
        <pt x="1436" y="221" on="0"/>
      </contour>
      <contour>
        <pt x="1856" y="1420" on="1"/>
        <pt x="1808" y="1433" on="1"/>
        <pt x="1784" y="1386" on="0"/>
        <pt x="1793" y="1372" on="1"/>
        <pt x="1842" y="1392" on="0"/>
      </contour>
      <contour>
        <pt x="505" y="1176" on="1"/>
        <pt x="505" y="1204" on="0"/>
        <pt x="493" y="1212" on="1"/>
        <pt x="484" y="1216" on="0"/>
        <pt x="466" y="1203" on="1"/>
        <pt x="479" y="1176" on="0"/>
      </contour>
      <contour>
        <pt x="658" y="312" on="1"/>
        <pt x="658" y="344" on="0"/>
        <pt x="634" y="369" on="1"/>
        <pt x="595" y="361" on="0"/>
        <pt x="478" y="279" on="0"/>
        <pt x="465" y="248" on="1"/>
        <pt x="460" y="248" on="0"/>
        <pt x="527" y="236" on="0"/>
        <pt x="583" y="236" on="1"/>
        <pt x="658" y="287" on="0"/>
      </contour>
    </TTGlyph>
    <TTGlyph name="uni2011" xMin="127" yMin="-61" xMax="1969" yMax="1577">
      <contour>
        <pt x="1969" y="1464" on="1"/>
        <pt x="1969" y="1380" on="0"/>
        <pt x="1854" y="1295" on="1"/>
        <pt x="1749" y="1218" on="0"/>
        <pt x="1677" y="1218" on="1"/>
        <pt x="1665" y="1218" on="0"/>
        <pt x="1664" y="1223" on="1"/>
        <pt x="1664" y="1223" on="1"/>
        <pt x="1664" y="1229" on="0"/>
        <pt x="1652" y="1229" on="1"/>
        <pt x="1629" y="1229" on="0"/>
        <pt x="1556" y="1158" on="1"/>
        <pt x="1519" y="1158" on="1"/>
        <pt x="1519" y="1202" on="1"/>
        <pt x="1518" y="1220" on="0"/>
        <pt x="1575" y="1316" on="0"/>
        <pt x="1602" y="1336" on="1"/>
        <pt x="1620" y="1342" on="0"/>
        <pt x="1655" y="1353" on="1"/>
        <pt x="1700" y="1369" on="0"/>
        <pt x="1734" y="1445" on="1"/>
        <pt x="1771" y="1526" on="0"/>
        <pt x="1823" y="1556" on="0"/>
        <pt x="1877" y="1556" on="1"/>
        <pt x="1909" y="1556" on="0"/>
        <pt x="1940" y="1523" on="1"/>
        <pt x="1969" y="1491" on="0"/>
      </contour>
      <contour>
        <pt x="1313" y="1536" on="1"/>
        <pt x="1313" y="1495" on="0"/>
        <pt x="878" y="1300" on="1"/>
        <pt x="848" y="1300" on="0"/>
        <pt x="801" y="1347" on="1"/>
        <pt x="851" y="1382" on="0"/>
        <pt x="1041" y="1478" on="1"/>
        <pt x="1237" y="1577" on="0"/>
        <pt x="1262" y="1577" on="1"/>
        <pt x="1313" y="1577" on="0"/>
      </contour>
      <contour>
        <pt x="1805" y="235" on="1"/>
        <pt x="1805" y="222" on="0"/>
        <pt x="1787" y="198" on="1"/>
        <pt x="1783" y="79" on="0"/>
        <pt x="1730" y="21" on="1"/>
        <pt x="1694" y="21" on="1"/>
        <pt x="1695" y="91" on="0"/>
        <pt x="1688" y="229" on="1"/>
        <pt x="1670" y="367" on="0"/>
        <pt x="1612" y="664" on="1"/>
        <pt x="1559" y="936" on="0"/>
        <pt x="1559" y="942" on="1"/>
        <pt x="1559" y="973" on="0"/>
        <pt x="1611" y="1093" on="0"/>
        <pt x="1635" y="1116" on="1"/>
        <pt x="1682" y="1094" on="0"/>
        <pt x="1688" y="1050" on="1"/>
        <pt x="1805" y="215" on="0"/>
      </contour>
      <contour>
        <pt x="1252" y="1223" on="1"/>
        <pt x="1252" y="1087" on="0"/>
        <pt x="1065" y="1021" on="1"/>
        <pt x="1049" y="1007" on="0"/>
        <pt x="1023" y="985" on="1"/>
        <pt x="1016" y="985" on="0"/>
        <pt x="961" y="972" on="0"/>
        <pt x="945" y="972" on="1"/>
        <pt x="873" y="972" on="0"/>
        <pt x="873" y="1044" on="1"/>
        <pt x="873" y="1091" on="0"/>
        <pt x="917" y="1156" on="1"/>
        <pt x="953" y="1156" on="1"/>
        <pt x="978" y="1106" on="0"/>
        <pt x="996" y="1106" on="1"/>
        <pt x="1017" y="1106" on="0"/>
        <pt x="1033" y="1133" on="1"/>
        <pt x="1035" y="1179" on="0"/>
        <pt x="1070" y="1248" on="1"/>
        <pt x="1116" y="1248" on="1"/>
        <pt x="1120" y="1234" on="0"/>
        <pt x="1144" y="1198" on="1"/>
        <pt x="1158" y="1234" on="0"/>
        <pt x="1204" y="1310" on="1"/>
        <pt x="1252" y="1300" on="0"/>
      </contour>
      <contour>
        <pt x="678" y="1013" on="1"/>
        <pt x="678" y="963" on="0"/>
        <pt x="643" y="963" on="1"/>
        <pt x="630" y="963" on="0"/>
        <pt x="553" y="993" on="0"/>
        <pt x="541" y="993" on="1"/>
        <pt x="477" y="934" on="0"/>
        <pt x="417" y="885" on="1"/>
        <pt x="274" y="767" on="0"/>
        <pt x="173" y="718" on="1"/>
        <pt x="127" y="718" on="1"/>
        <pt x="127" y="754" on="1"/>
        <pt x="239" y="846" on="0"/>
        <pt x="443" y="1031" on="1"/>
        <pt x="442" y="1043" on="0"/>
        <pt x="373" y="1086" on="1"/>
        <pt x="369" y="1098" on="0"/>
        <pt x="369" y="1112" on="1"/>
        <pt x="369" y="1185" on="0"/>
        <pt x="419" y="1265" on="1"/>
        <pt x="472" y="1352" on="0"/>
        <pt x="535" y="1352" on="1"/>
        <pt x="605" y="1352" on="0"/>
        <pt x="605" y="1223" on="1"/>
        <pt x="605" y="1198" on="0"/>
        <pt x="601" y="1165" on="1"/>
        <pt x="599" y="1135" on="0"/>
        <pt x="599" y="1133" on="1"/>
        <pt x="624" y="1102" on="0"/>
        <pt x="650" y="1072" on="1"/>
        <pt x="678" y="1035" on="0"/>
      </contour>
      <contour>
        <pt x="1436" y="210" on="1"/>
        <pt x="1436" y="196" on="0"/>
        <pt x="1408" y="111" on="1"/>
        <pt x="1380" y="23" on="0"/>
        <pt x="1369" y="14" on="1"/>
        <pt x="1318" y="-31" on="0"/>
        <pt x="1267" y="-31" on="1"/>
        <pt x="1230" y="-31" on="0"/>
        <pt x="1166" y="-7" on="1"/>
        <pt x="1085" y="21" on="0"/>
        <pt x="1061" y="61" on="1"/>
        <pt x="1040" y="41" on="0"/>
        <pt x="984" y="-6" on="1"/>
        <pt x="911" y="-61" on="0"/>
        <pt x="822" y="-61" on="1"/>
        <pt x="736" y="-61" on="0"/>
        <pt x="698" y="2" on="1"/>
        <pt x="679" y="31" on="0"/>
        <pt x="641" y="164" on="1"/>
        <pt x="545" y="82" on="0"/>
        <pt x="443" y="82" on="1"/>
        <pt x="398" y="82" on="0"/>
        <pt x="343" y="103" on="1"/>
        <pt x="279" y="128" on="0"/>
        <pt x="279" y="159" on="1"/>
        <pt x="279" y="230" on="0"/>
        <pt x="451" y="362" on="1"/>
        <pt x="554" y="436" on="0"/>
        <pt x="656" y="510" on="1"/>
        <pt x="668" y="534" on="0"/>
        <pt x="702" y="593" on="1"/>
        <pt x="738" y="593" on="1"/>
        <pt x="750" y="529" on="0"/>
        <pt x="767" y="405" on="1"/>
        <pt x="760" y="328" on="0"/>
        <pt x="773" y="170" on="1"/>
        <pt x="789" y="102" on="0"/>
        <pt x="868" y="102" on="1"/>
        <pt x="912" y="102" on="0"/>
        <pt x="965" y="134" on="1"/>
        <pt x="1026" y="170" on="0"/>
        <pt x="1026" y="215" on="1"/>
        <pt x="1026" y="228" on="0"/>
        <pt x="965" y="581" on="0"/>
        <pt x="965" y="594" on="1"/>
        <pt x="965" y="655" on="0"/>
        <pt x="970" y="673" on="1"/>
        <pt x="978" y="698" on="0"/>
        <pt x="1019" y="757" on="1"/>
        <pt x="1029" y="757" on="0"/>
        <pt x="1045" y="747" on="1"/>
        <pt x="1063" y="735" on="0"/>
        <pt x="1064" y="723" on="1"/>
        <pt x="1066" y="698" on="0"/>
        <pt x="1081" y="630" on="1"/>
        <pt x="1094" y="569" on="0"/>
        <pt x="1094" y="537" on="1"/>
        <pt x="1094" y="342" on="0"/>
        <pt x="1162" y="192" on="1"/>
        <pt x="1184" y="143" on="0"/>
        <pt x="1262" y="143" on="1"/>
        <pt x="1313" y="143" on="0"/>
        <pt x="1313" y="200" on="1"/>
        <pt x="1313" y="211" on="0"/>
        <pt x="1293" y="255" on="1"/>
        <pt x="1270" y="305" on="0"/>
        <pt x="1265" y="321" on="1"/>
        <pt x="1201" y="552" on="0"/>
        <pt x="1201" y="640" on="1"/>
        <pt x="1201" y="703" on="0"/>
        <pt x="1266" y="768" on="1"/>
        <pt x="1285" y="768" on="0"/>
        <pt x="1299" y="744" on="1"/>
        <pt x="1314" y="667" on="0"/>
        <pt x="1378" y="433" on="1"/>
        <pt x="1436" y="221" on="0"/>
      </contour>
      <contour>
        <pt x="1856" y="1420" on="1"/>
        <pt x="1808" y="1433" on="1"/>
        <pt x="1784" y="1386" on="0"/>
        <pt x="1793" y="1372" on="1"/>
        <pt x="1842" y="1392" on="0"/>
      </contour>
      <contour>
        <pt x="505" y="1176" on="1"/>
        <pt x="505" y="1204" on="0"/>
        <pt x="493" y="1212" on="1"/>
        <pt x="484" y="1216" on="0"/>
        <pt x="466" y="1203" on="1"/>
        <pt x="479" y="1176" on="0"/>
      </contour>
      <contour>
        <pt x="658" y="312" on="1"/>
        <pt x="658" y="344" on="0"/>
        <pt x="634" y="369" on="1"/>
        <pt x="595" y="361" on="0"/>
        <pt x="478" y="279" on="0"/>
        <pt x="465" y="248" on="1"/>
        <pt x="460" y="248" on="0"/>
        <pt x="527" y="236" on="0"/>
        <pt x="583" y="236" on="1"/>
        <pt x="658" y="287" on="0"/>
      </contour>
    </TTGlyph>
    <TTGlyph name="uniE000" xMin="0" yMin="0" xMax="1330" yMax="1330">
      <contour>
        <pt x="0" y="1330" on="1"/>
        <pt x="1330" y="1330" on="1"/>
        <pt x="1330" y="0" on="1"/>
        <pt x="0" y="0" on="1"/>
      </contour>
    </TTGlyph>
    <TTGlyph name="uniFB51" xMin="8" yMin="-425" xMax="2772" yMax="1620">
      <contour>
        <pt x="2772" y="1166" on="1"/>
        <pt x="2772" y="1114" on="0"/>
        <pt x="2568" y="967" on="1"/>
        <pt x="2443" y="880" on="0"/>
        <pt x="2318" y="793" on="1"/>
        <pt x="2272" y="793" on="1"/>
        <pt x="2260" y="794" on="0"/>
        <pt x="2260" y="818" on="1"/>
        <pt x="2260" y="875" on="0"/>
        <pt x="2285" y="894" on="1"/>
        <pt x="2369" y="957" on="0"/>
        <pt x="2517" y="1050" on="1"/>
        <pt x="2719" y="1176" on="0"/>
        <pt x="2757" y="1202" on="1"/>
        <pt x="2772" y="1187" on="0"/>
      </contour>
      <contour>
        <pt x="2270" y="1473" on="1"/>
        <pt x="2270" y="1411" on="0"/>
        <pt x="1909" y="1239" on="1"/>
        <pt x="1863" y="1218" on="0"/>
        <pt x="1786" y="1162" on="1"/>
        <pt x="1750" y="1162" on="1"/>
        <pt x="1737" y="1175" on="0"/>
        <pt x="1737" y="1202" on="1"/>
        <pt x="1737" y="1264" on="0"/>
        <pt x="1872" y="1334" on="1"/>
        <pt x="1945" y="1366" on="0"/>
        <pt x="2017" y="1398" on="1"/>
        <pt x="2084" y="1439" on="0"/>
        <pt x="2223" y="1509" on="1"/>
        <pt x="2257" y="1509" on="1"/>
        <pt x="2270" y="1495" on="0"/>
      </contour>
      <contour>
        <pt x="2167" y="1094" on="1"/>
        <pt x="2167" y="1023" on="0"/>
        <pt x="2111" y="960" on="1"/>
        <pt x="2048" y="890" on="0"/>
        <pt x="1949" y="871" on="1"/>
        <pt x="1939" y="868" on="0"/>
        <pt x="1883" y="833" on="0"/>
        <pt x="1871" y="833" on="1"/>
        <pt x="1831" y="833" on="0"/>
        <pt x="1807" y="866" on="1"/>
        <pt x="1789" y="891" on="0"/>
        <pt x="1789" y="915" on="1"/>
        <pt x="1789" y="977" on="0"/>
        <pt x="1854" y="1037" on="1"/>
        <pt x="1890" y="1037" on="1"/>
        <pt x="1890" y="1023" on="0"/>
        <pt x="1909" y="986" on="1"/>
        <pt x="1929" y="995" on="0"/>
        <pt x="1996" y="1099" on="1"/>
        <pt x="2032" y="1099" on="1"/>
        <pt x="2037" y="1078" on="0"/>
        <pt x="2052" y="1037" on="1"/>
        <pt x="2078" y="1042" on="0"/>
        <pt x="2113" y="1146" on="0"/>
        <pt x="2154" y="1150" on="1"/>
        <pt x="2167" y="1137" on="0"/>
      </contour>
      <contour>
        <pt x="2720" y="178" on="1"/>
        <pt x="2720" y="70" on="0"/>
        <pt x="2595" y="-90" on="1"/>
        <pt x="2460" y="-262" on="0"/>
        <pt x="2337" y="-262" on="1"/>
        <pt x="2265" y="-262" on="1"/>
        <pt x="2253" y="-262" on="0"/>
        <pt x="2049" y="-218" on="1"/>
        <pt x="2023" y="-212" on="0"/>
        <pt x="1983" y="-154" on="1"/>
        <pt x="1991" y="-140" on="0"/>
        <pt x="2018" y="-122" on="1"/>
        <pt x="2040" y="-125" on="0"/>
        <pt x="2106" y="-138" on="1"/>
        <pt x="2164" y="-149" on="0"/>
        <pt x="2178" y="-149" on="1"/>
        <pt x="2294" y="-149" on="0"/>
        <pt x="2448" y="-44" on="1"/>
        <pt x="2608" y="66" on="0"/>
        <pt x="2608" y="163" on="1"/>
        <pt x="2608" y="174" on="0"/>
        <pt x="2475" y="346" on="0"/>
        <pt x="2475" y="357" on="1"/>
        <pt x="2475" y="464" on="0"/>
        <pt x="2536" y="464" on="1"/>
        <pt x="2618" y="464" on="0"/>
        <pt x="2677" y="329" on="1"/>
        <pt x="2720" y="229" on="0"/>
      </contour>
      <contour>
        <pt x="1563" y="1318" on="1"/>
        <pt x="1564" y="1272" on="0"/>
        <pt x="1322" y="1128" on="1"/>
        <pt x="1175" y="1045" on="0"/>
        <pt x="1029" y="963" on="1"/>
        <pt x="921" y="890" on="0"/>
        <pt x="688" y="751" on="1"/>
        <pt x="673" y="766" on="0"/>
        <pt x="673" y="782" on="1"/>
        <pt x="673" y="807" on="0"/>
        <pt x="704" y="856" on="1"/>
        <pt x="732" y="902" on="0"/>
        <pt x="747" y="911" on="1"/>
        <pt x="950" y="1037" on="0"/>
        <pt x="1154" y="1164" on="1"/>
        <pt x="1465" y="1355" on="0"/>
        <pt x="1509" y="1355" on="1"/>
        <pt x="1563" y="1355" on="1"/>
      </contour>
      <contour>
        <pt x="1554" y="592" on="1"/>
        <pt x="1554" y="565" on="0"/>
        <pt x="1485" y="496" on="0"/>
        <pt x="1461" y="496" on="1"/>
        <pt x="1421" y="496" on="0"/>
        <pt x="1349" y="545" on="0"/>
        <pt x="1349" y="567" on="1"/>
        <pt x="1349" y="596" on="0"/>
        <pt x="1419" y="680" on="0"/>
        <pt x="1446" y="680" on="1"/>
        <pt x="1469" y="680" on="0"/>
        <pt x="1510" y="650" on="1"/>
        <pt x="1554" y="618" on="0"/>
      </contour>
      <contour>
        <pt x="754" y="1575" on="1"/>
        <pt x="754" y="1530" on="0"/>
        <pt x="622" y="1451" on="1"/>
        <pt x="501" y="1380" on="0"/>
        <pt x="444" y="1368" on="1"/>
        <pt x="375" y="1356" on="0"/>
        <pt x="305" y="1356" on="1"/>
        <pt x="291" y="1356" on="0"/>
        <pt x="189" y="1386" on="0"/>
        <pt x="177" y="1386" on="1"/>
        <pt x="164" y="1386" on="0"/>
        <pt x="44" y="1276" on="1"/>
        <pt x="36" y="1276" on="0"/>
        <pt x="8" y="1293" on="1"/>
        <pt x="35" y="1367" on="0"/>
        <pt x="89" y="1438" on="1"/>
        <pt x="153" y="1520" on="0"/>
        <pt x="202" y="1520" on="1"/>
        <pt x="214" y="1520" on="0"/>
        <pt x="358" y="1479" on="0"/>
        <pt x="371" y="1479" on="1"/>
        <pt x="443" y="1479" on="0"/>
        <pt x="549" y="1520" on="1"/>
        <pt x="662" y="1566" on="0"/>
        <pt x="707" y="1620" on="1"/>
        <pt x="754" y="1620" on="1"/>
      </contour>
      <contour>
        <pt x="2065" y="219" on="1"/>
        <pt x="2065" y="188" on="0"/>
        <pt x="2027" y="119" on="1"/>
        <pt x="1986" y="45" on="0"/>
        <pt x="1958" y="45" on="1"/>
        <pt x="1860" y="45" on="1"/>
        <pt x="1791" y="45" on="0"/>
        <pt x="1714" y="96" on="0"/>
        <pt x="1691" y="96" on="1"/>
        <pt x="1685" y="96" on="0"/>
        <pt x="1640" y="70" on="1"/>
        <pt x="1591" y="42" on="0"/>
        <pt x="1569" y="38" on="1"/>
        <pt x="1140" y="-47" on="0"/>
        <pt x="1001" y="-47" on="1"/>
        <pt x="989" y="-47" on="0"/>
        <pt x="848" y="-27" on="0"/>
        <pt x="837" y="-27" on="1"/>
        <pt x="824" y="-27" on="0"/>
        <pt x="808" y="-36" on="0"/>
        <pt x="796" y="-36" on="1"/>
        <pt x="781" y="-36" on="0"/>
        <pt x="781" y="-31" on="1"/>
        <pt x="781" y="-22" on="0"/>
        <pt x="778" y="-19" on="1"/>
        <pt x="719" y="-9" on="0"/>
        <pt x="595" y="17" on="1"/>
        <pt x="518" y="34" on="0"/>
        <pt x="464" y="136" on="1"/>
        <pt x="418" y="224" on="0"/>
        <pt x="414" y="316" on="1"/>
        <pt x="398" y="439" on="0"/>
        <pt x="373" y="684" on="1"/>
        <pt x="368" y="730" on="0"/>
        <pt x="346" y="868" on="1"/>
        <pt x="325" y="997" on="0"/>
        <pt x="325" y="1008" on="1"/>
        <pt x="325" y="1052" on="0"/>
        <pt x="349" y="1127" on="1"/>
        <pt x="362" y="1145" on="0"/>
        <pt x="392" y="1161" on="1"/>
        <pt x="436" y="1106" on="0"/>
        <pt x="481" y="870" on="1"/>
        <pt x="481" y="869" on="0"/>
        <pt x="481" y="685" on="1"/>
        <pt x="481" y="659" on="0"/>
        <pt x="492" y="601" on="1"/>
        <pt x="504" y="537" on="0"/>
        <pt x="505" y="501" on="1"/>
        <pt x="510" y="396" on="0"/>
        <pt x="517" y="360" on="1"/>
        <pt x="531" y="281" on="0"/>
        <pt x="572" y="227" on="1"/>
        <pt x="619" y="166" on="0"/>
        <pt x="686" y="147" on="1"/>
        <pt x="740" y="138" on="0"/>
        <pt x="792" y="129" on="1"/>
        <pt x="844" y="116" on="0"/>
        <pt x="1031" y="116" on="1"/>
        <pt x="1400" y="116" on="0"/>
        <pt x="1608" y="201" on="1"/>
        <pt x="1638" y="213" on="0"/>
        <pt x="1673" y="287" on="1"/>
        <pt x="1704" y="352" on="0"/>
        <pt x="1743" y="352" on="1"/>
        <pt x="1784" y="352" on="0"/>
        <pt x="1784" y="315" on="1"/>
        <pt x="1784" y="308" on="0"/>
        <pt x="1782" y="281" on="0"/>
        <pt x="1782" y="274" on="1"/>
        <pt x="1782" y="219" on="0"/>
        <pt x="1855" y="219" on="1"/>
        <pt x="1896" y="219" on="0"/>
        <pt x="1909" y="236" on="1"/>
        <pt x="1904" y="276" on="0"/>
        <pt x="1904" y="358" on="1"/>
        <pt x="1909" y="393" on="0"/>
        <pt x="1956" y="464" on="1"/>
        <pt x="1995" y="452" on="0"/>
        <pt x="2032" y="351" on="1"/>
        <pt x="2065" y="262" on="0"/>
      </contour>
      <contour>
        <pt x="2024" y="-339" on="1"/>
        <pt x="2024" y="-362" on="0"/>
        <pt x="1978" y="-405" on="0"/>
        <pt x="1948" y="-405" on="1"/>
        <pt x="1935" y="-405" on="0"/>
        <pt x="1919" y="-425" on="0"/>
        <pt x="1907" y="-425" on="1"/>
        <pt x="1872" y="-425" on="0"/>
        <pt x="1789" y="-353" on="0"/>
        <pt x="1789" y="-328" on="1"/>
        <pt x="1841" y="-221" on="0"/>
        <pt x="1886" y="-221" on="1"/>
        <pt x="1904" y="-221" on="0"/>
        <pt x="1961" y="-263" on="1"/>
        <pt x="2024" y="-309" on="0"/>
      </contour>
    </TTGlyph>
    <TTGlyph name="uniFB52" xMin="247" yMin="-77" xMax="3554" yMax="1436">
      <contour>
        <pt x="3430" y="878" on="1"/>
        <pt x="3431" y="853" on="0"/>
        <pt x="3267" y="754" on="1"/>
        <pt x="3105" y="659" on="0"/>
        <pt x="3078" y="659" on="1"/>
        <pt x="3066" y="659" on="0"/>
        <pt x="3059" y="639" on="0"/>
        <pt x="3046" y="640" on="1"/>
        <pt x="3002" y="640" on="1"/>
        <pt x="3002" y="694" on="1"/>
        <pt x="3002" y="714" on="0"/>
        <pt x="3144" y="801" on="1"/>
        <pt x="3314" y="906" on="0"/>
        <pt x="3331" y="920" on="1"/>
        <pt x="3362" y="946" on="0"/>
        <pt x="3390" y="946" on="1"/>
        <pt x="3405" y="946" on="0"/>
        <pt x="3427" y="934" on="0"/>
        <pt x="3430" y="934" on="1"/>
      </contour>
      <contour>
        <pt x="3553" y="171" on="1"/>
        <pt x="3554" y="143" on="0"/>
        <pt x="3479" y="105" on="1"/>
        <pt x="3416" y="74" on="0"/>
        <pt x="3396" y="72" on="1"/>
        <pt x="3348" y="68" on="0"/>
        <pt x="3265" y="31" on="1"/>
        <pt x="3206" y="-2" on="0"/>
        <pt x="3086" y="-67" on="1"/>
        <pt x="3081" y="-42" on="0"/>
        <pt x="3092" y="-4" on="1"/>
        <pt x="3104" y="39" on="0"/>
        <pt x="3104" y="45" on="1"/>
        <pt x="3104" y="53" on="0"/>
        <pt x="3015" y="150" on="1"/>
        <pt x="3012" y="163" on="0"/>
        <pt x="3012" y="178" on="1"/>
        <pt x="3012" y="240" on="0"/>
        <pt x="3126" y="345" on="1"/>
        <pt x="3236" y="444" on="0"/>
        <pt x="3283" y="444" on="1"/>
        <pt x="3321" y="444" on="0"/>
        <pt x="3357" y="401" on="1"/>
        <pt x="3390" y="360" on="0"/>
        <pt x="3390" y="326" on="1"/>
        <pt x="3390" y="303" on="0"/>
        <pt x="3361" y="263" on="1"/>
        <pt x="3329" y="219" on="0"/>
        <pt x="3303" y="219" on="1"/>
        <pt x="3297" y="219" on="0"/>
        <pt x="3220" y="270" on="1"/>
        <pt x="3193" y="270" on="1"/>
        <pt x="3175" y="252" on="1"/>
        <pt x="3175" y="222" on="0"/>
        <pt x="3230" y="198" on="1"/>
        <pt x="3277" y="178" on="0"/>
        <pt x="3314" y="178" on="1"/>
        <pt x="3320" y="178" on="0"/>
        <pt x="3505" y="207" on="0"/>
        <pt x="3553" y="207" on="1"/>
      </contour>
      <contour>
        <pt x="2787" y="275" on="1"/>
        <pt x="2764" y="118" on="0"/>
        <pt x="2733" y="46" on="1"/>
        <pt x="2696" y="46" on="1"/>
        <pt x="2582" y="1028" on="1"/>
        <pt x="2582" y="1130" on="0"/>
        <pt x="2636" y="1180" on="1"/>
        <pt x="2673" y="1180" on="1"/>
      </contour>
      <contour>
        <pt x="2459" y="1238" on="1"/>
        <pt x="2459" y="1177" on="0"/>
        <pt x="2252" y="1035" on="1"/>
        <pt x="2123" y="946" on="0"/>
        <pt x="2015" y="864" on="1"/>
        <pt x="1980" y="864" on="1"/>
        <pt x="1967" y="877" on="0"/>
        <pt x="1967" y="899" on="1"/>
        <pt x="1967" y="946" on="0"/>
        <pt x="2055" y="1011" on="1"/>
        <pt x="2115" y="1051" on="0"/>
        <pt x="2175" y="1090" on="1"/>
        <pt x="2252" y="1146" on="0"/>
        <pt x="2411" y="1262" on="1"/>
        <pt x="2447" y="1262" on="1"/>
        <pt x="2459" y="1262" on="0"/>
      </contour>
      <contour>
        <pt x="1833" y="1436" on="1"/>
        <pt x="1821" y="1362" on="0"/>
        <pt x="1744" y="1311" on="1"/>
        <pt x="1744" y="1310" on="0"/>
        <pt x="1627" y="1250" on="1"/>
        <pt x="1479" y="1173" on="0"/>
        <pt x="612" y="691" on="1"/>
        <pt x="566" y="691" on="1"/>
        <pt x="563" y="744" on="0"/>
        <pt x="616" y="806" on="1"/>
        <pt x="673" y="872" on="0"/>
        <pt x="743" y="884" on="1"/>
        <pt x="1756" y="1436" on="1"/>
      </contour>
      <contour>
        <pt x="1548" y="981" on="1"/>
        <pt x="1548" y="906" on="0"/>
        <pt x="1475" y="842" on="1"/>
        <pt x="1426" y="800" on="0"/>
        <pt x="1370" y="778" on="1"/>
        <pt x="1366" y="777" on="0"/>
        <pt x="1304" y="745" on="1"/>
        <pt x="1256" y="721" on="0"/>
        <pt x="1236" y="721" on="1"/>
        <pt x="1179" y="721" on="0"/>
        <pt x="1179" y="797" on="1"/>
        <pt x="1179" y="864" on="0"/>
        <pt x="1251" y="936" on="1"/>
        <pt x="1272" y="922" on="0"/>
        <pt x="1270" y="872" on="1"/>
        <pt x="1273" y="872" on="0"/>
        <pt x="1282" y="864" on="0"/>
        <pt x="1297" y="864" on="1"/>
        <pt x="1311" y="864" on="0"/>
        <pt x="1340" y="908" on="1"/>
        <pt x="1377" y="966" on="0"/>
        <pt x="1387" y="976" on="1"/>
        <pt x="1395" y="976" on="0"/>
        <pt x="1441" y="936" on="1"/>
        <pt x="1458" y="947" on="0"/>
        <pt x="1511" y="1028" on="1"/>
        <pt x="1548" y="991" on="0"/>
      </contour>
      <contour>
        <pt x="1630" y="592" on="1"/>
        <pt x="1630" y="564" on="0"/>
        <pt x="1586" y="528" on="1"/>
        <pt x="1547" y="496" on="0"/>
        <pt x="1527" y="496" on="1"/>
        <pt x="1501" y="496" on="0"/>
        <pt x="1405" y="561" on="0"/>
        <pt x="1405" y="578" on="1"/>
        <pt x="1405" y="600" on="0"/>
        <pt x="1437" y="643" on="1"/>
        <pt x="1473" y="690" on="0"/>
        <pt x="1501" y="690" on="1"/>
        <pt x="1527" y="690" on="0"/>
        <pt x="1576" y="658" on="1"/>
        <pt x="1630" y="623" on="0"/>
      </contour>
      <contour>
        <pt x="2377" y="234" on="1"/>
        <pt x="2377" y="181" on="0"/>
        <pt x="2343" y="132" on="1"/>
        <pt x="2306" y="75" on="0"/>
        <pt x="2249" y="75" on="1"/>
        <pt x="2236" y="75" on="0"/>
        <pt x="2037" y="137" on="0"/>
        <pt x="2024" y="137" on="1"/>
        <pt x="2020" y="137" on="0"/>
        <pt x="1855" y="-6" on="0"/>
        <pt x="1767" y="-6" on="1"/>
        <pt x="1723" y="-6" on="0"/>
        <pt x="1627" y="75" on="0"/>
        <pt x="1609" y="75" on="1"/>
        <pt x="1599" y="75" on="0"/>
        <pt x="1536" y="45" on="1"/>
        <pt x="1468" y="12" on="0"/>
        <pt x="1441" y="7" on="1"/>
        <pt x="1112" y="-67" on="0"/>
        <pt x="877" y="-67" on="1"/>
        <pt x="867" y="-67" on="0"/>
        <pt x="844" y="-77" on="0"/>
        <pt x="831" y="-77" on="1"/>
        <pt x="820" y="-77" on="0"/>
        <pt x="763" y="-62" on="1"/>
        <pt x="699" y="-44" on="0"/>
        <pt x="671" y="-40" on="1"/>
        <pt x="537" y="-22" on="0"/>
        <pt x="526" y="-19" on="1"/>
        <pt x="440" y="3" on="0"/>
        <pt x="394" y="67" on="1"/>
        <pt x="369" y="103" on="0"/>
        <pt x="351" y="213" on="1"/>
        <pt x="335" y="307" on="0"/>
        <pt x="335" y="378" on="1"/>
        <pt x="335" y="433" on="0"/>
        <pt x="322" y="536" on="1"/>
        <pt x="307" y="651" on="0"/>
        <pt x="305" y="695" on="1"/>
        <pt x="304" y="762" on="0"/>
        <pt x="285" y="899" on="1"/>
        <pt x="247" y="1054" on="0"/>
        <pt x="247" y="1063" on="1"/>
        <pt x="247" y="1090" on="0"/>
        <pt x="264" y="1126" on="1"/>
        <pt x="286" y="1171" on="0"/>
        <pt x="314" y="1171" on="1"/>
        <pt x="390" y="1171" on="0"/>
        <pt x="421" y="676" on="1"/>
        <pt x="427" y="572" on="0"/>
        <pt x="432" y="468" on="1"/>
        <pt x="444" y="331" on="0"/>
        <pt x="475" y="236" on="1"/>
        <pt x="491" y="188" on="0"/>
        <pt x="621" y="133" on="1"/>
        <pt x="733" y="86" on="0"/>
        <pt x="766" y="86" on="1"/>
        <pt x="1050" y="86" on="1"/>
        <pt x="1116" y="86" on="0"/>
        <pt x="1296" y="120" on="1"/>
        <pt x="1485" y="156" on="0"/>
        <pt x="1519" y="179" on="1"/>
        <pt x="1540" y="193" on="0"/>
        <pt x="1567" y="238" on="1"/>
        <pt x="1608" y="306" on="0"/>
        <pt x="1611" y="310" on="1"/>
        <pt x="1659" y="310" on="1"/>
        <pt x="1667" y="270" on="0"/>
        <pt x="1693" y="206" on="1"/>
        <pt x="1730" y="157" on="0"/>
        <pt x="1814" y="157" on="1"/>
        <pt x="1868" y="157" on="0"/>
        <pt x="1908" y="190" on="1"/>
        <pt x="1970" y="279" on="0"/>
        <pt x="2031" y="368" on="1"/>
        <pt x="2147" y="526" on="0"/>
        <pt x="2218" y="526" on="1"/>
        <pt x="2281" y="526" on="0"/>
        <pt x="2334" y="401" on="1"/>
        <pt x="2377" y="297" on="0"/>
      </contour>
      <contour>
        <pt x="2222" y="272" on="1"/>
        <pt x="2200" y="341" on="0"/>
        <pt x="2167" y="362" on="1"/>
        <pt x="2128" y="342" on="0"/>
        <pt x="2111" y="305" on="1"/>
        <pt x="2159" y="272" on="0"/>
      </contour>
    </TTGlyph>
    <TTGlyph name="uniFB53" xMin="190" yMin="-603" xMax="2268" yMax="1486">
      <contour>
        <pt x="1407" y="1202" on="1"/>
        <pt x="1408" y="1163" on="0"/>
        <pt x="1203" y="1037" on="1"/>
        <pt x="934" y="871" on="0"/>
        <pt x="883" y="830" on="1"/>
        <pt x="827" y="830" on="1"/>
        <pt x="814" y="842" on="0"/>
        <pt x="814" y="865" on="1"/>
        <pt x="814" y="920" on="0"/>
        <pt x="1035" y="1056" on="1"/>
        <pt x="1198" y="1152" on="0"/>
        <pt x="1361" y="1248" on="1"/>
        <pt x="1407" y="1248" on="1"/>
      </contour>
      <contour>
        <pt x="855" y="1461" on="1"/>
        <pt x="855" y="1373" on="0"/>
        <pt x="693" y="1285" on="1"/>
        <pt x="553" y="1210" on="0"/>
        <pt x="477" y="1210" on="1"/>
        <pt x="466" y="1210" on="0"/>
        <pt x="351" y="1241" on="0"/>
        <pt x="338" y="1241" on="1"/>
        <pt x="325" y="1241" on="0"/>
        <pt x="287" y="1200" on="1"/>
        <pt x="236" y="1144" on="0"/>
        <pt x="215" y="1128" on="1"/>
        <pt x="207" y="1133" on="0"/>
        <pt x="190" y="1144" on="0"/>
        <pt x="190" y="1159" on="1"/>
        <pt x="190" y="1191" on="0"/>
        <pt x="248" y="1280" on="1"/>
        <pt x="310" y="1374" on="0"/>
        <pt x="349" y="1374" on="1"/>
        <pt x="361" y="1374" on="0"/>
        <pt x="464" y="1333" on="0"/>
        <pt x="477" y="1333" on="1"/>
        <pt x="660" y="1333" on="0"/>
        <pt x="818" y="1486" on="1"/>
        <pt x="855" y="1486" on="0"/>
      </contour>
      <contour>
        <pt x="2084" y="200" on="1"/>
        <pt x="2084" y="135" on="0"/>
        <pt x="2038" y="74" on="1"/>
        <pt x="2032" y="64" on="0"/>
        <pt x="1791" y="-20" on="0"/>
        <pt x="1767" y="-20" on="1"/>
        <pt x="1606" y="-20" on="0"/>
        <pt x="1589" y="-18" on="1"/>
        <pt x="1581" y="-17" on="0"/>
        <pt x="1556" y="0" on="0"/>
        <pt x="1542" y="0" on="1"/>
        <pt x="1493" y="0" on="0"/>
        <pt x="1438" y="-72" on="0"/>
        <pt x="1424" y="-72" on="1"/>
        <pt x="1362" y="-72" on="1"/>
        <pt x="1348" y="-72" on="0"/>
        <pt x="1059" y="20" on="0"/>
        <pt x="1060" y="20" on="1"/>
        <pt x="1064" y="20" on="0"/>
        <pt x="865" y="-61" on="0"/>
        <pt x="794" y="-61" on="1"/>
        <pt x="666" y="-61" on="0"/>
        <pt x="623" y="-5" on="1"/>
        <pt x="569" y="66" on="0"/>
        <pt x="543" y="175" on="1"/>
        <pt x="523" y="284" on="0"/>
        <pt x="504" y="393" on="1"/>
        <pt x="485" y="496" on="0"/>
        <pt x="479" y="640" on="1"/>
        <pt x="477" y="717" on="0"/>
        <pt x="463" y="864" on="1"/>
        <pt x="460" y="880" on="0"/>
        <pt x="441" y="927" on="1"/>
        <pt x="425" y="969" on="0"/>
        <pt x="425" y="983" on="1"/>
        <pt x="425" y="1003" on="0"/>
        <pt x="479" y="1085" on="0"/>
        <pt x="503" y="1095" on="1"/>
        <pt x="520" y="1084" on="0"/>
        <pt x="544" y="1062" on="1"/>
        <pt x="582" y="925" on="0"/>
        <pt x="605" y="688" on="1"/>
        <pt x="638" y="328" on="0"/>
        <pt x="643" y="292" on="1"/>
        <pt x="654" y="212" on="0"/>
        <pt x="769" y="92" on="0"/>
        <pt x="835" y="92" on="1"/>
        <pt x="901" y="92" on="0"/>
        <pt x="950" y="115" on="1"/>
        <pt x="985" y="130" on="0"/>
        <pt x="1085" y="247" on="1"/>
        <pt x="1171" y="348" on="0"/>
        <pt x="1239" y="348" on="1"/>
        <pt x="1282" y="348" on="0"/>
        <pt x="1325" y="300" on="1"/>
        <pt x="1387" y="231" on="0"/>
        <pt x="1426" y="206" on="1"/>
        <pt x="1475" y="177" on="0"/>
        <pt x="1569" y="170" on="1"/>
        <pt x="1565" y="153" on="0"/>
        <pt x="1588" y="153" on="1"/>
        <pt x="1852" y="153" on="1"/>
        <pt x="1895" y="153" on="0"/>
        <pt x="1951" y="192" on="1"/>
        <pt x="1951" y="219" on="1"/>
        <pt x="1951" y="232" on="0"/>
        <pt x="1849" y="356" on="0"/>
        <pt x="1849" y="369" on="1"/>
        <pt x="1849" y="378" on="0"/>
        <pt x="1900" y="467" on="0"/>
        <pt x="1914" y="481" on="1"/>
        <pt x="2084" y="392" on="0"/>
      </contour>
      <contour>
        <pt x="2002" y="-250" on="1"/>
        <pt x="2002" y="-283" on="0"/>
        <pt x="1959" y="-312" on="1"/>
        <pt x="1921" y="-338" on="0"/>
        <pt x="1895" y="-338" on="1"/>
        <pt x="1860" y="-338" on="0"/>
        <pt x="1822" y="-317" on="1"/>
        <pt x="1777" y="-291" on="0"/>
        <pt x="1777" y="-256" on="1"/>
        <pt x="1777" y="-221" on="0"/>
        <pt x="1841" y="-154" on="0"/>
        <pt x="1869" y="-154" on="1"/>
        <pt x="1903" y="-154" on="0"/>
        <pt x="1950" y="-182" on="1"/>
        <pt x="2002" y="-215" on="0"/>
      </contour>
      <contour>
        <pt x="2268" y="-358" on="1"/>
        <pt x="2268" y="-405" on="0"/>
        <pt x="2081" y="-502" on="1"/>
        <pt x="1973" y="-553" on="0"/>
        <pt x="1865" y="-603" on="1"/>
        <pt x="1831" y="-603" on="1"/>
        <pt x="1818" y="-590" on="0"/>
        <pt x="1818" y="-573" on="1"/>
        <pt x="1818" y="-534" on="0"/>
        <pt x="1843" y="-516" on="1"/>
        <pt x="1914" y="-464" on="0"/>
        <pt x="2052" y="-394" on="1"/>
        <pt x="2181" y="-327" on="0"/>
        <pt x="2203" y="-327" on="1"/>
        <pt x="2245" y="-327" on="1"/>
        <pt x="2253" y="-332" on="0"/>
        <pt x="2268" y="-343" on="0"/>
      </contour>
      <contour>
        <pt x="1284" y="134" on="1"/>
        <pt x="1270" y="166" on="0"/>
        <pt x="1221" y="214" on="1"/>
        <pt x="1185" y="214" on="1"/>
        <pt x="1173" y="166" on="1"/>
        <pt x="1238" y="134" on="0"/>
        <pt x="1240" y="134" on="1"/>
      </contour>
    </TTGlyph>
    <TTGlyph name="uniFB54" xMin="348" yMin="-368" xMax="3346" yMax="1781">
      <contour>
        <pt x="3346" y="1769" on="1"/>
        <pt x="3336" y="1700" on="0"/>
        <pt x="3151" y="1602" on="1"/>
        <pt x="2996" y="1524" on="0"/>
        <pt x="2842" y="1444" on="1"/>
        <pt x="2806" y="1444" on="1"/>
        <pt x="2806" y="1509" on="1"/>
        <pt x="2806" y="1525" on="0"/>
        <pt x="2816" y="1537" on="1"/>
        <pt x="2823" y="1543" on="0"/>
        <pt x="2829" y="1551" on="1"/>
        <pt x="2983" y="1625" on="0"/>
        <pt x="3291" y="1781" on="1"/>
        <pt x="3314" y="1781" on="0"/>
        <pt x="3345" y="1769" on="0"/>
      </contour>
      <contour>
        <pt x="3296" y="1216" on="1"/>
        <pt x="3281" y="1172" on="0"/>
        <pt x="3223" y="1149" on="1"/>
        <pt x="3223" y="1149" on="0"/>
        <pt x="3129" y="1122" on="1"/>
        <pt x="3082" y="1109" on="0"/>
        <pt x="2952" y="1044" on="1"/>
        <pt x="2932" y="1069" on="0"/>
        <pt x="2935" y="1109" on="1"/>
        <pt x="2928" y="1117" on="0"/>
        <pt x="2882" y="1162" on="1"/>
        <pt x="2866" y="1178" on="0"/>
        <pt x="2866" y="1203" on="1"/>
        <pt x="2866" y="1254" on="0"/>
        <pt x="3014" y="1402" on="0"/>
        <pt x="3061" y="1402" on="1"/>
        <pt x="3093" y="1402" on="0"/>
        <pt x="3143" y="1358" on="0"/>
        <pt x="3143" y="1336" on="1"/>
        <pt x="3143" y="1310" on="0"/>
        <pt x="3100" y="1270" on="0"/>
        <pt x="3082" y="1270" on="1"/>
        <pt x="3072" y="1270" on="0"/>
        <pt x="3036" y="1280" on="0"/>
        <pt x="3007" y="1280" on="1"/>
        <pt x="3001" y="1275" on="0"/>
        <pt x="2995" y="1260" on="0"/>
        <pt x="2989" y="1254" on="1"/>
        <pt x="3044" y="1218" on="0"/>
        <pt x="3087" y="1218" on="1"/>
        <pt x="3112" y="1218" on="0"/>
        <pt x="3150" y="1230" on="0"/>
        <pt x="3169" y="1230" on="1"/>
        <pt x="3207" y="1230" on="0"/>
      </contour>
      <contour>
        <pt x="2508" y="1653" on="1"/>
        <pt x="2508" y="1602" on="0"/>
        <pt x="2306" y="1481" on="1"/>
        <pt x="2004" y="1302" on="0"/>
        <pt x="2003" y="1301" on="1"/>
        <pt x="1966" y="1301" on="1"/>
        <pt x="1966" y="1355" on="1"/>
        <pt x="1966" y="1394" on="0"/>
        <pt x="2194" y="1528" on="1"/>
        <pt x="2410" y="1654" on="0"/>
        <pt x="2495" y="1679" on="1"/>
        <pt x="2508" y="1677" on="0"/>
      </contour>
      <contour>
        <pt x="3246" y="210" on="1"/>
        <pt x="3246" y="191" on="0"/>
        <pt x="3224" y="111" on="1"/>
        <pt x="3201" y="25" on="0"/>
        <pt x="3182" y="-19" on="1"/>
        <pt x="3144" y="-19" on="1"/>
        <pt x="3147" y="117" on="0"/>
        <pt x="3114" y="344" on="1"/>
        <pt x="3073" y="627" on="0"/>
        <pt x="3068" y="691" on="1"/>
        <pt x="3064" y="733" on="0"/>
        <pt x="3042" y="837" on="1"/>
        <pt x="3020" y="937" on="0"/>
        <pt x="3020" y="947" on="1"/>
        <pt x="3020" y="1016" on="0"/>
        <pt x="3085" y="1085" on="1"/>
        <pt x="3108" y="1085" on="0"/>
        <pt x="3128" y="1052" on="1"/>
        <pt x="3159" y="967" on="0"/>
        <pt x="3170" y="840" on="1"/>
        <pt x="3178" y="736" on="0"/>
        <pt x="3187" y="630" on="1"/>
        <pt x="3195" y="559" on="0"/>
        <pt x="3222" y="379" on="1"/>
        <pt x="3246" y="221" on="0"/>
      </contour>
      <contour>
        <pt x="2805" y="809" on="1"/>
        <pt x="2805" y="783" on="0"/>
        <pt x="2772" y="746" on="1"/>
        <pt x="2738" y="706" on="0"/>
        <pt x="2708" y="706" on="1"/>
        <pt x="2683" y="706" on="0"/>
        <pt x="2590" y="777" on="0"/>
        <pt x="2590" y="799" on="1"/>
        <pt x="2590" y="828" on="0"/>
        <pt x="2634" y="866" on="1"/>
        <pt x="2673" y="901" on="0"/>
        <pt x="2693" y="901" on="1"/>
        <pt x="2733" y="901" on="0"/>
        <pt x="2772" y="858" on="1"/>
        <pt x="2805" y="822" on="0"/>
      </contour>
      <contour>
        <pt x="1873" y="1534" on="1"/>
        <pt x="1853" y="1399" on="0"/>
        <pt x="1530" y="1280" on="1"/>
        <pt x="1516" y="1291" on="0"/>
        <pt x="1506" y="1291" on="1"/>
        <pt x="1506" y="1329" on="1"/>
        <pt x="1625" y="1402" on="0"/>
        <pt x="1689" y="1458" on="1"/>
        <pt x="1661" y="1475" on="0"/>
        <pt x="1618" y="1475" on="1"/>
        <pt x="1578" y="1475" on="0"/>
        <pt x="1552" y="1450" on="1"/>
        <pt x="1507" y="1410" on="0"/>
        <pt x="1475" y="1393" on="1"/>
        <pt x="1475" y="1437" on="1"/>
        <pt x="1474" y="1452" on="0"/>
        <pt x="1509" y="1502" on="1"/>
        <pt x="1545" y="1555" on="0"/>
        <pt x="1578" y="1582" on="1"/>
        <pt x="1597" y="1597" on="0"/>
        <pt x="1653" y="1597" on="1"/>
        <pt x="1803" y="1597" on="0"/>
      </contour>
      <contour>
        <pt x="2426" y="682" on="1"/>
        <pt x="2415" y="651" on="0"/>
        <pt x="2385" y="617" on="1"/>
        <pt x="2346" y="573" on="0"/>
        <pt x="2308" y="573" on="1"/>
        <pt x="2281" y="573" on="0"/>
        <pt x="2212" y="637" on="0"/>
        <pt x="2212" y="655" on="1"/>
        <pt x="2212" y="682" on="0"/>
        <pt x="2251" y="722" on="1"/>
        <pt x="2288" y="758" on="0"/>
        <pt x="2303" y="758" on="1"/>
        <pt x="2352" y="758" on="0"/>
        <pt x="2375" y="734" on="1"/>
        <pt x="2423" y="684" on="0"/>
      </contour>
      <contour>
        <pt x="2907" y="235" on="1"/>
        <pt x="2907" y="211" on="0"/>
        <pt x="2892" y="165" on="1"/>
        <pt x="2872" y="109" on="0"/>
        <pt x="2844" y="85" on="1"/>
        <pt x="2832" y="75" on="0"/>
        <pt x="2778" y="59" on="1"/>
        <pt x="2730" y="44" on="0"/>
        <pt x="2715" y="22" on="1"/>
        <pt x="2699" y="-24" on="0"/>
        <pt x="2657" y="-120" on="1"/>
        <pt x="2613" y="-202" on="0"/>
        <pt x="2565" y="-252" on="1"/>
        <pt x="2546" y="-271" on="0"/>
        <pt x="2467" y="-321" on="1"/>
        <pt x="2392" y="-368" on="0"/>
        <pt x="2384" y="-368" on="1"/>
        <pt x="2269" y="-368" on="1"/>
        <pt x="2203" y="-368" on="0"/>
        <pt x="2110" y="-330" on="1"/>
        <pt x="2012" y="-290" on="0"/>
        <pt x="1945" y="-232" on="1"/>
        <pt x="1941" y="-194" on="0"/>
        <pt x="1981" y="-194" on="1"/>
        <pt x="1978" y="-194" on="0"/>
        <pt x="2116" y="-233" on="1"/>
        <pt x="2160" y="-245" on="0"/>
        <pt x="2299" y="-245" on="1"/>
        <pt x="2344" y="-245" on="0"/>
        <pt x="2461" y="-163" on="1"/>
        <pt x="2590" y="-72" on="0"/>
        <pt x="2590" y="-4" on="1"/>
        <pt x="2590" y="8" on="0"/>
        <pt x="2567" y="25" on="1"/>
        <pt x="2526" y="56" on="0"/>
        <pt x="2519" y="63" on="1"/>
        <pt x="2510" y="134" on="0"/>
        <pt x="2552" y="190" on="1"/>
        <pt x="2607" y="193" on="0"/>
        <pt x="2663" y="197" on="1"/>
        <pt x="2738" y="203" on="0"/>
        <pt x="2774" y="232" on="1"/>
        <pt x="2769" y="247" on="0"/>
        <pt x="2732" y="314" on="1"/>
        <pt x="2702" y="366" on="0"/>
        <pt x="2702" y="383" on="1"/>
        <pt x="2702" y="401" on="0"/>
        <pt x="2720" y="437" on="1"/>
        <pt x="2739" y="481" on="0"/>
        <pt x="2759" y="481" on="1"/>
        <pt x="2817" y="481" on="0"/>
        <pt x="2867" y="367" on="1"/>
        <pt x="2907" y="275" on="0"/>
      </contour>
      <contour>
        <pt x="1238" y="1484" on="1"/>
        <pt x="1238" y="1457" on="0"/>
        <pt x="1113" y="1379" on="1"/>
        <pt x="950" y="1277" on="0"/>
        <pt x="639" y="1147" on="1"/>
        <pt x="624" y="1161" on="0"/>
        <pt x="624" y="1182" on="1"/>
        <pt x="624" y="1246" on="0"/>
        <pt x="714" y="1286" on="1"/>
        <pt x="772" y="1309" on="0"/>
        <pt x="831" y="1333" on="1"/>
        <pt x="871" y="1362" on="0"/>
        <pt x="955" y="1394" on="1"/>
        <pt x="1044" y="1439" on="0"/>
        <pt x="1214" y="1525" on="1"/>
        <pt x="1238" y="1501" on="0"/>
      </contour>
      <contour>
        <pt x="1853" y="252" on="1"/>
        <pt x="1860" y="240" on="0"/>
        <pt x="1860" y="222" on="1"/>
        <pt x="1860" y="158" on="0"/>
        <pt x="1714" y="-20" on="0"/>
        <pt x="1662" y="-20" on="1"/>
        <pt x="1634" y="-20" on="1"/>
        <pt x="1596" y="-20" on="0"/>
        <pt x="1477" y="71" on="0"/>
        <pt x="1469" y="71" on="1"/>
        <pt x="1464" y="71" on="0"/>
        <pt x="1401" y="32" on="1"/>
        <pt x="1333" y="-9" on="0"/>
        <pt x="1296" y="-18" on="1"/>
        <pt x="994" y="-81" on="0"/>
        <pt x="712" y="-81" on="1"/>
        <pt x="619" y="-81" on="0"/>
        <pt x="498" y="-21" on="1"/>
        <pt x="348" y="53" on="0"/>
        <pt x="348" y="153" on="1"/>
        <pt x="348" y="228" on="0"/>
        <pt x="380" y="303" on="1"/>
        <pt x="417" y="389" on="0"/>
        <pt x="475" y="419" on="1"/>
        <pt x="512" y="419" on="0"/>
        <pt x="512" y="394" on="1"/>
        <pt x="512" y="383" on="0"/>
        <pt x="471" y="272" on="0"/>
        <pt x="471" y="256" on="1"/>
        <pt x="471" y="156" on="0"/>
        <pt x="624" y="105" on="1"/>
        <pt x="724" y="71" on="0"/>
        <pt x="814" y="71" on="1"/>
        <pt x="979" y="71" on="0"/>
        <pt x="1121" y="94" on="1"/>
        <pt x="1241" y="114" on="0"/>
        <pt x="1249" y="116" on="1"/>
        <pt x="1332" y="134" on="0"/>
        <pt x="1384" y="165" on="1"/>
        <pt x="1404" y="177" on="0"/>
        <pt x="1433" y="228" on="1"/>
        <pt x="1468" y="287" on="0"/>
        <pt x="1488" y="306" on="1"/>
        <pt x="1543" y="303" on="0"/>
        <pt x="1548" y="190" on="1"/>
        <pt x="1560" y="164" on="0"/>
        <pt x="1653" y="164" on="1"/>
        <pt x="1736" y="164" on="0"/>
        <pt x="1750" y="189" on="1"/>
        <pt x="1704" y="422" on="0"/>
        <pt x="1661" y="803" on="1"/>
        <pt x="1659" y="820" on="0"/>
        <pt x="1618" y="908" on="0"/>
        <pt x="1618" y="922" on="1"/>
        <pt x="1618" y="1013" on="0"/>
        <pt x="1714" y="1116" on="1"/>
        <pt x="1739" y="1103" on="0"/>
        <pt x="1756" y="963" on="0"/>
        <pt x="1822" y="931" on="1"/>
        <pt x="1822" y="868" on="0"/>
        <pt x="1782" y="792" on="1"/>
      </contour>
      <contour>
        <pt x="1218" y="594" on="1"/>
        <pt x="1218" y="569" on="0"/>
        <pt x="1175" y="539" on="1"/>
        <pt x="1136" y="512" on="0"/>
        <pt x="1116" y="512" on="1"/>
        <pt x="1105" y="512" on="0"/>
        <pt x="1047" y="542" on="0"/>
        <pt x="1034" y="542" on="1"/>
        <pt x="1022" y="542" on="0"/>
        <pt x="939" y="481" on="0"/>
        <pt x="911" y="481" on="1"/>
        <pt x="866" y="481" on="0"/>
        <pt x="831" y="510" on="1"/>
        <pt x="799" y="537" on="0"/>
        <pt x="799" y="563" on="1"/>
        <pt x="799" y="598" on="0"/>
        <pt x="864" y="665" on="0"/>
        <pt x="890" y="665" on="1"/>
        <pt x="903" y="665" on="0"/>
        <pt x="985" y="624" on="0"/>
        <pt x="998" y="624" on="1"/>
        <pt x="1011" y="624" on="0"/>
        <pt x="1113" y="696" on="0"/>
        <pt x="1126" y="696" on="1"/>
        <pt x="1148" y="696" on="0"/>
        <pt x="1184" y="652" on="1"/>
        <pt x="1218" y="610" on="0"/>
      </contour>
    </TTGlyph>
    <TTGlyph name="uniFB55" xMin="389" yMin="-323" xMax="4628" yMax="1734">
      <contour>
        <pt x="4618" y="1427" on="1"/>
        <pt x="4618" y="1380" on="0"/>
        <pt x="4499" y="1309" on="1"/>
        <pt x="4434" y="1275" on="0"/>
        <pt x="4369" y="1239" on="1"/>
        <pt x="4369" y="1239" on="0"/>
        <pt x="4080" y="1079" on="1"/>
        <pt x="4066" y="1090" on="0"/>
        <pt x="4055" y="1090" on="1"/>
        <pt x="4055" y="1124" on="1"/>
        <pt x="4053" y="1168" on="0"/>
        <pt x="4100" y="1197" on="1"/>
        <pt x="4219" y="1271" on="0"/>
        <pt x="4570" y="1457" on="1"/>
        <pt x="4606" y="1457" on="1"/>
        <pt x="4606" y="1453" on="0"/>
        <pt x="4618" y="1442" on="0"/>
      </contour>
      <contour>
        <pt x="4095" y="1427" on="1"/>
        <pt x="4095" y="1334" on="0"/>
        <pt x="3980" y="1262" on="1"/>
        <pt x="3885" y="1202" on="0"/>
        <pt x="3819" y="1202" on="1"/>
        <pt x="3808" y="1202" on="0"/>
        <pt x="3764" y="1212" on="0"/>
        <pt x="3753" y="1212" on="1"/>
        <pt x="3739" y="1212" on="0"/>
        <pt x="3702" y="1185" on="1"/>
        <pt x="3661" y="1155" on="0"/>
        <pt x="3648" y="1151" on="1"/>
        <pt x="3635" y="1153" on="0"/>
        <pt x="3635" y="1176" on="1"/>
        <pt x="3635" y="1215" on="0"/>
        <pt x="3681" y="1276" on="1"/>
        <pt x="3732" y="1345" on="0"/>
        <pt x="3783" y="1345" on="1"/>
        <pt x="3796" y="1345" on="0"/>
        <pt x="3801" y="1335" on="0"/>
        <pt x="3814" y="1335" on="1"/>
        <pt x="3827" y="1335" on="0"/>
        <pt x="3944" y="1529" on="0"/>
        <pt x="4013" y="1529" on="1"/>
        <pt x="4048" y="1529" on="0"/>
        <pt x="4073" y="1495" on="1"/>
        <pt x="4095" y="1464" on="0"/>
      </contour>
      <contour>
        <pt x="3553" y="1693" on="1"/>
        <pt x="3553" y="1604" on="0"/>
        <pt x="3347" y="1522" on="1"/>
        <pt x="3232" y="1476" on="0"/>
        <pt x="3134" y="1415" on="1"/>
        <pt x="2994" y="1325" on="0"/>
        <pt x="2975" y="1316" on="1"/>
        <pt x="2929" y="1316" on="1"/>
        <pt x="2929" y="1319" on="0"/>
        <pt x="2918" y="1330" on="0"/>
        <pt x="2918" y="1345" on="1"/>
        <pt x="2918" y="1414" on="0"/>
        <pt x="3118" y="1520" on="1"/>
        <pt x="3244" y="1583" on="0"/>
        <pt x="3371" y="1644" on="1"/>
        <pt x="3418" y="1674" on="0"/>
        <pt x="3527" y="1734" on="1"/>
        <pt x="3553" y="1721" on="0"/>
      </contour>
      <contour>
        <pt x="3471" y="1345" on="1"/>
        <pt x="3471" y="1223" on="0"/>
        <pt x="3397" y="1175" on="1"/>
        <pt x="3359" y="1167" on="0"/>
        <pt x="3294" y="1147" on="1"/>
        <pt x="3289" y="1145" on="0"/>
        <pt x="3219" y="1111" on="1"/>
        <pt x="3173" y="1090" on="0"/>
        <pt x="3159" y="1090" on="1"/>
        <pt x="3102" y="1090" on="0"/>
        <pt x="3102" y="1156" on="1"/>
        <pt x="3102" y="1231" on="0"/>
        <pt x="3169" y="1294" on="1"/>
        <pt x="3177" y="1272" on="0"/>
        <pt x="3184" y="1250" on="1"/>
        <pt x="3194" y="1222" on="0"/>
        <pt x="3210" y="1222" on="1"/>
        <pt x="3241" y="1222" on="0"/>
        <pt x="3262" y="1275" on="1"/>
        <pt x="3296" y="1359" on="0"/>
        <pt x="3300" y="1365" on="1"/>
        <pt x="3336" y="1365" on="1"/>
        <pt x="3341" y="1338" on="0"/>
        <pt x="3355" y="1283" on="1"/>
        <pt x="3395" y="1288" on="0"/>
        <pt x="3401" y="1339" on="1"/>
        <pt x="3409" y="1393" on="0"/>
        <pt x="3446" y="1407" on="1"/>
        <pt x="3471" y="1375" on="0"/>
      </contour>
      <contour>
        <pt x="3962" y="168" on="1"/>
        <pt x="3962" y="98" on="0"/>
        <pt x="3907" y="25" on="1"/>
        <pt x="3854" y="51" on="0"/>
        <pt x="3842" y="142" on="1"/>
        <pt x="3804" y="335" on="0"/>
        <pt x="3753" y="672" on="1"/>
        <pt x="3750" y="713" on="0"/>
        <pt x="3732" y="831" on="1"/>
        <pt x="3717" y="939" on="0"/>
        <pt x="3717" y="951" on="1"/>
        <pt x="3717" y="994" on="0"/>
        <pt x="3760" y="1058" on="1"/>
        <pt x="3794" y="1058" on="1"/>
        <pt x="3814" y="1058" on="0"/>
        <pt x="3825" y="1004" on="1"/>
        <pt x="3835" y="955" on="0"/>
        <pt x="3872" y="624" on="1"/>
        <pt x="3883" y="532" on="0"/>
        <pt x="3924" y="347" on="1"/>
        <pt x="3962" y="174" on="0"/>
      </contour>
      <contour>
        <pt x="4628" y="184" on="1"/>
        <pt x="4628" y="61" on="0"/>
        <pt x="4561" y="-58" on="1"/>
        <pt x="4483" y="-196" on="0"/>
        <pt x="4348" y="-255" on="1"/>
        <pt x="4329" y="-272" on="0"/>
        <pt x="4287" y="-300" on="1"/>
        <pt x="4231" y="-323" on="0"/>
        <pt x="4126" y="-323" on="1"/>
        <pt x="4113" y="-323" on="0"/>
        <pt x="4016" y="-313" on="0"/>
        <pt x="3990" y="-313" on="0"/>
        <pt x="3799" y="-249" on="1"/>
        <pt x="3799" y="-203" on="1"/>
        <pt x="3822" y="-180" on="0"/>
        <pt x="3839" y="-180" on="1"/>
        <pt x="3851" y="-180" on="0"/>
        <pt x="3912" y="-206" on="0"/>
        <pt x="3927" y="-208" on="1"/>
        <pt x="3947" y="-211" on="0"/>
        <pt x="4065" y="-211" on="1"/>
        <pt x="4285" y="-211" on="0"/>
        <pt x="4536" y="103" on="1"/>
        <pt x="4536" y="127" on="0"/>
        <pt x="4520" y="127" on="1"/>
        <pt x="4515" y="127" on="0"/>
        <pt x="4442" y="75" on="0"/>
        <pt x="4407" y="75" on="1"/>
        <pt x="4364" y="75" on="0"/>
        <pt x="4259" y="180" on="0"/>
        <pt x="4259" y="229" on="1"/>
        <pt x="4259" y="295" on="0"/>
        <pt x="4306" y="386" on="1"/>
        <pt x="4361" y="496" on="0"/>
        <pt x="4433" y="496" on="1"/>
        <pt x="4520" y="496" on="0"/>
        <pt x="4581" y="362" on="1"/>
        <pt x="4628" y="258" on="0"/>
      </contour>
      <contour>
        <pt x="3573" y="731" on="1"/>
        <pt x="3573" y="695" on="0"/>
        <pt x="3513" y="664" on="1"/>
        <pt x="3467" y="639" on="0"/>
        <pt x="3450" y="639" on="1"/>
        <pt x="3440" y="639" on="0"/>
        <pt x="3368" y="669" on="0"/>
        <pt x="3353" y="669" on="1"/>
        <pt x="3341" y="669" on="0"/>
        <pt x="3238" y="598" on="0"/>
        <pt x="3225" y="598" on="1"/>
        <pt x="3179" y="598" on="0"/>
        <pt x="3113" y="661" on="1"/>
        <pt x="3121" y="708" on="0"/>
        <pt x="3188" y="792" on="0"/>
        <pt x="3225" y="792" on="1"/>
        <pt x="3237" y="792" on="0"/>
        <pt x="3314" y="751" on="0"/>
        <pt x="3327" y="751" on="1"/>
        <pt x="3341" y="751" on="0"/>
        <pt x="3432" y="823" on="0"/>
        <pt x="3445" y="823" on="1"/>
        <pt x="3480" y="823" on="0"/>
        <pt x="3525" y="793" on="1"/>
        <pt x="3573" y="761" on="0"/>
      </contour>
      <contour>
        <pt x="2866" y="1596" on="1"/>
        <pt x="2866" y="1543" on="0"/>
        <pt x="2615" y="1398" on="1"/>
        <pt x="2457" y="1310" on="0"/>
        <pt x="2300" y="1223" on="1"/>
        <pt x="2266" y="1223" on="1"/>
        <pt x="2253" y="1236" on="0"/>
        <pt x="2253" y="1258" on="1"/>
        <pt x="2253" y="1310" on="0"/>
        <pt x="2285" y="1330" on="1"/>
        <pt x="2522" y="1475" on="0"/>
        <pt x="2820" y="1631" on="1"/>
        <pt x="2855" y="1631" on="1"/>
        <pt x="2855" y="1627" on="0"/>
        <pt x="2866" y="1611" on="0"/>
      </contour>
      <contour>
        <pt x="2170" y="1465" on="1"/>
        <pt x="2150" y="1401" on="0"/>
        <pt x="2059" y="1320" on="0"/>
        <pt x="1971" y="1275" on="1"/>
        <pt x="1889" y="1233" on="0"/>
        <pt x="1867" y="1234" on="1"/>
        <pt x="1814" y="1234" on="1"/>
        <pt x="1816" y="1273" on="0"/>
        <pt x="1870" y="1311" on="1"/>
        <pt x="1957" y="1371" on="0"/>
        <pt x="1966" y="1380" on="1"/>
        <pt x="1941" y="1397" on="0"/>
        <pt x="1899" y="1397" on="1"/>
        <pt x="1873" y="1397" on="0"/>
        <pt x="1752" y="1325" on="1"/>
        <pt x="1752" y="1380" on="1"/>
        <pt x="1751" y="1398" on="0"/>
        <pt x="1837" y="1494" on="0"/>
        <pt x="1867" y="1505" on="1"/>
        <pt x="1907" y="1520" on="0"/>
        <pt x="1960" y="1520" on="1"/>
        <pt x="1984" y="1520" on="0"/>
        <pt x="2062" y="1502" on="1"/>
        <pt x="2149" y="1481" on="0"/>
      </contour>
      <contour>
        <pt x="3604" y="244" on="1"/>
        <pt x="3604" y="197" on="0"/>
        <pt x="3577" y="124" on="1"/>
        <pt x="3547" y="44" on="0"/>
        <pt x="3518" y="38" on="1"/>
        <pt x="3474" y="19" on="0"/>
        <pt x="3395" y="-4" on="1"/>
        <pt x="3189" y="-27" on="0"/>
        <pt x="3061" y="-27" on="1"/>
        <pt x="2751" y="-27" on="0"/>
        <pt x="2625" y="97" on="1"/>
        <pt x="2576" y="68" on="0"/>
        <pt x="2528" y="39" on="1"/>
        <pt x="2429" y="-16" on="0"/>
        <pt x="2390" y="-16" on="1"/>
        <pt x="2335" y="-16" on="1"/>
        <pt x="2260" y="-16" on="0"/>
        <pt x="2194" y="17" on="1"/>
        <pt x="2183" y="23" on="0"/>
        <pt x="2133" y="58" on="1"/>
        <pt x="2095" y="86" on="0"/>
        <pt x="2078" y="86" on="1"/>
        <pt x="2071" y="86" on="0"/>
        <pt x="2012" y="55" on="1"/>
        <pt x="1950" y="22" on="0"/>
        <pt x="1920" y="17" on="1"/>
        <pt x="1725" y="-16" on="0"/>
        <pt x="1720" y="-16" on="1"/>
        <pt x="1707" y="-16" on="0"/>
        <pt x="1542" y="96" on="1"/>
        <pt x="1500" y="39" on="0"/>
        <pt x="1298" y="-17" on="1"/>
        <pt x="1113" y="-67" on="0"/>
        <pt x="998" y="-67" on="1"/>
        <pt x="742" y="-67" on="0"/>
        <pt x="597" y="-3" on="1"/>
        <pt x="495" y="42" on="0"/>
        <pt x="477" y="285" on="1"/>
        <pt x="466" y="433" on="0"/>
        <pt x="443" y="736" on="1"/>
        <pt x="440" y="773" on="0"/>
        <pt x="414" y="874" on="1"/>
        <pt x="389" y="972" on="0"/>
        <pt x="389" y="981" on="1"/>
        <pt x="389" y="1040" on="0"/>
        <pt x="456" y="1099" on="1"/>
        <pt x="550" y="990" on="0"/>
        <pt x="559" y="664" on="1"/>
        <pt x="567" y="389" on="0"/>
        <pt x="596" y="256" on="1"/>
        <pt x="631" y="96" on="0"/>
        <pt x="1075" y="96" on="1"/>
        <pt x="1086" y="96" on="0"/>
        <pt x="1204" y="118" on="1"/>
        <pt x="1344" y="143" on="0"/>
        <pt x="1428" y="156" on="0"/>
        <pt x="1468" y="221" on="1"/>
        <pt x="1526" y="318" on="0"/>
        <pt x="1529" y="320" on="1"/>
        <pt x="1574" y="320" on="1"/>
        <pt x="1576" y="282" on="0"/>
        <pt x="1579" y="215" on="1"/>
        <pt x="1591" y="197" on="0"/>
        <pt x="1699" y="147" on="0"/>
        <pt x="1725" y="147" on="1"/>
        <pt x="1894" y="147" on="0"/>
        <pt x="1956" y="196" on="1"/>
        <pt x="1956" y="232" on="0"/>
        <pt x="1899" y="251" on="1"/>
        <pt x="1850" y="267" on="0"/>
        <pt x="1802" y="283" on="1"/>
        <pt x="1802" y="325" on="1"/>
        <pt x="1802" y="342" on="0"/>
        <pt x="1873" y="425" on="0"/>
        <pt x="1941" y="475" on="0"/>
        <pt x="2017" y="475" on="1"/>
        <pt x="2113" y="475" on="0"/>
        <pt x="2204" y="432" on="1"/>
        <pt x="2314" y="380" on="0"/>
        <pt x="2314" y="301" on="1"/>
        <pt x="2314" y="261" on="0"/>
        <pt x="2232" y="183" on="1"/>
        <pt x="2252" y="147" on="0"/>
        <pt x="2385" y="147" on="1"/>
        <pt x="2479" y="147" on="0"/>
        <pt x="2531" y="179" on="1"/>
        <pt x="2548" y="190" on="0"/>
        <pt x="2598" y="264" on="0"/>
        <pt x="2612" y="275" on="1"/>
        <pt x="2645" y="301" on="0"/>
        <pt x="2679" y="301" on="1"/>
        <pt x="2691" y="289" on="0"/>
        <pt x="2708" y="268" on="1"/>
        <pt x="2788" y="137" on="0"/>
        <pt x="3102" y="137" on="1"/>
        <pt x="3114" y="137" on="0"/>
        <pt x="3360" y="147" on="0"/>
        <pt x="3373" y="147" on="1"/>
        <pt x="3405" y="147" on="0"/>
        <pt x="3438" y="159" on="1"/>
        <pt x="3481" y="174" on="0"/>
        <pt x="3481" y="198" on="1"/>
        <pt x="3481" y="209" on="0"/>
        <pt x="3389" y="339" on="0"/>
        <pt x="3389" y="352" on="1"/>
        <pt x="3389" y="374" on="0"/>
        <pt x="3442" y="464" on="0"/>
        <pt x="3460" y="464" on="1"/>
        <pt x="3511" y="464" on="0"/>
        <pt x="3560" y="371" on="1"/>
        <pt x="3604" y="290" on="0"/>
      </contour>
      <contour>
        <pt x="2754" y="-174" on="1"/>
        <pt x="2748" y="-191" on="0"/>
        <pt x="2739" y="-218" on="1"/>
        <pt x="2665" y="-282" on="0"/>
        <pt x="2642" y="-282" on="1"/>
        <pt x="2606" y="-282" on="0"/>
        <pt x="2561" y="-247" on="1"/>
        <pt x="2519" y="-214" on="0"/>
        <pt x="2519" y="-195" on="1"/>
        <pt x="2519" y="-170" on="0"/>
        <pt x="2553" y="-131" on="1"/>
        <pt x="2589" y="-88" on="0"/>
        <pt x="2626" y="-88" on="1"/>
        <pt x="2639" y="-88" on="0"/>
      </contour>
      <contour>
        <pt x="1515" y="1482" on="1"/>
        <pt x="1515" y="1466" on="0"/>
        <pt x="1446" y="1411" on="1"/>
        <pt x="1382" y="1362" on="0"/>
        <pt x="1338" y="1338" on="1"/>
        <pt x="1094" y="1205" on="0"/>
        <pt x="803" y="1069" on="1"/>
        <pt x="788" y="1083" on="0"/>
        <pt x="788" y="1104" on="1"/>
        <pt x="788" y="1164" on="0"/>
        <pt x="832" y="1187" on="1"/>
        <pt x="1237" y="1398" on="0"/>
        <pt x="1468" y="1529" on="1"/>
        <pt x="1515" y="1529" on="1"/>
      </contour>
      <contour>
        <pt x="1515" y="592" on="1"/>
        <pt x="1515" y="558" on="0"/>
        <pt x="1472" y="529" on="1"/>
        <pt x="1437" y="505" on="0"/>
        <pt x="1418" y="505" on="1"/>
        <pt x="1392" y="505" on="0"/>
        <pt x="1344" y="533" on="1"/>
        <pt x="1290" y="564" on="0"/>
        <pt x="1290" y="592" on="1"/>
        <pt x="1290" y="614" on="0"/>
        <pt x="1369" y="700" on="0"/>
        <pt x="1397" y="700" on="1"/>
        <pt x="1433" y="700" on="0"/>
        <pt x="1475" y="659" on="1"/>
        <pt x="1515" y="619" on="0"/>
      </contour>
      <contour>
        <pt x="3982" y="1395" on="1"/>
        <pt x="3945" y="1395" on="1"/>
        <pt x="3912" y="1365" on="0"/>
        <pt x="3912" y="1348" on="1"/>
        <pt x="3921" y="1338" on="0"/>
        <pt x="3936" y="1335" on="1"/>
        <pt x="3966" y="1340" on="0"/>
      </contour>
      <contour>
        <pt x="4464" y="264" on="1"/>
        <pt x="4452" y="287" on="0"/>
        <pt x="4452" y="320" on="1"/>
        <pt x="4416" y="320" on="1"/>
        <pt x="4392" y="298" on="0"/>
        <pt x="4392" y="274" on="1"/>
        <pt x="4397" y="268" on="0"/>
        <pt x="4433" y="245" on="0"/>
        <pt x="4438" y="239" on="1"/>
      </contour>
    </TTGlyph>
    <TTGlyph name="uniFB56" xMin="308" yMin="-428" xMax="4144" yMax="1722">
      <contour>
        <pt x="4137" y="1485" on="1"/>
        <pt x="4144" y="1435" on="0"/>
        <pt x="4123" y="1387" on="1"/>
        <pt x="4085" y="1301" on="0"/>
        <pt x="4017" y="1261" on="1"/>
        <pt x="3975" y="1235" on="0"/>
        <pt x="3883" y="1215" on="1"/>
        <pt x="3787" y="1192" on="0"/>
        <pt x="3743" y="1169" on="1"/>
        <pt x="3728" y="1184" on="0"/>
        <pt x="3728" y="1200" on="1"/>
        <pt x="3728" y="1258" on="0"/>
        <pt x="3791" y="1321" on="1"/>
        <pt x="3814" y="1329" on="0"/>
        <pt x="3853" y="1345" on="1"/>
        <pt x="3857" y="1347" on="0"/>
        <pt x="3931" y="1449" on="1"/>
        <pt x="3994" y="1538" on="0"/>
        <pt x="4050" y="1538" on="1"/>
        <pt x="4082" y="1538" on="0"/>
      </contour>
      <contour>
        <pt x="4004" y="176" on="1"/>
        <pt x="4004" y="114" on="0"/>
        <pt x="3998" y="98" on="1"/>
        <pt x="3991" y="77" on="0"/>
        <pt x="3939" y="2" on="1"/>
        <pt x="3937" y="3" on="0"/>
        <pt x="3905" y="46" on="1"/>
        <pt x="3884" y="199" on="0"/>
        <pt x="3821" y="618" on="1"/>
        <pt x="3769" y="967" on="0"/>
        <pt x="3769" y="980" on="1"/>
        <pt x="3769" y="1020" on="0"/>
        <pt x="3813" y="1107" on="1"/>
        <pt x="3859" y="1107" on="1"/>
        <pt x="3902" y="1022" on="0"/>
        <pt x="3917" y="868" on="1"/>
        <pt x="3926" y="756" on="0"/>
        <pt x="3935" y="644" on="1"/>
        <pt x="4004" y="197" on="0"/>
      </contour>
      <contour>
        <pt x="3246" y="1681" on="1"/>
        <pt x="3246" y="1623" on="0"/>
        <pt x="2886" y="1411" on="1"/>
        <pt x="2716" y="1312" on="0"/>
        <pt x="2604" y="1262" on="1"/>
        <pt x="2604" y="1265" on="0"/>
        <pt x="2591" y="1299" on="0"/>
        <pt x="2591" y="1312" on="1"/>
        <pt x="2591" y="1366" on="0"/>
        <pt x="2635" y="1390" on="1"/>
        <pt x="3014" y="1597" on="0"/>
        <pt x="3211" y="1722" on="1"/>
        <pt x="3222" y="1715" on="0"/>
        <pt x="3233" y="1707" on="1"/>
        <pt x="3246" y="1697" on="0"/>
      </contour>
      <contour>
        <pt x="3144" y="1262" on="1"/>
        <pt x="3144" y="1201" on="0"/>
        <pt x="3110" y="1131" on="1"/>
        <pt x="3099" y="1110" on="0"/>
        <pt x="2884" y="985" on="0"/>
        <pt x="2857" y="985" on="1"/>
        <pt x="2811" y="985" on="0"/>
        <pt x="2776" y="1017" on="1"/>
        <pt x="2768" y="1106" on="0"/>
        <pt x="2831" y="1179" on="1"/>
        <pt x="2846" y="1174" on="0"/>
        <pt x="2864" y="1144" on="1"/>
        <pt x="2880" y="1118" on="0"/>
        <pt x="2893" y="1118" on="1"/>
        <pt x="2922" y="1118" on="0"/>
        <pt x="2938" y="1171" on="1"/>
        <pt x="2946" y="1204" on="0"/>
        <pt x="2953" y="1238" on="1"/>
        <pt x="2960" y="1247" on="0"/>
        <pt x="2984" y="1271" on="1"/>
        <pt x="3013" y="1270" on="0"/>
        <pt x="3020" y="1244" on="1"/>
        <pt x="3036" y="1193" on="0"/>
        <pt x="3038" y="1189" on="1"/>
        <pt x="3061" y="1214" on="0"/>
        <pt x="3075" y="1286" on="0"/>
        <pt x="3097" y="1312" on="1"/>
        <pt x="3144" y="1284" on="0"/>
      </contour>
      <contour>
        <pt x="3554" y="221" on="1"/>
        <pt x="3537" y="171" on="0"/>
        <pt x="3521" y="121" on="1"/>
        <pt x="3491" y="52" on="0"/>
        <pt x="3428" y="25" on="1"/>
        <pt x="3391" y="16" on="0"/>
        <pt x="3325" y="-1" on="1"/>
        <pt x="3304" y="-7" on="0"/>
        <pt x="3287" y="-45" on="1"/>
        <pt x="3275" y="-77" on="0"/>
        <pt x="3263" y="-108" on="1"/>
        <pt x="3194" y="-252" on="0"/>
        <pt x="3090" y="-338" on="1"/>
        <pt x="2982" y="-428" on="0"/>
        <pt x="2863" y="-428" on="1"/>
        <pt x="2763" y="-428" on="0"/>
        <pt x="2626" y="-384" on="1"/>
        <pt x="2547" y="-358" on="0"/>
        <pt x="2490" y="-302" on="1"/>
        <pt x="2490" y="-292" on="0"/>
        <pt x="2515" y="-264" on="0"/>
        <pt x="2530" y="-264" on="1"/>
        <pt x="2543" y="-264" on="0"/>
        <pt x="2779" y="-305" on="0"/>
        <pt x="2791" y="-305" on="1"/>
        <pt x="2874" y="-305" on="0"/>
        <pt x="2882" y="-303" on="1"/>
        <pt x="2911" y="-294" on="0"/>
        <pt x="2993" y="-242" on="1"/>
        <pt x="3019" y="-226" on="0"/>
        <pt x="3089" y="-151" on="1"/>
        <pt x="3175" y="-60" on="0"/>
        <pt x="3175" y="-23" on="1"/>
        <pt x="3175" y="-13" on="0"/>
        <pt x="3136" y="19" on="1"/>
        <pt x="3089" y="57" on="0"/>
        <pt x="3076" y="76" on="1"/>
        <pt x="3073" y="88" on="0"/>
        <pt x="3073" y="104" on="1"/>
        <pt x="3073" y="143" on="0"/>
        <pt x="3112" y="206" on="0"/>
        <pt x="3139" y="206" on="1"/>
        <pt x="3151" y="206" on="0"/>
        <pt x="3217" y="170" on="0"/>
        <pt x="3248" y="165" on="0"/>
        <pt x="3308" y="165" on="1"/>
        <pt x="3403" y="165" on="0"/>
        <pt x="3432" y="192" on="1"/>
        <pt x="3410" y="355" on="0"/>
        <pt x="3335" y="845" on="1"/>
        <pt x="3332" y="864" on="0"/>
        <pt x="3310" y="922" on="1"/>
        <pt x="3287" y="976" on="0"/>
        <pt x="3287" y="990" on="1"/>
        <pt x="3287" y="1037" on="0"/>
        <pt x="3382" y="1179" on="1"/>
        <pt x="3388" y="1180" on="0"/>
        <pt x="3393" y="1180" on="1"/>
        <pt x="3429" y="1180" on="0"/>
        <pt x="3437" y="1123" on="1"/>
        <pt x="3440" y="1078" on="0"/>
        <pt x="3443" y="1033" on="1"/>
        <pt x="3449" y="1028" on="0"/>
        <pt x="3499" y="1004" on="1"/>
        <pt x="3533" y="988" on="0"/>
        <pt x="3533" y="959" on="1"/>
        <pt x="3533" y="947" on="0"/>
        <pt x="3506" y="886" on="1"/>
        <pt x="3477" y="822" on="0"/>
        <pt x="3472" y="795" on="1"/>
      </contour>
      <contour>
        <pt x="2295" y="1292" on="1"/>
        <pt x="2295" y="1264" on="0"/>
        <pt x="2262" y="1221" on="0"/>
        <pt x="2244" y="1221" on="1"/>
        <pt x="2231" y="1221" on="0"/>
        <pt x="2190" y="1241" on="0"/>
        <pt x="2177" y="1241" on="1"/>
        <pt x="2178" y="1241" on="0"/>
        <pt x="2007" y="1105" on="1"/>
        <pt x="1824" y="958" on="0"/>
        <pt x="1748" y="913" on="1"/>
        <pt x="1681" y="927" on="1"/>
        <pt x="1734" y="997" on="0"/>
        <pt x="1864" y="1105" on="1"/>
        <pt x="2050" y="1259" on="0"/>
        <pt x="2080" y="1287" on="1"/>
        <pt x="2072" y="1297" on="0"/>
        <pt x="2010" y="1354" on="1"/>
        <pt x="1987" y="1376" on="0"/>
        <pt x="1987" y="1415" on="1"/>
        <pt x="1987" y="1452" on="0"/>
        <pt x="2041" y="1544" on="1"/>
        <pt x="2102" y="1650" on="0"/>
        <pt x="2156" y="1650" on="1"/>
        <pt x="2231" y="1650" on="0"/>
        <pt x="2243" y="1516" on="1"/>
        <pt x="2244" y="1443" on="0"/>
        <pt x="2245" y="1372" on="1"/>
        <pt x="2295" y="1308" on="0"/>
      </contour>
      <contour>
        <pt x="1097" y="1609" on="1"/>
        <pt x="1097" y="1537" on="0"/>
        <pt x="818" y="1371" on="1"/>
        <pt x="706" y="1296" on="0"/>
        <pt x="489" y="1139" on="1"/>
        <pt x="455" y="1139" on="1"/>
        <pt x="442" y="1152" on="0"/>
        <pt x="442" y="1180" on="1"/>
        <pt x="442" y="1230" on="0"/>
        <pt x="697" y="1411" on="1"/>
        <pt x="868" y="1525" on="0"/>
        <pt x="1039" y="1640" on="1"/>
        <pt x="1084" y="1640" on="1"/>
        <pt x="1097" y="1626" on="0"/>
      </contour>
      <contour>
        <pt x="2766" y="268" on="1"/>
        <pt x="2766" y="63" on="0"/>
        <pt x="2581" y="63" on="1"/>
        <pt x="2567" y="63" on="0"/>
        <pt x="2445" y="115" on="0"/>
        <pt x="2433" y="115" on="1"/>
        <pt x="2420" y="115" on="0"/>
        <pt x="2179" y="33" on="0"/>
        <pt x="2167" y="33" on="1"/>
        <pt x="2156" y="33" on="0"/>
        <pt x="2037" y="53" on="0"/>
        <pt x="2023" y="53" on="1"/>
        <pt x="1988" y="53" on="0"/>
        <pt x="1917" y="40" on="1"/>
        <pt x="1824" y="24" on="0"/>
        <pt x="1801" y="0" on="1"/>
        <pt x="1751" y="-85" on="0"/>
        <pt x="1645" y="-251" on="1"/>
        <pt x="1619" y="-289" on="0"/>
        <pt x="1532" y="-355" on="0"/>
        <pt x="1460" y="-385" on="1"/>
        <pt x="1384" y="-417" on="0"/>
        <pt x="1343" y="-417" on="1"/>
        <pt x="1128" y="-417" on="0"/>
        <pt x="964" y="-292" on="1"/>
        <pt x="964" y="-253" on="0"/>
        <pt x="1010" y="-253" on="1"/>
        <pt x="1022" y="-253" on="0"/>
        <pt x="1253" y="-305" on="0"/>
        <pt x="1266" y="-305" on="1"/>
        <pt x="1357" y="-305" on="0"/>
        <pt x="1621" y="-116" on="0"/>
        <pt x="1650" y="-33" on="1"/>
        <pt x="1641" y="-9" on="0"/>
        <pt x="1558" y="-9" on="1"/>
        <pt x="1462" y="-8" on="0"/>
        <pt x="1426" y="16" on="1"/>
        <pt x="1373" y="51" on="0"/>
        <pt x="1373" y="135" on="1"/>
        <pt x="1373" y="224" on="0"/>
        <pt x="1419" y="306" on="1"/>
        <pt x="1472" y="401" on="0"/>
        <pt x="1552" y="401" on="1"/>
        <pt x="1634" y="401" on="0"/>
        <pt x="1778" y="165" on="0"/>
        <pt x="1793" y="165" on="1"/>
        <pt x="1894" y="165" on="0"/>
        <pt x="1991" y="209" on="1"/>
        <pt x="1997" y="211" on="0"/>
        <pt x="2062" y="308" on="1"/>
        <pt x="2108" y="308" on="1"/>
        <pt x="2130" y="267" on="0"/>
        <pt x="2130" y="227" on="1"/>
        <pt x="2130" y="217" on="0"/>
        <pt x="2127" y="190" on="0"/>
        <pt x="2127" y="186" on="1"/>
        <pt x="2127" y="165" on="0"/>
        <pt x="2167" y="165" on="1"/>
        <pt x="2183" y="165" on="0"/>
        <pt x="2308" y="199" on="1"/>
        <pt x="2330" y="204" on="0"/>
        <pt x="2384" y="246" on="1"/>
        <pt x="2398" y="289" on="0"/>
        <pt x="2411" y="333" on="1"/>
        <pt x="2432" y="392" on="0"/>
        <pt x="2475" y="411" on="1"/>
        <pt x="2506" y="371" on="0"/>
        <pt x="2506" y="318" on="1"/>
        <pt x="2506" y="309" on="0"/>
        <pt x="2504" y="279" on="0"/>
        <pt x="2504" y="274" on="1"/>
        <pt x="2504" y="237" on="0"/>
        <pt x="2547" y="237" on="1"/>
        <pt x="2625" y="237" on="1"/>
        <pt x="2629" y="250" on="0"/>
        <pt x="2629" y="263" on="1"/>
        <pt x="2629" y="280" on="0"/>
        <pt x="2612" y="334" on="0"/>
        <pt x="2612" y="345" on="1"/>
        <pt x="2612" y="387" on="0"/>
        <pt x="2677" y="473" on="1"/>
        <pt x="2718" y="457" on="0"/>
        <pt x="2744" y="383" on="1"/>
        <pt x="2766" y="321" on="0"/>
      </contour>
      <contour>
        <pt x="1076" y="227" on="1"/>
        <pt x="1076" y="125" on="0"/>
        <pt x="1041" y="-4" on="1"/>
        <pt x="1022" y="-76" on="0"/>
        <pt x="869" y="-151" on="1"/>
        <pt x="725" y="-223" on="0"/>
        <pt x="631" y="-223" on="1"/>
        <pt x="583" y="-223" on="0"/>
        <pt x="424" y="-179" on="1"/>
        <pt x="387" y="-169" on="0"/>
        <pt x="346" y="-73" on="1"/>
        <pt x="308" y="10" on="0"/>
        <pt x="308" y="43" on="1"/>
        <pt x="308" y="89" on="0"/>
        <pt x="357" y="184" on="1"/>
        <pt x="402" y="270" on="0"/>
        <pt x="445" y="318" on="1"/>
        <pt x="482" y="318" on="1"/>
        <pt x="451" y="138" on="0"/>
        <pt x="451" y="125" on="1"/>
        <pt x="451" y="34" on="0"/>
        <pt x="510" y="-14" on="1"/>
        <pt x="564" y="-59" on="0"/>
        <pt x="651" y="-59" on="1"/>
        <pt x="736" y="-59" on="0"/>
        <pt x="834" y="-18" on="1"/>
        <pt x="963" y="36" on="0"/>
        <pt x="963" y="125" on="1"/>
        <pt x="963" y="114" on="0"/>
        <pt x="864" y="610" on="1"/>
        <pt x="846" y="697" on="0"/>
        <pt x="837" y="857" on="1"/>
        <pt x="836" y="869" on="0"/>
        <pt x="790" y="958" on="0"/>
        <pt x="790" y="969" on="1"/>
        <pt x="790" y="1005" on="0"/>
        <pt x="814" y="1072" on="1"/>
        <pt x="845" y="1155" on="0"/>
        <pt x="886" y="1179" on="1"/>
        <pt x="924" y="1176" on="0"/>
        <pt x="926" y="1107" on="1"/>
        <pt x="929" y="1035" on="0"/>
        <pt x="1004" y="1015" on="1"/>
        <pt x="1004" y="973" on="0"/>
        <pt x="963" y="868" on="0"/>
        <pt x="963" y="846" on="1"/>
        <pt x="963" y="736" on="0"/>
        <pt x="1076" y="270" on="0"/>
      </contour>
      <contour>
        <pt x="4022" y="1397" on="1"/>
        <pt x="4012" y="1407" on="1"/>
        <pt x="3966" y="1362" on="1"/>
        <pt x="3976" y="1351" on="1"/>
      </contour>
      <contour>
        <pt x="2150" y="1436" on="1"/>
        <pt x="2150" y="1454" on="0"/>
        <pt x="2140" y="1493" on="0"/>
        <pt x="2140" y="1495" on="1"/>
        <pt x="2101" y="1495" on="1"/>
        <pt x="2101" y="1448" on="1"/>
      </contour>
      <contour>
        <pt x="1574" y="156" on="1"/>
        <pt x="1580" y="166" on="0"/>
        <pt x="1581" y="177" on="1"/>
        <pt x="1581" y="207" on="0"/>
        <pt x="1520" y="227" on="1"/>
        <pt x="1497" y="203" on="0"/>
        <pt x="1497" y="188" on="1"/>
        <pt x="1526" y="177" on="0"/>
      </contour>
    </TTGlyph>
</ttFont>
